<mxfile host="Electron" agent="Mozilla/5.0 (X11; Linux x86_64) AppleWebKit/537.36 (KHTML, like Gecko) draw.io/26.0.16 Chrome/132.0.6834.196 Electron/34.2.0 Safari/537.36" version="26.0.16" pages="5">
  <diagram id="Ht1M8jgEwFfnCIfOTk4-" name="MS-Game-Exchanges">
    <mxGraphModel dx="1194" dy="1526" grid="1" gridSize="10" guides="1" tooltips="1" connect="1" arrows="1" fold="1" page="1" pageScale="1" pageWidth="1169" pageHeight="827" math="0" shadow="0">
      <root>
        <mxCell id="0" />
        <mxCell id="1" parent="0" />
        <mxCell id="-0Zx2nkR6988RbEy9D-E-5" value="MS Users" style="points=[[0,0],[0.25,0],[0.5,0],[0.75,0],[1,0],[1,0.25],[1,0.5],[1,0.75],[1,1],[0.75,1],[0.5,1],[0.25,1],[0,1],[0,0.75],[0,0.5],[0,0.25]];outlineConnect=0;gradientColor=none;html=1;whiteSpace=wrap;fontSize=12;fontStyle=0;container=1;pointerEvents=0;collapsible=0;recursiveResize=0;shape=mxgraph.aws4.group;grIcon=mxgraph.aws4.group_aws_cloud;strokeColor=#232F3E;fillColor=none;verticalAlign=top;align=left;spacingLeft=30;fontColor=#232F3E;dashed=0;" parent="1" vertex="1">
          <mxGeometry x="80" y="-760" width="400" height="360" as="geometry" />
        </mxCell>
        <mxCell id="-0Zx2nkR6988RbEy9D-E-9" value="API Users&lt;div&gt;&lt;br&gt;&lt;/div&gt;" style="sketch=0;outlineConnect=0;fontColor=#232F3E;gradientColor=none;strokeColor=#ffffff;fillColor=#232F3E;dashed=0;verticalLabelPosition=middle;verticalAlign=bottom;align=center;html=1;whiteSpace=wrap;fontSize=10;fontStyle=1;spacing=3;shape=mxgraph.aws4.productIcon;prIcon=mxgraph.aws4.ecs;" parent="-0Zx2nkR6988RbEy9D-E-5" vertex="1">
          <mxGeometry x="280" y="40" width="80" height="120" as="geometry" />
        </mxCell>
        <mxCell id="-0Zx2nkR6988RbEy9D-E-10" value="&lt;div&gt;DB User&lt;/div&gt;&lt;div&gt;&lt;br&gt;&lt;/div&gt;" style="sketch=0;outlineConnect=0;fontColor=#232F3E;gradientColor=none;strokeColor=#ffffff;fillColor=#232F3E;dashed=0;verticalLabelPosition=middle;verticalAlign=bottom;align=center;html=1;whiteSpace=wrap;fontSize=10;fontStyle=1;spacing=3;shape=mxgraph.aws4.productIcon;prIcon=mxgraph.aws4.aurora;" parent="-0Zx2nkR6988RbEy9D-E-5" vertex="1">
          <mxGeometry x="280" y="200" width="80" height="120" as="geometry" />
        </mxCell>
        <mxCell id="-0Zx2nkR6988RbEy9D-E-11" value="Redis&lt;div&gt;&lt;br&gt;&lt;/div&gt;" style="sketch=0;outlineConnect=0;fontColor=#232F3E;gradientColor=none;strokeColor=#ffffff;fillColor=#232F3E;dashed=0;verticalLabelPosition=middle;verticalAlign=bottom;align=center;html=1;whiteSpace=wrap;fontSize=10;fontStyle=1;spacing=3;shape=mxgraph.aws4.productIcon;prIcon=mxgraph.aws4.elasticache_for_redis;" parent="-0Zx2nkR6988RbEy9D-E-5" vertex="1">
          <mxGeometry x="40" y="200" width="80" height="120" as="geometry" />
        </mxCell>
        <mxCell id="-0Zx2nkR6988RbEy9D-E-12" value="GTW Users&lt;div&gt;&lt;br&gt;&lt;/div&gt;" style="sketch=0;outlineConnect=0;fontColor=#232F3E;gradientColor=none;strokeColor=#ffffff;fillColor=#232F3E;dashed=0;verticalLabelPosition=middle;verticalAlign=bottom;align=center;html=1;whiteSpace=wrap;fontSize=10;fontStyle=1;spacing=3;shape=mxgraph.aws4.productIcon;prIcon=mxgraph.aws4.api_gateway;" parent="-0Zx2nkR6988RbEy9D-E-5" vertex="1">
          <mxGeometry x="40" y="40" width="80" height="120" as="geometry" />
        </mxCell>
        <mxCell id="-0Zx2nkR6988RbEy9D-E-13" value="" style="edgeStyle=orthogonalEdgeStyle;html=1;endArrow=block;elbow=vertical;startArrow=block;startFill=1;endFill=1;strokeColor=#545B64;rounded=0;" parent="-0Zx2nkR6988RbEy9D-E-5" source="-0Zx2nkR6988RbEy9D-E-12" target="-0Zx2nkR6988RbEy9D-E-9" edge="1">
          <mxGeometry width="100" relative="1" as="geometry">
            <mxPoint x="120" y="80" as="sourcePoint" />
            <mxPoint x="280" y="80" as="targetPoint" />
            <Array as="points">
              <mxPoint x="160" y="80" />
              <mxPoint x="160" y="80" />
            </Array>
          </mxGeometry>
        </mxCell>
        <mxCell id="-0Zx2nkR6988RbEy9D-E-14" value="" style="edgeStyle=orthogonalEdgeStyle;html=1;endArrow=block;elbow=vertical;startArrow=block;startFill=1;endFill=1;strokeColor=#545B64;rounded=0;" parent="-0Zx2nkR6988RbEy9D-E-5" source="-0Zx2nkR6988RbEy9D-E-11" target="-0Zx2nkR6988RbEy9D-E-9" edge="1">
          <mxGeometry width="100" relative="1" as="geometry">
            <mxPoint x="140" y="240" as="sourcePoint" />
            <mxPoint x="240" y="240" as="targetPoint" />
            <Array as="points">
              <mxPoint x="200" y="240" />
              <mxPoint x="200" y="120" />
            </Array>
          </mxGeometry>
        </mxCell>
        <mxCell id="-0Zx2nkR6988RbEy9D-E-15" value="" style="edgeStyle=orthogonalEdgeStyle;html=1;endArrow=block;elbow=vertical;startArrow=block;startFill=1;endFill=1;strokeColor=#545B64;rounded=0;" parent="-0Zx2nkR6988RbEy9D-E-5" source="-0Zx2nkR6988RbEy9D-E-9" target="-0Zx2nkR6988RbEy9D-E-10" edge="1">
          <mxGeometry width="100" relative="1" as="geometry">
            <mxPoint x="250" y="170" as="sourcePoint" />
            <mxPoint x="350" y="170" as="targetPoint" />
          </mxGeometry>
        </mxCell>
        <mxCell id="-0Zx2nkR6988RbEy9D-E-6" value="MS Games" style="points=[[0,0],[0.25,0],[0.5,0],[0.75,0],[1,0],[1,0.25],[1,0.5],[1,0.75],[1,1],[0.75,1],[0.5,1],[0.25,1],[0,1],[0,0.75],[0,0.5],[0,0.25]];outlineConnect=0;gradientColor=none;html=1;whiteSpace=wrap;fontSize=12;fontStyle=0;container=1;pointerEvents=0;collapsible=0;recursiveResize=0;shape=mxgraph.aws4.group;grIcon=mxgraph.aws4.group_aws_cloud;strokeColor=#232F3E;fillColor=none;verticalAlign=top;align=left;spacingLeft=30;fontColor=#232F3E;dashed=0;" parent="1" vertex="1">
          <mxGeometry x="520" y="-760" width="400" height="360" as="geometry" />
        </mxCell>
        <mxCell id="-0Zx2nkR6988RbEy9D-E-16" value="API Games&lt;div&gt;&lt;br&gt;&lt;/div&gt;" style="sketch=0;outlineConnect=0;fontColor=#232F3E;gradientColor=none;strokeColor=#ffffff;fillColor=#232F3E;dashed=0;verticalLabelPosition=middle;verticalAlign=bottom;align=center;html=1;whiteSpace=wrap;fontSize=10;fontStyle=1;spacing=3;shape=mxgraph.aws4.productIcon;prIcon=mxgraph.aws4.ecs;" parent="-0Zx2nkR6988RbEy9D-E-6" vertex="1">
          <mxGeometry x="280" y="40" width="80" height="120" as="geometry" />
        </mxCell>
        <mxCell id="-0Zx2nkR6988RbEy9D-E-17" value="&lt;div&gt;DB Game&lt;/div&gt;&lt;div&gt;&lt;br&gt;&lt;/div&gt;" style="sketch=0;outlineConnect=0;fontColor=#232F3E;gradientColor=none;strokeColor=#ffffff;fillColor=#232F3E;dashed=0;verticalLabelPosition=middle;verticalAlign=bottom;align=center;html=1;whiteSpace=wrap;fontSize=10;fontStyle=1;spacing=3;shape=mxgraph.aws4.productIcon;prIcon=mxgraph.aws4.aurora;" parent="-0Zx2nkR6988RbEy9D-E-6" vertex="1">
          <mxGeometry x="280" y="200" width="80" height="120" as="geometry" />
        </mxCell>
        <mxCell id="-0Zx2nkR6988RbEy9D-E-18" value="Redis&lt;div&gt;&lt;br&gt;&lt;/div&gt;" style="sketch=0;outlineConnect=0;fontColor=#232F3E;gradientColor=none;strokeColor=#ffffff;fillColor=#232F3E;dashed=0;verticalLabelPosition=middle;verticalAlign=bottom;align=center;html=1;whiteSpace=wrap;fontSize=10;fontStyle=1;spacing=3;shape=mxgraph.aws4.productIcon;prIcon=mxgraph.aws4.elasticache_for_redis;" parent="-0Zx2nkR6988RbEy9D-E-6" vertex="1">
          <mxGeometry x="40" y="200" width="80" height="120" as="geometry" />
        </mxCell>
        <mxCell id="-0Zx2nkR6988RbEy9D-E-19" value="GTW Games&lt;div&gt;&lt;br&gt;&lt;/div&gt;" style="sketch=0;outlineConnect=0;fontColor=#232F3E;gradientColor=none;strokeColor=#ffffff;fillColor=#232F3E;dashed=0;verticalLabelPosition=middle;verticalAlign=bottom;align=center;html=1;whiteSpace=wrap;fontSize=10;fontStyle=1;spacing=3;shape=mxgraph.aws4.productIcon;prIcon=mxgraph.aws4.api_gateway;" parent="-0Zx2nkR6988RbEy9D-E-6" vertex="1">
          <mxGeometry x="40" y="40" width="80" height="120" as="geometry" />
        </mxCell>
        <mxCell id="-0Zx2nkR6988RbEy9D-E-20" value="" style="edgeStyle=orthogonalEdgeStyle;html=1;endArrow=block;elbow=vertical;startArrow=block;startFill=1;endFill=1;strokeColor=#545B64;rounded=0;" parent="-0Zx2nkR6988RbEy9D-E-6" source="-0Zx2nkR6988RbEy9D-E-19" target="-0Zx2nkR6988RbEy9D-E-16" edge="1">
          <mxGeometry width="100" relative="1" as="geometry">
            <mxPoint x="120" y="80" as="sourcePoint" />
            <mxPoint x="280" y="80" as="targetPoint" />
            <Array as="points">
              <mxPoint x="160" y="80" />
              <mxPoint x="160" y="80" />
            </Array>
          </mxGeometry>
        </mxCell>
        <mxCell id="-0Zx2nkR6988RbEy9D-E-21" value="" style="edgeStyle=orthogonalEdgeStyle;html=1;endArrow=block;elbow=vertical;startArrow=block;startFill=1;endFill=1;strokeColor=#545B64;rounded=0;" parent="-0Zx2nkR6988RbEy9D-E-6" source="-0Zx2nkR6988RbEy9D-E-18" target="-0Zx2nkR6988RbEy9D-E-16" edge="1">
          <mxGeometry width="100" relative="1" as="geometry">
            <mxPoint x="140" y="240" as="sourcePoint" />
            <mxPoint x="240" y="240" as="targetPoint" />
            <Array as="points">
              <mxPoint x="200" y="240" />
              <mxPoint x="200" y="120" />
            </Array>
          </mxGeometry>
        </mxCell>
        <mxCell id="-0Zx2nkR6988RbEy9D-E-35" value="" style="edgeStyle=orthogonalEdgeStyle;html=1;endArrow=block;elbow=vertical;startArrow=block;startFill=1;endFill=1;strokeColor=#545B64;rounded=0;" parent="-0Zx2nkR6988RbEy9D-E-6" source="-0Zx2nkR6988RbEy9D-E-16" target="-0Zx2nkR6988RbEy9D-E-17" edge="1">
          <mxGeometry width="100" relative="1" as="geometry">
            <mxPoint x="270" y="179.5" as="sourcePoint" />
            <mxPoint x="370" y="179.5" as="targetPoint" />
          </mxGeometry>
        </mxCell>
        <mxCell id="-0Zx2nkR6988RbEy9D-E-7" value="MS Messages" style="points=[[0,0],[0.25,0],[0.5,0],[0.75,0],[1,0],[1,0.25],[1,0.5],[1,0.75],[1,1],[0.75,1],[0.5,1],[0.25,1],[0,1],[0,0.75],[0,0.5],[0,0.25]];outlineConnect=0;gradientColor=none;html=1;whiteSpace=wrap;fontSize=12;fontStyle=0;container=1;pointerEvents=0;collapsible=0;recursiveResize=0;shape=mxgraph.aws4.group;grIcon=mxgraph.aws4.group_aws_cloud;strokeColor=#232F3E;fillColor=none;verticalAlign=top;align=left;spacingLeft=30;fontColor=#232F3E;dashed=0;" parent="1" vertex="1">
          <mxGeometry x="520" y="-360" width="400" height="360" as="geometry" />
        </mxCell>
        <mxCell id="-0Zx2nkR6988RbEy9D-E-8" value="MS Exchanges" style="points=[[0,0],[0.25,0],[0.5,0],[0.75,0],[1,0],[1,0.25],[1,0.5],[1,0.75],[1,1],[0.75,1],[0.5,1],[0.25,1],[0,1],[0,0.75],[0,0.5],[0,0.25]];outlineConnect=0;gradientColor=none;html=1;whiteSpace=wrap;fontSize=12;fontStyle=0;container=1;pointerEvents=0;collapsible=0;recursiveResize=0;shape=mxgraph.aws4.group;grIcon=mxgraph.aws4.group_aws_cloud;strokeColor=#232F3E;fillColor=none;verticalAlign=top;align=left;spacingLeft=30;fontColor=#232F3E;dashed=0;" parent="1" vertex="1">
          <mxGeometry x="80" y="-360" width="400" height="360" as="geometry" />
        </mxCell>
        <mxCell id="-0Zx2nkR6988RbEy9D-E-37" value="Producer&lt;div&gt;Message&lt;/div&gt;" style="sketch=0;points=[[0,0,0],[0.25,0,0],[0.5,0,0],[0.75,0,0],[1,0,0],[0,1,0],[0.25,1,0],[0.5,1,0],[0.75,1,0],[1,1,0],[0,0.25,0],[0,0.5,0],[0,0.75,0],[1,0.25,0],[1,0.5,0],[1,0.75,0]];outlineConnect=0;fontColor=#232F3E;fillColor=#8C4FFF;strokeColor=#ffffff;dashed=0;verticalLabelPosition=bottom;verticalAlign=top;align=center;html=1;fontSize=12;fontStyle=0;aspect=fixed;shape=mxgraph.aws4.resourceIcon;resIcon=mxgraph.aws4.managed_streaming_for_kafka;" parent="-0Zx2nkR6988RbEy9D-E-8" vertex="1">
          <mxGeometry x="280" y="40" width="78" height="78" as="geometry" />
        </mxCell>
        <mxCell id="-0Zx2nkR6988RbEy9D-E-40" value="&lt;div&gt;DB Exchange&lt;/div&gt;&lt;div&gt;&lt;br&gt;&lt;/div&gt;" style="sketch=0;outlineConnect=0;fontColor=#232F3E;gradientColor=none;strokeColor=#ffffff;fillColor=#232F3E;dashed=0;verticalLabelPosition=middle;verticalAlign=bottom;align=center;html=1;whiteSpace=wrap;fontSize=10;fontStyle=1;spacing=3;shape=mxgraph.aws4.productIcon;prIcon=mxgraph.aws4.aurora;" parent="-0Zx2nkR6988RbEy9D-E-8" vertex="1">
          <mxGeometry x="160" y="200" width="80" height="120" as="geometry" />
        </mxCell>
        <mxCell id="-0Zx2nkR6988RbEy9D-E-41" value="GTW Exchanges&lt;div&gt;&lt;br&gt;&lt;/div&gt;" style="sketch=0;outlineConnect=0;fontColor=#232F3E;gradientColor=none;strokeColor=#ffffff;fillColor=#232F3E;dashed=0;verticalLabelPosition=middle;verticalAlign=bottom;align=center;html=1;whiteSpace=wrap;fontSize=10;fontStyle=1;spacing=3;shape=mxgraph.aws4.productIcon;prIcon=mxgraph.aws4.api_gateway;" parent="-0Zx2nkR6988RbEy9D-E-8" vertex="1">
          <mxGeometry x="40" y="40" width="80" height="120" as="geometry" />
        </mxCell>
        <mxCell id="-0Zx2nkR6988RbEy9D-E-42" value="" style="edgeStyle=orthogonalEdgeStyle;html=1;endArrow=block;elbow=vertical;startArrow=none;endFill=1;strokeColor=#545B64;rounded=0;entryX=0;entryY=0.5;entryDx=0;entryDy=0;entryPerimeter=0;" parent="-0Zx2nkR6988RbEy9D-E-8" source="-0Zx2nkR6988RbEy9D-E-41" target="-0Zx2nkR6988RbEy9D-E-37" edge="1">
          <mxGeometry width="100" relative="1" as="geometry">
            <mxPoint x="140" y="70" as="sourcePoint" />
            <mxPoint x="240" y="70" as="targetPoint" />
            <Array as="points">
              <mxPoint x="160" y="79" />
              <mxPoint x="160" y="79" />
            </Array>
          </mxGeometry>
        </mxCell>
        <mxCell id="-0Zx2nkR6988RbEy9D-E-43" value="" style="edgeStyle=orthogonalEdgeStyle;html=1;endArrow=block;elbow=vertical;startArrow=none;endFill=1;strokeColor=#545B64;rounded=0;" parent="-0Zx2nkR6988RbEy9D-E-8" target="-0Zx2nkR6988RbEy9D-E-40" edge="1">
          <mxGeometry width="100" relative="1" as="geometry">
            <mxPoint x="200" y="80" as="sourcePoint" />
            <mxPoint x="150" y="170" as="targetPoint" />
          </mxGeometry>
        </mxCell>
        <mxCell id="-0Zx2nkR6988RbEy9D-E-46" value="Game Exchanges" style="points=[[0,0],[0.25,0],[0.5,0],[0.75,0],[1,0],[1,0.25],[1,0.5],[1,0.75],[1,1],[0.75,1],[0.5,1],[0.25,1],[0,1],[0,0.75],[0,0.5],[0,0.25]];outlineConnect=0;gradientColor=none;html=1;whiteSpace=wrap;fontSize=12;fontStyle=0;container=1;pointerEvents=0;collapsible=0;recursiveResize=0;shape=mxgraph.aws4.group;grIcon=mxgraph.aws4.group_aws_cloud;strokeColor=#232F3E;fillColor=none;verticalAlign=top;align=left;spacingLeft=30;fontColor=#232F3E;dashed=0;" parent="1" vertex="1">
          <mxGeometry x="40" y="-800" width="920" height="850" as="geometry" />
        </mxCell>
        <mxCell id="-0Zx2nkR6988RbEy9D-E-36" value="Consumer&lt;div&gt;Message&lt;/div&gt;" style="sketch=0;points=[[0,0,0],[0.25,0,0],[0.5,0,0],[0.75,0,0],[1,0,0],[0,1,0],[0.25,1,0],[0.5,1,0],[0.75,1,0],[1,1,0],[0,0.25,0],[0,0.5,0],[0,0.75,0],[1,0.25,0],[1,0.5,0],[1,0.75,0]];outlineConnect=0;fontColor=#232F3E;fillColor=#8C4FFF;strokeColor=#ffffff;dashed=0;verticalLabelPosition=bottom;verticalAlign=top;align=center;html=1;fontSize=12;fontStyle=0;aspect=fixed;shape=mxgraph.aws4.resourceIcon;resIcon=mxgraph.aws4.managed_streaming_for_kafka;" parent="-0Zx2nkR6988RbEy9D-E-46" vertex="1">
          <mxGeometry x="641" y="480" width="78" height="78" as="geometry" />
        </mxCell>
        <mxCell id="0rHu57Mk_kjKdKuKWN55-1" value="&lt;div&gt;DB Message&lt;/div&gt;&lt;div&gt;&lt;br&gt;&lt;/div&gt;" style="sketch=0;outlineConnect=0;fontColor=#232F3E;gradientColor=none;strokeColor=#ffffff;fillColor=#232F3E;dashed=0;verticalLabelPosition=middle;verticalAlign=bottom;align=center;html=1;whiteSpace=wrap;fontSize=10;fontStyle=1;spacing=3;shape=mxgraph.aws4.productIcon;prIcon=mxgraph.aws4.aurora;" vertex="1" parent="-0Zx2nkR6988RbEy9D-E-46">
          <mxGeometry x="639" y="640" width="80" height="120" as="geometry" />
        </mxCell>
        <mxCell id="0rHu57Mk_kjKdKuKWN55-2" value="" style="edgeStyle=orthogonalEdgeStyle;html=1;endArrow=block;elbow=vertical;startArrow=none;endFill=1;strokeColor=#545B64;rounded=0;" edge="1" parent="-0Zx2nkR6988RbEy9D-E-46" source="-0Zx2nkR6988RbEy9D-E-36" target="0rHu57Mk_kjKdKuKWN55-1">
          <mxGeometry width="100" relative="1" as="geometry">
            <mxPoint x="800" y="580" as="sourcePoint" />
            <mxPoint x="800" y="700" as="targetPoint" />
            <Array as="points">
              <mxPoint x="680" y="620" />
              <mxPoint x="680" y="620" />
            </Array>
          </mxGeometry>
        </mxCell>
      </root>
    </mxGraphModel>
  </diagram>
  <diagram id="1OBORO6_6Hq0EgXnPa_1" name="API-Users">
    <mxGraphModel dx="1194" dy="1868" grid="1" gridSize="10" guides="1" tooltips="1" connect="1" arrows="1" fold="1" page="1" pageScale="1" pageWidth="827" pageHeight="1169" math="0" shadow="0">
      <root>
        <mxCell id="0" />
        <mxCell id="1" parent="0" />
        <mxCell id="PaUS3BZWuQawmBrClprV-1" value="Docker Compose" style="points=[[0,0],[0.25,0],[0.5,0],[0.75,0],[1,0],[1,0.25],[1,0.5],[1,0.75],[1,1],[0.75,1],[0.5,1],[0.25,1],[0,1],[0,0.75],[0,0.5],[0,0.25]];outlineConnect=0;gradientColor=none;html=1;whiteSpace=wrap;fontSize=12;fontStyle=0;container=1;pointerEvents=0;collapsible=0;recursiveResize=0;shape=mxgraph.aws4.group;grIcon=mxgraph.aws4.group_aws_cloud;strokeColor=#232F3E;fillColor=none;verticalAlign=top;align=left;spacingLeft=30;fontColor=#232F3E;dashed=0;" parent="1" vertex="1">
          <mxGeometry x="40" y="-1120" width="520" height="400" as="geometry" />
        </mxCell>
        <mxCell id="1b9nAIE6cU6gjxgx0c2c-2" value="API-Users" style="aspect=fixed;sketch=0;html=1;dashed=0;whitespace=wrap;verticalLabelPosition=bottom;verticalAlign=top;fillColor=#2875E2;strokeColor=#ffffff;points=[[0.005,0.63,0],[0.1,0.2,0],[0.9,0.2,0],[0.5,0,0],[0.995,0.63,0],[0.72,0.99,0],[0.5,1,0],[0.28,0.99,0]];shape=mxgraph.kubernetes.icon2;prIcon=pod" parent="PaUS3BZWuQawmBrClprV-1" vertex="1">
          <mxGeometry x="38.33" y="160" width="83.33" height="80" as="geometry" />
        </mxCell>
        <mxCell id="PaUS3BZWuQawmBrClprV-9" value="User_DB" style="image;aspect=fixed;html=1;points=[];align=center;fontSize=12;image=img/lib/azure2/databases/Azure_Database_PostgreSQL_Server.svg;" parent="PaUS3BZWuQawmBrClprV-1" vertex="1">
          <mxGeometry x="420" y="160" width="60" height="80" as="geometry" />
        </mxCell>
        <mxCell id="PaUS3BZWuQawmBrClprV-11" value="&lt;b&gt;Base path:&lt;/b&gt;&lt;div&gt;/api/v1&lt;/div&gt;" style="text;html=1;align=left;verticalAlign=middle;whiteSpace=wrap;rounded=0;" parent="PaUS3BZWuQawmBrClprV-1" vertex="1">
          <mxGeometry x="38.33" y="40" width="80" height="40" as="geometry" />
        </mxCell>
        <mxCell id="9N1guerM8kH31YGVvzgc-1" value="&lt;div style=&quot;text-align: justify;&quot;&gt;&lt;b style=&quot;background-color: transparent; color: light-dark(rgb(0, 0, 0), rgb(255, 255, 255));&quot;&gt;Resource:&lt;/b&gt;&lt;/div&gt;&lt;div style=&quot;text-align: justify;&quot;&gt;/users&lt;/div&gt;&lt;div style=&quot;text-align: justify;&quot;&gt;&lt;br&gt;&lt;/div&gt;&lt;div style=&quot;&quot;&gt;&lt;div style=&quot;text-align: justify;&quot;&gt;&lt;b style=&quot;background-color: transparent; color: light-dark(rgb(0, 0, 0), rgb(255, 255, 255));&quot;&gt;Resource:&lt;/b&gt;&lt;/div&gt;&lt;div style=&quot;text-align: justify;&quot;&gt;/users&lt;/div&gt;&lt;div style=&quot;text-align: justify;&quot;&gt;&lt;br&gt;&lt;/div&gt;&lt;div&gt;&lt;div style=&quot;text-align: justify;&quot;&gt;&lt;b style=&quot;background-color: transparent; color: light-dark(rgb(0, 0, 0), rgb(255, 255, 255));&quot;&gt;Resource:&lt;/b&gt;&lt;/div&gt;&lt;div style=&quot;text-align: justify;&quot;&gt;/users?id_user=uuid&lt;/div&gt;&lt;/div&gt;&lt;div style=&quot;text-align: justify;&quot;&gt;&lt;br&gt;&lt;/div&gt;&lt;div&gt;&lt;div style=&quot;text-align: justify;&quot;&gt;&lt;b style=&quot;background-color: transparent; color: light-dark(rgb(0, 0, 0), rgb(255, 255, 255));&quot;&gt;Resource:&lt;/b&gt;&lt;/div&gt;&lt;div style=&quot;text-align: justify;&quot;&gt;/users&lt;span style=&quot;background-color: transparent; color: light-dark(rgb(0, 0, 0), rgb(255, 255, 255));&quot;&gt;?id_user=uuid&lt;/span&gt;&lt;/div&gt;&lt;/div&gt;&lt;/div&gt;" style="rounded=1;whiteSpace=wrap;html=1;align=center;" vertex="1" parent="PaUS3BZWuQawmBrClprV-1">
          <mxGeometry x="180" y="100" width="160" height="200" as="geometry" />
        </mxCell>
        <mxCell id="KdEAXUlpfFUmASZZ164w-1" value="" style="endArrow=classic;html=1;rounded=0;entryX=0;entryY=0.5;entryDx=0;entryDy=0;" edge="1" parent="PaUS3BZWuQawmBrClprV-1" source="1b9nAIE6cU6gjxgx0c2c-2" target="9N1guerM8kH31YGVvzgc-1">
          <mxGeometry width="50" height="50" relative="1" as="geometry">
            <mxPoint x="100.00000000000003" y="370" as="sourcePoint" />
            <mxPoint x="150.00000000000003" y="320" as="targetPoint" />
          </mxGeometry>
        </mxCell>
        <mxCell id="KdEAXUlpfFUmASZZ164w-2" value="" style="endArrow=classic;startArrow=classic;html=1;rounded=0;exitX=1;exitY=0.5;exitDx=0;exitDy=0;entryX=0.05;entryY=0.5;entryDx=0;entryDy=0;entryPerimeter=0;" edge="1" parent="PaUS3BZWuQawmBrClprV-1" source="9N1guerM8kH31YGVvzgc-1" target="PaUS3BZWuQawmBrClprV-9">
          <mxGeometry width="50" height="50" relative="1" as="geometry">
            <mxPoint x="370" y="330" as="sourcePoint" />
            <mxPoint x="420" y="280" as="targetPoint" />
          </mxGeometry>
        </mxCell>
        <mxCell id="PaUS3BZWuQawmBrClprV-26" value="" style="shape=image;verticalLabelPosition=bottom;labelBackgroundColor=default;verticalAlign=top;aspect=fixed;imageAspect=0;image=data:image/png,iVBORw0KGgoAAAANSUhEUgAAAQgAAAClCAIAAAAvYfQsAAAAA3NCSVQICAjb4U/gAAAAGXRFWHRTb2Z0d2FyZQBnbm9tZS1zY3JlZW5zaG907wO/PgAAIABJREFUeJztnXdYE1n3x08aoRNCS+ihSy8qCqJiwy7WVbEjuNa1rOVdy/5c9913dRVdFXsX+7K6NsS1IKIiIII0qaGFQIAAoaXn98dgRA0BsYB6P4+Pz+TOLWeG+c69d+aeOTgLCwtAID4Nmpqa1dXVXW1FZ8B3tQEIRHcECQOBUACxqw1AfOXo6el1tQmdAQkD8QlpaGjoahM6CRpKIRAKQMJAIBTw9QsjICAgMjIyMjLywIEDH7fmIUOGvFunvr7+8ePHtbW1P25bnxMCgRAeHu7k5NTVhnQlbQojMjJyyJAh8p/nz58fMWLEZzEJoNXVfOnSpQMHDgQHB6upqXWuqujo6IkTJ+7fv//jWtgW06ZNu3//Po/H+zzNfSA7duwYN27cW4kSiSQyMnL27NldYlI3ofv2GFKpdNmyZStXrjx79mz//v1DQkK62qL2oVAofn5+d+/e7WpDPpRHjx6ZmJjY29t3tSFdRmeeSllZWc2bN8/KykokEhUUFOzatauurg4AyGTy7Nmz+/btSyQSs7Kyjhw5wuFwsCIeHh4//fTTxo0b58+fb2ZmxuVy169fz+VylTfEYrEAoKSkhE6njxkzBgDwePz333/v4uJCpVJra2vv3r176dIlmUxGpVIPHTq0fv367OxsrOyyZcvU1NS2bt2qpH4KhRISEuLh4SGVShMTEw8fPtzU1AQANBpt9uzZdnZ2mpqaZWVlFy9efPLkCVbExMRk8eLFVlZWhYWF6enpb1XYt29fDoeDmS2HRCKdP39+x44d/v7+zs7OfD5/7969z549A4DRo0ePGjWKQqGUlJScOnVKXqGTk1NISAiNRnvx4kVdXR2VSt2yZQsAnDhx4siRI3FxcVhbixYtmjlzJlbEzc0tKCjI3Ny8urr6+vXrUVFRWLqWllZoaKiLi4uKikppaenx48ezsrIAIDw8nEajAYClpeWsWbMAYOvWrQkJCVgpgUDw4sULPz8/+fmUo6mpSSaTuVyuTCZT/uf7oumMMJYvX/7y5cvdu3eTSCRXV1cCgYClL168WFdX97fffmtsbAwMDFy3bt3q1aslEgm2F4fDzZgx4+DBg8XFxT169BCLxR1vUSAQEIlEHA6Hx+MlEkl4eDiHw6HT6cuXL6+rq4uOjuZyuampqQMGDMD+kGQy2dvb+88//1Re7aJFiygUysaNG4lE4pIlS4KDg/fs2QMAWlpaBQUFkZGRPB7Pw8Nj5cqVK1asKC0tBYAVK1bU1tauXr3awsJi0aJFbw2ZHB0d8/PzFbYVFBQUERERFhZmaGhIJBIBICAgYOzYsQcPHiwtLcVuHMuXL+dwOKqqqmvWrImLi9u2bZu7u/ucOXPS0tKUH4i5ufm6detOnDiRkpJiYmKydOlSHo/36NEjAJg2bZqhoeHPP//c3NxsbW2Nx7eMERYvXgwAO3bsiI2N/eeff96tMzc318/P79300NBQX1/fWbNmNTY2Krfqi6YzQylDQ8MXL15gt8aoqCjsxm9sbOzj47Nz587c3NyysrLDhw+bmJhYWVnJS+FwuAsXLuTm5goEgpSUlA6OwnE4HIPBGDFiRGZmpkwmE4vFBw8eTE9P53A4qampjx49cnNzw3Lev3/f19cXu+Z69eolFAqxu3Jb6Ovre3l5HT9+PD8/Pzs7GxuwYTOZ3NzcS5cu5eXlcTic6OhoFouFtWJjY8NgMI4ePVpSUhIXFyfvRuQYGBjU1NQobA7L39zcXFRUhIlnypQpp0+ffvbsWUVFxa1bt/Ly8nx9fQHA29ubQCCcOHGirKzs5s2bubm57Z6liRMnPnjwIDo6uqKiIjk5+datW/7+/tguQ0NDJpNZVFTE4XCePHmSkZHRbm0YXC7X0NCwg5m/PjrTY9y8eXPp0qUDBgzIycl58uQJdiu1tLTE4XCHDx9undPIyKj13zUnJ6fjreDx+EuXLuFwOBwOl5GRIX/+M2LEiOHDhxsZGZFIJABITU3F0p8+fRoaGurp6ZmQkDBgwICHDx/KOyuFGBkZAUBxcTH2s7CwEI/HGxkZFRYWksnkoKAgb29vXV1drD9UVVUFABqNJhKJ2Gy2vMhbj25UVFSEQqHC5t46dm1tbQqFsnz58uXLl8sTsTEYnU4vLy8XiURYYnFxcbsXqIWFhZmZ2dChQ+UpZWVl2MadO3eWL19uaWmZlZWVnJzcbucjRygUqqiovJseFhYWFhbWwUq+XNoUxrtXlTzl1KlT9+/fd3Nz8/b2njRp0oYNG7CrXygUTp8+va2hp1QqFQgEHbdMKpWuWrVKKpVWV1c3Nzdjid7e3jNnzgwLC0tLSxMIBPPmzTM3N8d2iUSiR48eDRgw4OXLl25ubufOnVNePw6HAwCF1gYFBbm5uf3+++/FxcUSiWTHjh1YZsyqd0+IHB6Pp6mpqbA5bPbyFuvWretIhyCntbVykzAiIiIuX778bpH4+PiFCxe6u7u7u7tv2rTp1KlT165d60hbWlpaX8qztU9Bm0OphoYGMpmMbROJRCKR2Pr1fklJyfXr1zdu3MhisTw9PQGgqKhIRUXF2tr6IxpXXFxcWloqVwUA2NvbZ2VlJSUlYRozMzNrnf/evXteXl4BAQEsFqugoKD1Lj6f/9b9r7y8HADkq+4tLS1lMhn2tMDBwSEmJobJZEokEhUVFaxvAQA2m00mk3V0dLCf2OS1NUwm09TUtCOHxuPxamtrHR0d393FZrNpNBrWHwKAXPkA0NTUhPVdAGBgYCBPLy4uVlgVRk1Nzf3793fu3Hnr1q1evXq13iUSieRTxLcwMzN76xxiaGtrGxoaviXLr482hZGSkjJ27FhPT09ra+uQkBCxWIw9zVBRUQkODnZwcKBSqZ6enjQajclkAgCLxXr8+PEPP/zg4eFhZGTk6em5Zs2aTr98aIuysjJzc3Ps9Vm/fv3eGsnk5uZWVFRMnjw5JibmrYL5+fna2to+Pj4UCgWzqqqqKjk5ee7cudbW1nZ2dtOnT4+Li8Pu6ywWy9HRkUAgEAiEWbNmyW8Q+fn5BQUFEyZMwOFwdDr93blpcnKyjY2NwhHIu1y6dGny5MmDBw+m0WgODg7z5s3DZjJPnz6VSCRz5swxNjYeOXKkra2tvEheXp6Pjw+BQKBQKIMGDZKnR0ZGurm5zZgxw9TUlMFgjBs3Tv52YurUqV5eXgYGBlZWVs7OzoWFha1tKC8vd3d3p1AoJBLprWvdyckpOTn5XbPnz5+/f/9+dXX1jhzjl0ubQ6nDhw/PmDFj0aJF6urqTCZz8+bN2LRSKpVSKJSVK1dqa2tzudzz58/Ln/GFh4fPmDFjyZIlGhoaVVVVKSkp8oHyx+LevXsMBiMsLEwikWRnZ9+5c8fY2Lh1hpiYmKCgoIcPH75VkM1mnzhxYv78+To6Ojdu3Dh27BgA7Nu3LzQ0dMuWLVKpNDk5+ciRI1jm06dPL1y48NChQ0Kh8MGDB60fNO3cuXPJkiXHjh2rqKiIjY319vZu3Up6ejqXy+3duzf2RFU5t27dIhAI48ePX7BgQV1dXVZWVkVFBQDw+fxt27aFhIQMHjz4xYsXMTEx8gWqZ8+eXbFixbFjx1gsVlxc3NixY7H0oqKi//73v1OnTh09erRAICgoKLhy5Qq2SyqVzpkzx8DAoLGxMTEx8cyZM61tuHjx4pIlS/bv36+iotL6ca2FhQWNRnv3NH474L4yD77g4GBTU9PNmzd3lQH9+/cfOXLkunXrPlaFs2fPNjc3x95jfDaWLFlSW1sbERHxORvtVnw9y87V1NTMzc0HDRoUHh7ehWY8fPiQSqVqa2t/uTNXPB7PZrNv3rzZ1YZ0JYrnGBRii2Cm6+u/cHG5ZGv7KVI+7pGsXbt28+bN9+/ff/f1wudEJpNduXLly1UFAEil0sjIyNbPPL5BFA+lXri49M/KGkmhTKNSFxcWjqRQFhkZffSUMe/zWgOB+JwoHkrtq6iI7dEDAEZnZxcLhQc4HAD46Cmf4/gQiE7xtU2+EYiPQvdddo5AdCFIGAiEApAwEAgFIGEgEApAwkAgFICEgUAoAAkDgVAAEgYCoQAkDARCAUgYCIQCkDAQCAUgYSAQCkDCQCAUgISBQCgACQOBUAASBgKhACQMBEIBSBgIhAKQMBAIBSBhIBAKQMJAIBTQzpcIiQT4Y1XV4N7NYgnO87sOfccbgfgKaEcYfVz54/wbxy2jZ+R16AveCMTXQTvCMNKT1Nbj03KRKhDfFu3MMXA4mVTylYcIQSDepR1hkFVkIjESBuKbQ5kwqNrS4b5NWUzSZ7MGgegmtCmMpdPqki+WOFqJ/ntY93MahEB0B5R91JmqI9nznyq+ABf887cb7xnxbaJsKMWtI0TFqTtafeQ4eghE96edyTdfgCMRFcftRiC+YtoRhkSCwxOQMBDfHO0Ig1VJoGhJXWyFePTMFvEt0U5EJRwOtq+qGtqnWSwFzylmn80sBKJrQaHGEAgFoGXnCIQCkDAQCAUoFgaDwfjMdiAQ3QrUYyAQCkDCQCAUgISBQCig64Wx5uoLC7c+PfqPWHY27otufYyn/a9TBgPAn7NHDnKy+hjWfTGtf310vTAQiG5IOz7fXUWvwFm9Amen3/3Ha0wQnkh6Gnks7sxeAMDhCaNW/pfh4aOlT2usqXp+88LD03tkMqmFW5+Jm/aWvUyl27k8jNjrOWqquo7u+fXB5XmZAEA1sRi2aJOlex9BY8PLuFt3Dv4uEjS3awOZTNbU1OTxeCJR59cXm+vr/Dlr5P47ieO8HHQ1VJ8x2Xui44ViCQB4WNIneTtZ6OsQCYScsqpjD5ILK2sB4Ncpgxv4wh4mBrnl1bnl1aM97B/nFO+/kwgAqiTi7P7uPnbmRDw+i1V56F4Sh9fYadsQSuj6HqOGXSwW8oXNTbXlpa3TqSYWMpl011SfyC1L/OeuNLCwBQA8Hi+TSK79sXbf7EHXtq/tFTjbc/Q0LL8GRS/u7L7cp/eGLdpw7Y81xWmJXmNnAgBRhRy0LaKugnX4+zHnN86n27kOXbi+3dYBYODAgYcOHfLw8OjggTQKRNUNzQBQxWtqEr6hJS+G8aqIW0tP3HAyNfB3bHkUTlFXjclk/nThzsrTUeV1DRsCBxBerUiTSGX/99d9dwuagZbGL3/HDHW1oWqqAcDiYd5mejq/Xn6w+mx0TVPzT4H95UWUtI7oBF3fYxxeMBrbyE980DpdJBA8OrdfJpUUPn9cV8mm2zlXFuVKxKIbO1su69ry0syYa1Y9/Z5dOwMAzbya0oxnunQzc5fe7Nz0kvQkO5+hAOA6bKJELIra8zPIZABw9/DW6f87fvPPjdjPtlrvBPcyCu5lFADAlssxb+2KTMjki8R8kTilqNyWphf9Ig8A7mcy5Rki4lKHulib6elgnUZGKYdZWVPJa0otLs8tr27gCwy1NdRIJF9785BDVzABHLqbdHbJZGsjag67WnnriE7Q9cJoiwYuRyqRYNvCpgZVLQq23StwVs9xMyk0M6IKGQAKnrVMmsVCAfa/WMDHNkhkVQAwsnLQM2VsvFPQunJNXf0GbqVyA6Kjo6Ojoz/KsVTVtwx4+EIxdu8HABpFc7afew8TA211Vey2r0pq+XOIJBIAEEok2KBLKJaqEAkWBhQcwJHQwNY1G2prYsJAfFy6rzBkUmnrnzgcDgAc+gUMDl3395alzOTHIkFzwOJNBpZ27VaVn/jg7Lo5n8jOjiCVvfZpwb1awL92jB+7tn712dtV9U3qKqSIxRNxuDYX9+MABwBCsWTq7ovIP+Yz0PVzjPfC1Mmr+EVizpO72Oy5I6rgMLPpti4kstr7tqWmpmZoaEgmkztjaHuokoiWBpQrSS8reY0ymcxMT6fdIkVVtSpEgjWN2onmdHR0dHXRRy3egy9MGNUl+YZW9uoUKgA4+Y+xcOvTbpHU25EiQfOkn8ONHdz0zKxch44f/ePvHWmrf//++/fvd3Nz+1CjFcEXiavrm1zNjQBAU1VlRj/XdouwuLzHOcUrRvh4WNKNdDQ9GfS1Y/3UVTr0caNNmzZt3779Q43+lui+QymFpNz6i2bjtOBQlFQqKcl49vzmeaqJpfIiYgE/YnXQkAXrZ/wRgcfjq0oKUm9d+izGtsP2G49CB/cc4WbbJBRdeprhZNr+p1j2RD+d6ee2LKCPhqpKFa/xeRFb+Goaphx1dfWqqqoPNvkbQrGjEoPBYDKZ76YjvkT09fUPHjy4devWhISErrbli+ELG0ohOoGzszOTyUxMTOxqQ74kUI+BQCgA9RgIhAKQMBAIBSBhIBAKQMJAIBSAhIFAKOAbEsa8vZd9py2U/9Q3t954l4n9o9C+hoC0JCLh8sppdnR9eYoJVfvyymnYP0NtjS607Yuj64Xx2Vxbc5/e4zCz5T+rivO3DGaEzxqoMLP3xHmzws4DwPdHo90CJn1IuwwD3csrpwFA6KCey4a3v4al00ilsvuZTF4zX57C4vLGh51bdOy6wvzGulo/jvY9uXDCyYUTVo3y1VFXle8KHui5IXDAR7FKg6xyeeU0G6POLPH6cP4zzm9qXxdtNfL73hq+sCUhH8LD03u62oRPi0Qq3X0rvoOZLQ0oP0/wv/g0ff+/iQAwta/z6tG+Gy7e/ZQGfkl0X2FY9fQbFLzawNKOV1me8PexxCunAGBW2Hl+Q52ZU8+y7FTWy9TeE+ZkPYi6sfMnALDuNaBf0GJDhj2BRGJlPr+9b0tFwUusqllh5y3cvAHg3pFtj87t/3DbdHV1pVJpXV3dB9YzxtN+lIedroZaSXXdydiUtJIKUOra2pY3LABgnRIArD33bw67/WVRSwP6RMSl3s1ocVM5/uD5geAxdF2tCb16DHG2bl3n9eTsozHJSgwGACtD3fn+XgxDXbFEms/h7rz5pK6Jr6elfiRkHJbhj6AAbGNGeGSjQKjcNg9L+tS+LgxD3Ua+MLGAte/flpUs/o6MKX2c9bXUK+oaIuJS4/NKlZ+uD6HrhaHQudSQYffdL4du7/+1IOmhnpnVuLU7mmq5GTHXAUAqkZxZOzM4/J8GbuXZdXOC916OPfVnfXWFpq7+i9uRrKznEpGoz5TQqb8d3xPUD3N1OrVyKgDM23u541bxG3j1VeUAUMcpEzQ1vLV3+/bttbW1q1at6khVIomkvLYBAOqa+XzR6xMe4Gozzsth/93E0mqepyV9/fgBy07cwHy4MdfWP4KG1Tbyf/k7Zuv0YRfi07kNzZg3bDa7SiyRBvbssSFwwIKjVyVSGQCMDztHIhIuLpvSEZNsaXqaqioxWUwVImF2f3d3C3peeTWH10jT0Qy/nRB+OyF4oCedovXrlTe8GpUYvHKkT1ZZ5a6oJyQiwc2chjncVtc3jQ87p0FWiVg8cfWZ6LwKbkdsszLU3TB+wJWkrL23n6qSiMNcW1RqQ6MuDfA+GpP8vJDdz97ix9H9lp68wa6pV3K6AKCmkV/PF0hlsvLaBsmbHj7K6XphKHQu7Re05MWdK5jPag27OOnqabfhkzBhFKXGl+dl1nFYzORHZS9Tm+trdWim9dUVqbcj5cXvH93mOWqqgYWtvNN4X1Kj/0qN/gsAzv1nbqcPDaOUy1t47BoAXHiS3jp9al+X4w+SnxWUAUBUaq6vvXk/e4u/EzOhDddWbkOzEm/Y98LBWD+jlCORymb6uZpQtX/7J9aWRl0W0OcKXtmcU4nBhtoaF+LTMZGwuLz3tac1k7ydUovKTz9MxX7mlrf4Jwa42qSXcG48zwGAi/Hpvnbmw1xsTsY+h7ZPFwAceNV1YH+CjtP1wlCIoZWDgYWt56ip8pTqkpZOX+7CKnrThVXX2GJI6Dozl14aOlTMTY6k9qmewwQHB39gDdpqZIqG6oqRPitG+sgTS19dUgpdW0GpN+x7QdFQreQ1AoC3tenOqMcsLo/F5Q12su60wTdScpcF9BnYg5HNrnqcU1z6Adqw0KfIB3itoVO0mJwa+c/Cqlo6RRPbbut0fQjdVBgAcPfw1sfnD3Q8/+TNB7ilzKOLxvE4bLKG5up/UpV4inYT1p673UGPbcy19b28YZUhA7FECgA4HGAXE7y6vDpn8MnY5/czCtwsaN42ppO9ndZfvPMpPNE77tOLna4Poesf1yqEw8y2cO3d8fwkVXUjK4cnFw/XVbBkMmlHXF4xhM1NAEBUUW03Z2v09fWp1A96/shrFtQ28R1N3iNOdCe8YTGaRSIAaH0TrWpoMqJoAkBSQdloT3sCHm9tRHVu5SklkkgJhDeujXYNLq6uu5acveHiXVYNz9PSuFVVEgAgKBqkqamQDLU1yG/e3Yuqap0V+WyV1zZY6lPkPy31KeV1b8/93gscDqenp6epqalwbzcVxqMz4VY9+w+av8bAwpZm49h3SkjfKSFK8ov4TbzKcoanLwCoaVEGBa/uYEMNNVW8SrbHyO+09IzUtDvqFb1169b169e3n08pF5+kT+njNMTZmkbRdDA2CB7o6WZBU5K/E96wGHWN/Kr6pqEu1lRNNS1VMgCkl3C8LI0JeHxEXCrIIHzuqGk+LplllfLpKbu23spQ14SqTSIS5J+uastgFSJhvr+Xg7GBnqaaF8PYSEeTWfl6zCMUS7gNzd42puoqJNKbGujvYHFw/lh3S3rrxL+eZrhZ0Gb0czOlalsZ6oYO6oml307LczY3GuVhR9fVmtLH2UxP+9+0/A6eAYWoq6sfOnQoNDRU4d5uOpSqKHh57qe5A2ev8J44TyRoLs/NaHdYFbllyYhlv/QcN0PQWB8XEW7+qsOx7jVg+u8nsG2THu6D5q+RiIS/DbdvKSaT/fP7qlErf+szKbii4OWh0JGf6pDeISo1F4/HTejV4/shPeuaBJmsyor2boFtecPO9HOb0MsR2946bSgAPC9k//J3DJYiA9h9K37hkF5jvByKKmtXnI4qqa5jVtZM6eN07nHa3ttP323oQVahuwV927Rh6mSS/HFtWwZLZTJdDdUfR/loq6tyG5rOP057mvfG1+sO3k2c099jrJcDAY9r93FtAafm18sPpvZ1Gevl0CgQJhWwsPQcdnX47aeTvZ3mDvCoqGvccePxB87y1dXVAaAtj1/kqPSNQtVU+3Xy4JTi8hvJOeV1DVQN1dpmgUjcIQ/yr4OBAwd+//33CxcurKmpeXdvN+0xEJ8abkPz6rO3x/fq8Z9xfvraGg184darD+XPRr8FnJ2db9++rVAVgHoMBEIh3XTyjUB0LUgYCIQCkDAQCAUgYSAQCkDCQCAUgITxSVh+4ckH+v19UxwJDexuATW7XhhdG7X1M0Czcdx4lwkAI5ZtHrv2Qz853mlfzS+IM4snOZsZ+tiZHZo/tqts6HphIBDdkG765rvvlBDXYZOKUp44DRorlYjjzuzFXFvbitoKAIDD+c9b5TZsoroOtY7Djv/ryLOrEVhtdFvngCU/02wcJSIROzf98n9/IGtoLj4Vs2tKn/rqCnmjBpZ23x+59UegO7+B5zZsot/MpdqGxjVlxfeP/vEy7nXMsXl7L+cnxapqaLsOHU8gkeIvHY05EQYAfjOX9h4/F08gPLl4uONHqqmpSSaTuVyuTNb5SEmBPR38Ha3SSir8HCykUtmlpxk3U3KwXWO9HAY5MWgULZFYkljAOhaT3MBvWark52AxpY+zkY5mA1+QVFAm9yBV6Kd6JGTcyYcpD18WtW735MIJ4befJuSzbGl6WJEGvuBWat6l+HT5wcz0c7Mx0nuUUzzJ24mirprFqvz5r3sAMKWP8ygPOwIedyWpk85kn5SuF0ZbcVMNGXZZD26ETexp7OA6K+w8OzejNOOZPGprbXkJ1ZQx/qc/G2uqMEc/pwGjeo6deXHTAi6rUM+UoW34es1m4E+7SjKSrvxvBVGFzPD0xROIXFZRY2013d6l/vFrYRjbuVQW5/EbeMb2rmPWbLu9b0t+wgMn/zETN4XvnzuEyyqU5/QaE5R05VT4bH8CiWzIsAcAh34BfkFLrv6xpiI/a3DIWk2qgTyzWCisKSsCgMZaLon/dhjl0NBQX1/fWbNmNTZ2KDBxW76a5vo6j3KK5xy4bEuj/jp5cAGH+7KsCgA0yKTzj9OKqurUyaSQQV4LBvfaceMRAOhpqv0wvO/he0lJBSwdddXWC3sV+qlms6tsjPRaC8NAW0NbjZzNriYTCesD+ycxy3ZHx1voU5YGeFfXN7V2NrLQ12kW0jdcuNMoELlZGAFAHxvTSd5Oe6PjCytrZ/m562q8sey/vK5BKJY0C8VdGKy564XRdtTW5scXDspkUlZWSl5CjOfoaaUZz5REbdWhmTZwK4tfJMhkUsxdWw6FZvrw9G5MeFXFLWuVWZnPje3dch7f6T1hrrC5MSXqorGDa2lmMgB4jplelBKf8PcJAIg9vbvHgFGeo6ffOfibvEJuKTP29G5sG2vLY+R3WbFR6Xf/AYBbe35eeuahPHNVcd7emQMBIPbUnx9+utry1RSIJZeTsmQyWQ67+lkhe5irDSaMc4/T5HmuPnu5cEjLomM9LXUCHpeQz6ppbK5uaC5o5Ryn0E81m13Vx8YMANwsaB6W9BMPntvSqOW1DXVN/AE9LMkk4uG7SQKxhMXlOZsaDne3bS0MMom4Ozq+SSACgMc5JQAwxMX6SW5J7MsiADh0L+ngm3OJVRG3sI3nhewPP2Odo+uF0Ra8ynLMixUAuKxCMycvbLutqK1ZsVF9JgUvPnWPmfy4OC0hI+a6VCzGdiVeOTV27XaXoeNZmc8zH9ysKs4DgJKMZ5bufbAKBU0NKVEX6Xauz2+cBwCqsWVFfqbcEk5BFtXkjRVlpZnP37JW18QS8xEHgNryUmFTR291YWFhYWFhHcyshOr6JvnaWHZNvYNJy2fX3Mxp3/k4W+hR1MkkAJB3MvkVNdnsqt2zR6YUsbPZ1bFZhbzmlrOt0E/1ZVnVNB9XPA5/nfpKAAAM/UlEQVTn78jwtjH962mGtRE1m10FAHSKVnltg+BV68zKmv493jxdXB6mCjl0ita9V8rh8Bqbu19g8u47+cYTXju1EAgtAsaitt499Pv2QI8tgxkJfx+X+3bWlBXtmTHg3wO/iYWC4Us3T/759Wdy7hz87fCC0QVJDxmevqGHb5r0cAeA0sxkup2rnplVLbtEKhZr6RkZWffAegwcDqd8xC9ofMcTQCaTil//dSWSz/2XlrsTQSt3OT1NtZ8C+ycz2QuOXh0fdu73qw/lp0silf50/s7vVx+Wcnkj3W3DZgyXh/M7Gft8VcStlCK2q7nRzpkj7Oh6AFDAqSHgcKZ62rY0vTtp+a7mRrZGetllVQCAw4FMqdvpW6oAABnIWo8DsQ+ddCu6rzB0DIxVtVq8Nw2tHGrKiqG9qK0iflP2o9vR4ZuvbV9r23cQDv9aWpWFOU8jj51c8V11SYFN74EAUJb9QlVDy2Pk1LzEBwVJD70nzpOIhJXFeQDAZRUaWTnIyxpa9cAmCUrgsgp16ebYtpoWRU2zo36n2trahoaGH+6erq+lrqmqgm1bGOhgH+yxNNTFAUQ+zcAm3G95w0plsoxSzoUn6WvP/qunpW5l9NqB8V0/VbFEmsfh+jtalXJ5CfksN3OalZEu1mOwa+vpFC25hyrDQBdrXQnlNQ1GOi0+pZqqKhqvLG8XEomkp6f3iULptqb7CgNHwI9Yulnf3Npz1FRLj77JN86B0qitbsMmugVM0jNlUE0sHAeO4hRky6QSACCSVYcv+T8z555a+jQbb39dull5XiYAiAX8ivwsr9HTCxJj85NivcYElWY+B5kMAJJvnLN079t7whyqiWX/mcsMLG2e37yg3NrkG+ccB46imljicHi/GUugwxf6/Pnz9+/fj3mTfQh4HC5kUE8TqvZQF2tXMyPM7ZNdU08k4O2NDQDA0oAy0t1Wnt+Orjeht6OlAUVPS32ws5VILGFx60Gpn2p2WXWAq3VKITurrLK3tSkBjy+qqgWA+NxSoVgSMrinCVXbx87c34kR/SJPubW30/J87c3pulo4HG6yt3PH7woeHh6HDh0aOHDge56e96b7zjE4BdmNtdXB+64Kmxujw38pSU8CpVFbBc2N/aYtGr50s0wqKcl4FvnLYixdJpFoUA0mbNijQaHyqspjTuzKfnQb21WS8UyDalBZlIvDE6RSCSurZebAykq5tmNdv6DFQxesrykv+fvXZfIpe1vkPL4T/9exubsjBc0Nmfevt34K/Hkoqqqra+JvDwrgC8VHY5KzWJUAUFZTv/9O4sqRffE4HKe+8eqzlzP93LH8zUKxq7lRYE8HMpFYUl33v6sPaxqbQamfanZZZWBPh+dFbLFEml/BVVUhYkMgvkj825XYYH/PXTNHNAiE15Kz76Qr+P5NaxLyWVefZf8+dWizUBSXXYx9A6ojYHeQysrKTp2k96CbOir1nRLiMmT85/TA/qIJ7OkwoAdjxemorjbkk7N48WIGg7F69eoPee3TEbrvUAqBeBdnZ+eLFy9+alVAdx5KIRDvsnDhwvYzfQy66VAKgeha0FAKgVAAEgYCoQAkDARCAUgYCIQCvn5hGDLsNt5ltl4HjlCCub7O5ZXTKBrv9/n3r4+uFwZybX0vkGvr56HrhYFAdEO67ws+hVFbXYeOH7Z408H5IzD3oDGrt+mbWZ1Y/h22XpBqYjlkwU+WHn1BJitOS7y5az2vssVjycy554A5K3QMTXKf3ru6bbVYwAeAPpPmuw2fpGtsLhYKcp/cu71vS3N9LQD0CpzVK3B2+t1/vMYE4Ymkp5HH4s7sxeqhmliOW7udbudSkZ9VkBznMjhw9/R+Sgxul4/i2goA7ha0Gf3czPV0qhqarifnYK6tJrra22cEbL/+6BmzDAD8HRnzBnouP3WzuqEZAFRJxFl+7n1tzdTJpOKq2hOxKRmlHKw2RxODqX1dDLQ1kgrK9kTHY1GX2ooZa66v8+eskfvvJI7zctDVUH3GZMuLkImERcO8+9iY1jbx/0l6GTLIa8GRq5gLlEKDuw9dL4z3itr64t/LVr36j1u7PWLNTHufoT38hh8KHYmpgqSqPnPHWQ4zO+LHIBG/2c5niKaekVwYvSfMvfbHWlVN7Ymb9roNm4g5/alqaj84sZPDfEnW0B6+9P9GLN/y95alWH6qiYVMJt011cfCzXvmHxHZcdGVRbkAMGHDbn4D78jCMXpm1mNWb+PX1yk3GD6La6u5vs5/xvU/FpOcUlRuQtX6YXhfXjM/LruYVcM7FpO8JMD7h5M3ySTifH+vPbefVr9asffDiL4Wejq7o+PLaxtsaVQaRVMujFEe9ntvJ2iQST+O9vV3bFktqyRmLAB4MYxXRdzSIJP+CAqQF5nm6+poYvDL3zFCsWTZ8NdLodsyGNuLXFsB3j9qa9SujaGHbw6a96PHqGlRf26Sy8l9+CQSWfWvzYtF/CYAwK5jObGn/sQWz+Y9vW9s74rVjH3EACP+0pHRK/8n/ykSCB6d2y+TSgqfP66rZNPtnCuLcul2LnQ7l32zB1WXMjnMHJveA7EYTsoN/gyurZO9nR5kFWLXYkVdQ1RK7iAnK+w6+zct38OSvniYtwaZ9CinOD63BCtirq/Tx8ZUHlOPXVvfupULT9KwYOHJzDJbmh5Ws/KYsZEJmXyRmC8SpxSVY0VwAMNcrOUdUWRCxg/D+7ZrMCDXViUoidoqaGq4/NuKubv/yoy5kXb3yusiDIey7DRMFe9SXdKybryZV6Ol3+L4z/D0HTB7uSHDnqyhBQByV1gAaOBypK+CNQqbGlS1KABANbEUCwXVpS3XB4eZLReGEoOV81FcWy30KWZ6OkNdXoddZdW89jHc92/CnjmjBCLxllcxlrAiIrEkt40QkqyaFp3UNwupmmrYtvKYsVX1LXd3vlCMFdHRUFVTIcmVU1RZ10GDuwPdVBigNGqrmZOnRCQ0su5BIqthrnztIn0jJCkOALT0aVN/PfLwTPiFDSHN9bX2vsMm/98+eQ7Zm8HSMQ875X527xtm9uNy+mEqFnL7XYx1tdVVSGoqJCMdzeLq11enkjlNa79T+UErjxkrbTVHwpJfhU5V3I4Sg7sD3fSplJKorXQ7l4FzVp5ZO4tfXxew5OdWRV7S7VxIqh11haPZOAIOF3c2HJtwdyTQa3Upk6hC1jNlYD8NGK+LvG+YWTkfxbW1qKrO0VTxixp1FdLKkX0vxqdHpeSuHOUjDw9ZVFWrQiTY0vU62EQnYsbWNjY3CUWWBi0es+b6r4soMbib0E2F0VbUVhU19QkbdsdHHi1KfXrl9xVO/mN69B+BFUm59ZdYKJi4cQ/d3kXf3Np74jy6vYuSJrilTAKJhH18xMjKode4me1axc5JY+ekDV+6Wd/c2t53aI9+w9s1uF0+imtrZEKGuwV9Zj83Mz0dhoFuYE+HwJ4tPuvfD+lV3dD8d2LWmUepMhnM6d/iwVdcVRefV7pseB93CxqNouljZ+bvyFDSRCdixsoA/k3Ln+Tt5GBsYGWoG9izR0cM7iZ006FUW1Fbhy/dLGisf3ByFwBwWUX/7t8yeuX/WFkpvEq2iN90etW0od+vn7n9LACUpCVmxd5U0kR1KfPmzvXjf9qFwxPqKkrj/zoyOGRtu4b9/euycet2hB6OqsjPSroW0aP/SOUGfx4KK2t/vRwzzcdljKe9QCzJ53AvJ2YBgL8jw8vKeMWpKJlMJpbIdkU9+WP6sOeF5Vgo1N234mf6uf0woq+GCqmouu5k7NvfBHqLtmLGKuHcoxe6GmqbJ/nXNfGvJL0MGeQlkkiVGNx9QP4YnWfAnBWmjp5n1rTf1SAAwMXMaOOEgd/9eaHbfSpHEd20x+i22Hj7C5sbK/IyqWYMjxFT7h/90CUeXzfm+jqmVO30Eg6ZSJjk7fTwZeEXoQpAwnhfNHX1/Zb9oqVvxKtkJ1w++eLfy11tUbeGiMdP6eP8w3CtJqHoWUHZsQfJXW1RR0FDKQRCAd30qRQC0bUo7jEQiG8c1GMgEApAwkAgFNCmMJZMq8u5Vhy1j+1qJ/ycBiEQ3YE2hbH3nI7XVFMOl/D95Lq28iAQXyvKhlL1jfikDLKRnkRJHgTiq6SdOYZYCgQ0DUF8e7Rz1YtEOLLKl/IWH4H4aLQjjJdMFRtzkZejAPUbiG+Kdq73uOeq12PVI8PKk86XfB6DEIjuQDuLCP08+aP7N01cSUt5+cnDASIQ3Yd2hGFvKcwrJj3LRKpAfFu0M5QikWQC4YdG2kUgvjjaEQYBDyL0GgPx7aFMGJrq0p6OgjIOcmZCfHO0KYyl0+qeXyw10pMcuKT9OQ1CILoDyB8DgVAAem+HQCgACQOBUAASBgKhACQMBEIBSBgIhAKQMBAIBSBhIBAKQMJAIBSAhIFAKAAJA4FQABIGAqGA/wezx5xMYslRtwAAAABJRU5ErkJggg==;" parent="1" vertex="1">
          <mxGeometry x="600" y="-1120" width="264" height="165" as="geometry" />
        </mxCell>
        <mxCell id="PaUS3BZWuQawmBrClprV-27" value="" style="shape=image;verticalLabelPosition=bottom;labelBackgroundColor=default;verticalAlign=top;aspect=fixed;imageAspect=0;image=data:image/png,iVBORw0KGgoAAAANSUhEUgAAAVQAAAFHCAIAAABxsiPXAAAAA3NCSVQICAjb4U/gAAAAGXRFWHRTb2Z0d2FyZQBnbm9tZS1zY3JlZW5zaG907wO/PgAAIABJREFUeJzt3XdAFNfWAPAzW+ksfalLRymCKGJBijXYiRpNVIyixq4xGo0l5RkT/fIszyQa0WiMxq4YOwhijShYQKr0skvvyLL9+2PMSgwsqMCic35/vDfcvXfmzJqzd2Z25izB4/EAIUQ9NHUHgBBSD0x+hCgKkx8hisLkR4iiMPkRoihMfoQoCpMfIYrC5EeIojD5EaIoTH6EKIoSyT9y5MjTp0+fPn36l19+6dg1Dxs27N/rNDY2PnDggJ6eXsduq5sICgr6z3/+o+4oUAdQlfynT58eNmyY8s9jx44FBwd3fkjPKTP25MmTv/zyS1hYmKam5uutKjIycuLEibt37+7YCFvz4YcfxsbG1tXVdc3mutiNGzeMjY379u2r7kDQm2KoOwBV5HL58uXLaTSanZ1dWFiYtrb2zp071R1UGzgczuDBgz/99FN1B9JZ5HJ5bGzsqFGjEhIS1B0LeiOvmfz29vazZ8+2t7eXSCQ5OTk7duyora0FADabPXPmzAEDBjAYjLS0tH379pWVlZFDevfuvXbt2g0bNsyZM8fa2rqqqmrdunVVVVWqN8Tn8wGgsLDQ3Nx87NixAECj0ebPn+/h4WFoaFhTUxMTE3Py5EmFQmFoaBgeHr5u3bqMjAxy7NKlSzU1Nbds2aJi/RwOZ+7cub1795bL5fHx8Xv37m1sbAQALpc7c+ZMZ2dnHR0dgUBw4sSJu3fvkkMsLS0XLVpkb2+fl5eXnJz80goHDBhQVlZGhq3EZDKPHTu2devWoKAgd3f3pqamn3766cGDBwAwZsyY0aNHczicwsLC33//XbnC1t7hI0eOXLhwwdfX19DQMDs7+8cff6ysrCSHBAYGTp482djYuLS09I8//rh37x7Z/ttvv126dMnLy8vGxqaoqGj79u2lpaXkS35+fpMnTzYzM2toaEhISFCewnC53NmzZ7u7uzc2NsbFxR06dEgkEil3Jz4+fsqUKXp6ei8d3dDpdA6HIxQKyfcQdXOvec6/fPlygUCwfPnytWvX3r9/n06nk+2LFi2ytrb+7rvvVq9eXVNTs2bNGuVLAEAQxPTp0/fs2RMaGrpnzx6pVNr+LYpEIgaDQRAEjUaTyWQ///zzkiVLdu3aFRwcPGLECACoqqpKTEwMCAgg+7PZbF9f39jYWNWrXbhwoYmJyYYNGzZu3Ojo6BgWFka26+rq5uTkfP/990uWLLly5cqKFSusrKzIlz799NPGxsZVq1ZduHBh1KhRL63Q1dU1Ozu7xW1Nmzbt2rVrs2fP/vrrr2tqagBg5MiR48aN27dv3/Lly69du7Z27VpTU1Oyc2vvMAAEBARs3Lhx1qxZ9fX1ixYtIhsdHR0XL1586dKlTz/99NatW5999pm5uXnzITt27Jg1a1ZjY+O0adPIRkNDw6VLl168eHHhwoXfffddSUkJ2c5kMr/66qvy8vKVK1d+//33jo6OM2fObL4jBQUFYrHY1dX1pR3kcrnh4eFTp05V/Z6jbuI1k9/U1DQpKYmc4i5fvkxO4BYWFgMHDty+fXtmZqZAINi7d6+lpaW9vb1yFEEQx48fz8zMFIlEjx8/budZMUEQdnZ2wcHBqampCoVCKpXu2bMnOTm5rKwsMTHxzp07np6eZM/Y2NhBgwYxGAwA8PHxEYvF5OzaGmNj4z59+hw4cCA7OzsjI+PIkSP+/v7klYXMzMyTJ09mZWWVlZVFRkby+XxyK46OjnZ2dr/++mthYeHt27eVhwNKJiYm1dXVLW6O7C8UCvPz88kPiA8++ODQoUMPHjwoLS29cuVKVlbWoEGDVLzDpOjo6IqKCqlUeurUKU9PT/LzYsSIEcnJyRcvXhQIBCdPnuTz+cOHD28+pKysTCKR3L5929HRkWw0MjKi0+nx8fFVVVU5OTlnz54l24OCgqRS6b59+wQCQXZ29qFDh4KCggiCUK5NLpfX1tYqP6fQW+o1D/svXbq0ZMmSgICAp0+f3r17t6ioCABsbW0Jgti7d2/znmZmZpmZmco/nz592v6t0Gi0kydPEgRBEERKSoryoDQ4OPi9994zMzNjMpkAkJiYSLbfu3dv3rx53t7e9+/fDwgIuHXrlkwmU7F+MzMzACgoKCD/zMvLo9FoZmZmeXl5bDZ72rRpvr6+BgYG5KyroaEBAFwuVyKRFBcXK4e4ubk1XyeLxRKLxS1u7qV919PT43A4y5cvX758ubJReb7Q4jtMUm6dXOByuWVlZVwuNy8vT9knPz+/+cxfUVFBLgiFQh0dHXI5JycnIyNjx44djx8/fvr06a1bt8iPYx6PZ2FhcerUqebR6uvrk0crJLFYzGKxXtpBPp8/ceLEFvcddUOqkv/fmaNs+f3332NjYz09PX19fSdNmrR+/Xoyw8Vi8UcffaRQKFpcoVwub37q2Ca5XP7ZZ5/J5fLKykqhUEg2+vr6zpgxY9u2bU+ePBGJRLNnz7axsSFfkkgkd+7cCQgISE9P9/T0PHr0qOr1k7NZi9FOmzbN09Nz8+bNBQUFMpls69atyqlPLpf/+w1RqqurU2bXS1o8E16zZk3zD0el1t5hAFCeArx0StXa2/7SPip3RCaTrV+/vmfPnm5ubqNGjRo/fvyyZcvI9/nRo0fffvtta2sDAB0dnXf16wzqUHXY39DQwGazyWUGg8FgMBoaGpSvFhYWXrhwYcOGDXw+39vbGwDy8/NZLJaDg0MHxldQUFBUVKTMfABwcXFJS0tLSEggP0esra2b97927VqfPn1GjhzJ5/NzcnKav9TU1PTSZEWe5SoLmdna2ioUCvIKZY8ePa5fv56bmyuTyVgsFnmMAADFxcVsNltfX5/8k8vlvhRwbm6u8uqAanV1dTU1Nf8+c1b69ztMUgZMLpB7UVJS0rwiG4/HU57DqyCXy1NSUk6cOLFmzRojIyPyHK2goMDBwUH5T/9v5DHLS28vANDpdFNT09Y++1B3oyr5Hz9+PG7cOG9vbwcHh7lz50ql0rS0NABgsVhhYWE9evQwNDT09vbmcrm5ubkAwOfz//rrr2XLlvXu3dvMzMzb2/vzzz9/7S/nWyMQCGxsbMhbaPz8/F466s7MzCwtLZ08efL169dfGpidna2npzdw4EAOh0NGVVFR8fDhw1mzZjk4ODg7O3/00Ue3b98m52c+n+/q6kqn0+l0emhoqDITsrOzc3Jy3n//fYIgzM3NBw8e/NJWHj586Ojo+O9D4hadPHly8uTJQ4cO5XK5PXr0mD17NnllobV3mDR06NC+ffvyeLzQ0NAnT56Qn1ZRUVHu7u6jR482NzefPHmytbV1dHS06q07OTmFhITY2toaGRkNGTJEIpEIBAIAiI2NFYlEK1eudHJysrCwCAgIWLhwYfOBrq6utbW1/05+Lpe7e/fuDz74oD37jtRO1WH/3r17p0+fvnDhQi0trdzc3G+++Ya8lCWXyzkczooVK/T09Kqqqo4dO3b//n1yyM8//zx9+vTFixdra2tXVFQ8fvxYIpF0bMTXrl2zs7Pbtm2bTCbLyMiIjo62sLBo3uH69evTpk27devWSwOLi4t/++23OXPm6OvrX7x4cf/+/QCwa9euefPmbdy4US6XP3z4cN++fWTnQ4cOLViwIDw8XCwW37hxo/kF/O3bty9evHj//v2lpaU3b9709fVtvpXk5OSqqqp+/frdvn27zX25cuUKnU4PCQn55JNPamtr09LSyC/hVLzDAHD58uXp06ebm5unpaX99NNPZGNmZuauXbsmTZo0c+bM0tLSbdu2vfR1478JhcJevXqNHz+ezWYXFhZu2bKF/PcVi8Vff/31zJkzv/rqKxqNxufzr1271nygv7//tWvXmp/+oLcR8e5V7w0LC7Oysvrmm2/UFYC/v/+oUaPWrFnTGSs/cuTIjh07mn8WdDEul7tly5alS5eS9x2gt9c7dW+/pqami4vLkCFDrl69qsYwbt26FRcX967e229kZPTTTz9h5r8DuvXtva9q9erVPXr0iI6O/vfX711JoVAovzN/96SkpKg7BNQx3sHDfoRQe7xTh/0IofbD5EeIojD5EaIoTH6EKAqTHyGKwuRHiKIw+RGiKEx+hCgKkx8hisLkR4iiMPkRoihMfoQoCpMfIYrC5EeIojD5EaIoTH6EKAqTHyGKwuRHiKIw+RGiKEx+hCiq1eq9CxYsaLF99+7dnRYMQqjrqCrd/dP+n15qWTx7cWcGgxDqOnjYjxBFtf2jHQw6bF1aNcynSSKFfdc7PyKEUJdoe+Yf4C6aENA4dYOx90yLNjsjhN4Wbc/8Zoaymnrak+x2/eY0Quht0fbMT9AUcjnRBaEghLpS28mvwQSxtAsiQQh1qTaS31BPHjxAmJbH7JpoEEJdRlXyL/2gLvGQoKed+NsDnC4LCCHUNVQl/84Tel6hFul5zHUf13RZQAihrtHGYX9lLe3SXU1XO0nXRIMQ6jJtX/BrEhOstr8QRAi9ZdpOfpmMoNEUXRAKQqgrtZ38/HI6R1fu4SCm4Zf9CL1D2k7++6nsM9e1jm2sePS7oAsCQgh1jbbP5hUK+HSHIbm8eHYnh4MQ6ir4SC9CFKVq5sfSHQi9w1pN/pKSkoiIiK4MBSHUlfCwHyGKwuRHiKIw+buIv6Xf1ZDLV0MuL+z1ibpjQQigmyT/5+eSeJ79e/oHLz1yW92xvOA7cXbotmMAMP/XSM+Rk958hXXiuuERwbuS9rz5qhB6c90i+RFCXa/7PrLjMyHUZ8LMXR8PJf+c/2vko0vH753eDwDmTu4jF3/FdXSVSSTFmckRm5Y9q6kku/lOnN3v/Y91DEzK8zOj93yf9/gu2c5gsb+4nH5642LPERNtvQaIm4Tn/m9lZtw1TT2DUcs22nkPZLDYFQXZUbs2FjyJb094BgYGcrm8tra2E3Ydoa7QLZK/urhAKm4SCxtrSora03/C2h2FKQlnv/+UwWLbeQ+i0Z/vRZ+x0/pPnntpx7qK/CyHfgFTv/v1l9kjmq9zSNiqmL1bTn+7xIBrTWMwASBo9mccc+vfV3woFj4zd/YgaHRl56aGuvqKEgCoLROIGhteiuG///1vTU3NZ5999ob7jpC6dIvk3/vJGHIhO/5Ge/pzuFa3Du0ks7qiIFvZ7h+67OovmzLjrgFAwp+HXANGuwaO+evYL8oOydfOp928DAClOenKVZVkppTlZgDASx89iZGnEiNPAcDRL2a9wc4h1E11i+R/VfFnfx+3+r8ew0P4qY9Sb1yqKMgCAC2OoY6hScjaHSFrdyh7VhZmNx/IT3v00qoeXjz2/rr/mTn0LEyOz7p/I/fhnXbGEBYW9mY7gZCadd/kV/yzhgBBe3FtMnrPd4mRp+z7+PXwG+k3ffHB5R/w0x6TL+1fHKJc/remhrqXWtJvXdk5bbBDX38HH/9pWw5e3fP9vVO/dtg+INSNdd+r/aKGOpamFrlM0Oi6RmbNXy3Pe3rv9P6Dn06pLMxx7BcIAI01Vc+qK2x69XvVDTVUliVGnjrz7dKEPw+7DBzezlHGxsaGhoavui2Euo/uO/MLnibpGpnxPH3zk+73e/9j5QcBg60xbO6alOsXakqKzBx6Gphbl2Slki/dPLRz6JzVTXW1eYlxOoYmrgGjMuOu5TxQde9AwMefCtITy3IztPQMeF4D8h6197B/y5YteMEPvdW6b/JXFubE7t866avdEpEw8cpJ5YU9hUymbWjy/voftTmGdRUl13/bkXEninwp4c9DNDp94IfzRy3/9lltZcGT+OriQtVbUcjlw+ev0zezFD2rz7hz9dqv/+3cvUKo2yB4PF6LL4SEhOBTfR3I39JvmdeSiRenqDsQhJ7rvuf87xi5QqHN1L40/tw89znqjgUhgO582P+OuS24897ZMeqOAqEXcOZHiKIw+RGiKDUnv52dnXoDQIiycOZHiKIw+RGiKGolv9zeT7QoumlDlqzfTHXHgpCaUeurPmngclppGnPvOBA3qjsWhNSMWjO/QteMVhCPmY8QUC35gaCBXKbuIBDqFiiW/Aw2yCTqDgKhboEy5/w0htzRX6FtRJRlqDsUhLoFqiR/0/oMoNHp9w7Q+InqjgWhboEqh/0a37qwjs6R9ftYbtFL3bEg1C1QJflBLqVlRBONVQqzHuoOBaFugTLJT5I0AZ2p7iAQ6hYolvxyKTT7WQ6EqIxayU/UCuQ2PsDSUncgCKkftZKfcWOH3Kxn0+okvLcfIap81Uei5d1j/zxM3VEg1C1Qa+ZHCClh8iNEUe9+8mOlMIRa9O4nP0KoRZj8CFEUJj9CFIXJ35F8J84O3XYMAOb/Guk5ctLbu3U7E4OIFR8CwLwhfZe+179j4nsVfyya5G5tOtDZOnzOuK7fOkVg8iNEUdS6yUctTO2cP9kXeXH72v6T5+oammbejz33f6ukoiYAcPAJ8Ju2yNTOhc5k8lMfRe3aWJqTDgCh2441NdRau/UVZCTy0xP7vf9x2o3LF7evBQCmhtbwT77oGTCazmAUPIm/8uNXNSVF7QnDwMBALpfX1ta+yb58PtZPLJXRaTRvW/P6JtGemIRHecUAQCOIBcN9PKzNjHS0ahqbopOzT8SlKBQKd2vTlaMHZZVUOZgZnriXPMLDUVeTvSniRm55NQB48bjT/TxtjPQrGhovPHx66fHTN4kNvSqc+TtSU0NdfUUJANSWCUSNDc1fcvIdsm/+mF2zhvE8+nmOmEg26hgYJ0WdPrh88t55o6sEBVO/O0CjP3/uSC6T/bF6hn2fwfqmFkfWfOw9eqqukRkAjF21xcTW+ejaWb8uHN9QXT7l233KISq2DgD//e9/v/zyy3buiEQmK6lpAIBaYVPNs6bmLw10tol+kj191+nrqXmLR/jSCAIAaDRCJlf8HHV/0YELP0fdG+XlPMLDgeyvr6Vx6n5KQi5/doD3j5FxafyyYC8nALAx1v9ivP/VJ9lLDl7aF/tgygB3Pxcb5VZKahvEUplQLC2re9bOmNGrwpm/IyVGnkqMPAUAR7+Y9dJLt4/sEgsbxcLGnAe3LVx6PTj/BwAkRp1Wdoj99f+8R0814TmRk39+YlxJVmptGT/34R1BeqKwvkafa8XS0nYLGL1j6kAyyS//78vVF5LNnT34aY9Vb/1VFVXVLdh/HgCO301+6aXkwtLEghIAiE3NnTLA3VBHs6K+USqT/xIdT3Yoq3t2J6PAy9Y8MikLAOqbROmCCjN9HVdL05yy6jR+RT8HSwCY7Ot2Iy2P7FNa23D5ceYQN/vbGQXkSj47fIVcII8sUGfA5O8idWUCckEsbNA15pLLBha8YfPWWHv4aOsbAkEAAFNTm3xJKhaR/ysRNZELTLaGnn0PIIjlx+82XzOHa00mv2phYWEdsiMV9c8LnwvFEgDQ0WCRLaO8nIO9nMz0tJkMOgAk5peQ3cRSOQBIZDKxVEYusBh0AOAZc6yN9If/fYAAAPzqug6JELUTJn8XUSjkzf4iyP+b/M0vVUW5vy4cX1dWzNbWWfVnIkEQqtcjFTV9P9oVFIpOi7QN8n9umgACAPo7WoX6e229cCepoEQklYUFetsYc1pdxd+7eOhW4pn41E6MFamE5/xqw9TQMrPvcffE3tpSvkIhN7F1bnNIWW4Gg61h4ezxGpszNjY2NDR8jYHt4WJhklpUFp/DF0llAGBtrN/mkPyKWlcrk9fYFpPJNDIyYrPZrzEWNYfJrzaSpsa68hI770EAoKnLGRK2qs0hFQXZqTcuTVi7w8EnwMDcxrFf4ORvfmFr6bRnc1u2bFm3bt2bBt0KQXUdz5ijp8kGAD8XnruVWZtDTt9P8eKZz/DztDbStzMxmNC3x4S+7Sqv2Lt37/Dw8MDAwDeMGeFhvzqd3rg4eOl/+o6fLnpWf/vwzza9+rU55PwPq4bMWT3u8x80dfVrywTZ8TfJqwPqFZOcY2dqsCM0WCZXpAsqopOzzTm6qofkldd8G3H9w4EeY71dRFJZdllVRHxae7alpaUFAOXl5R0QN7URPB6vxRdCQkIiIiI6e/N2dna5ublv+yZQV1q0aJGdnd2qVasU6rvw8W7Aw370lnF3dz9x4gRm/pvDw370llmwYIG6Q3hH4MyPEEVh8iNEUZj8CFEUJj9CFIXJjxBF4dX+t9LQuavNHFyPrHnxu0Pvb/jRLXAMACRGnT63ZaX6QuswMwZ72pkY/OfMdWXLZ6MHkY/9xqbm7rwSp7bI3hU483ekLivjVfz0Sc6D281bzmxcsnGo3ZOYsy32//xcEs+zf0//4KVHbrfYof2+GD946gAPPU12xIoPTfW033BtKmSXVisfDSRtvXgnZNvRm2l5/+6sxWbOCui9Z864PxZP2jRlmIPZi6cYtNmsiBUfOpp1zHMN22cEt/M25A7X4bXVcOZ/K6XeuKTuEDrdX08L2tlTk8Xc9MGwVH7Z+uPRNULRQCfrL98PXHzgYn2T+m987s4w+buCoSVvxMIvbb36i541pN++Er1ns0Qk5Hn2n/jlT4L0RHNnj1uHf/IePVVL3+DYurCSrFSCRh+9YpNd74G6xtxn1RWPLh2/dehH8qHggJnL/UOXAUB2/M3mh/2vjc1m6+jo1NXVSSSSN1mPOUc3LNDbzdpUKJbEZRYdvPlIJJWpKOPF5ejMCujtbG6sw2YJquuPxz3562khuaqpAzymDHAHgEd5xc0P+1szdYBHbnn13msPyD9vpOV525r3d7J6mFe8b+54svGHaSPJhek/n34mErcWMAAQAB8N6hXkZq+nya6of3buQcaVxEwA2D17LJejAwC2Jr1n+vcGgM3nbt3LaqOGmgaTETrYa4CTtRabWVBR89vNxylFZQDgxDWaE9THztSgoUl0JTHrZFyyAkB11bMOh8nfkVospMVgsaf93+Gse7F7549laWkHL/nP8AXrLu1YDwDaHKPbR3Z5BU8esXD9gcXvD5gyr8+4GRe3fUGj0RQy2fkfVteUFBpa2YWs/d+z6gqy+M+NgztuHNxBnvO3P7Dq4gKpuEksbPx3wb/AwMB58+Zt2bLl/v377VrVs6b6JpFcoSipaZDJnxcpYDLoX08KepArOHA4UpPFmDuk76xAb7K2D1nGa6i7/ewA79VHo0J8egZ7Oe26el9Xg51dWn3yXkq9UOzF4342elBh5eXCyloAOHb3ybG7T8hz/jbjodNoQ9zsVh+NAoBRXs4jeznWCUWltQ1cfZ3K+saQbUe12azDiyau+iMyq7RKOUpFwINcbIK9nDafu1VcXW9hoGes+/wH3cnSRttnBN9Iyz2bkN6e9woAlgUP4Bnp74yMK6lpcOIacjk6KUVlbAZ93QT/hFzBzsg4njFnyUjfyvrGmJQcFW8X/LO2WpOkAzIXk78jtVhIq9eIiTKp5PKPX5EVOGL2bvno+wOX/rcBAIR11UUpDwzMrW08+hVnJhcmJzgPHA4AMqnk4vbnj9/WlBSlXj9v33cwmfyvZ+8nY8iF7Pgbr70SkrJcF5kMpCGudlKZfG9MAnnD/aHbjzeEBO6JjofWy3hlllRmllSSwyOTskb1du5lY0Ym/yuxMdIXiiWC6vq+9pYhPj23XrxDI4iVYwbdTM9XMaq1gBUApno6Nc+aUorKFQpFZYPwVeP5R2zG+v0drVYfjXpaXAkAxTX1ZHt/J2s2k7E3JkEklfGr6tytTN/zciKTv7W3C1TWVns9mPydzsy+h5GV3YbonOaNOgbG0KxWl7RZrS6yg8+E0L7jZ3C41gwWGwBeurzXgSIjIyMjI99wJTwTjoWB7pkVHzZv1NfWgNbLeLEZ9BmDvfo5Whlqa9JpBABospivsWmOtgZZ5NPX0fLy48x0QQUARCZlqV5bawHXPGv6K7NgbB+XXbPGJBWUpPLLb2cUKA9wXhXPmCORyjKLK19qN+foltQ0kGcZAJBbXu3f8/nDta29XZ0Bk78rZMffOLLm45cajawdWuoLANDDb+TQeWvObFyS+/AviUg4ctGX7anzo14tnp9bGeq10JUAAJgx2MuTx9385838ilqZXL59RnAbBcxaJ5MrAIAAQix7nk4SqVyT9ToBA0BJTcOCX8978rge1mZzh/QZ6Gzz/Z83Xzc0aPHZQ4IARcuvtNj7tTfeBvyqr9OV5WaYO3kw2ZrtH2Ll1qcgKf7p3RiJSAgA7c98ibCRydJ4pfA0NTVNTU3fsCpWfnmNg5kh+1XmKBcL49jU3JyyaplczmLQzfTb+62hUCJtPhlW1jeSYxNyBUPd7HU12PpaGoGutsoOEpkMAOi0f/ynrjrgJon0XlbRvtgHP0Xd97G3oDUrrCiRyV5alZKxrpahzj/+lfMralgMupO50Us9i2vqzTm6yq3bmRiQJ/NvQktLy8jIiE5/hX8CTP5Olxh1WiISTvrqZ4senkbW9r2Gh4xZuVn1kMrCbFN7Fy2OIQC4BY3lebb3S11BepKt1wBzJ3cdQxM6s625DwAA/P39d+/e7enp2c5NtCg2NVckka4a6+fENbI00At0tV00oo2qRIKqOldLEzqNRqcRM/292Mz2HoRmlVR5WJvZmxpwtDWYdFphVR2bweAZc+IyC2+l52/+cPj6Cf5ZpVXivw+qxVJZVYPQ19FKi8Vk/p1vKgIOcrUb4mZvYaBrztEd5GyTX1HbvGZpcU2DF8+co6XBZNBfqrb6w7SRG0ICm7cUVNTGZRUtfa+/F4/L5egMdLYOcrUDgLjMIrFUNndoX0tDvYHONkFudmQJ8zcxderU8PBwLpfb/iF42N/ppKKmw6umDftk3fQfDtNotIrCnMQrJ1UPeXzlFNfR7ZPwy3K5rDDlwaNLxwwtbQGAwWJ/cfnFdeYNMbkAsH/x+/y0R2RL0tUz1r18QrcfZ2lqnfjyk4w7UZ21V/8klsq+OhX7cYDX15OCaAQhqK6PSc5RPeTgrceLhvvumzteJJXeSMvLKnl+KZ7JoJ9Y+oHt1LwmAAAgAElEQVSyG3lby+qjV58WV5At19NyXa1MNk0ZpsFkkF+2nX+YERbo/c2Z2DPxqS2WA94TE/+xf+9xfXrQaQT5VZ+KgIUS6cR+rnOH9JHLFemCih8u/ONqy4m7yUve890zZxyLQW/PV307r8TNGOy5LHiANouZX1l78OYjAGiSSL87ezMsyHvHjOAGkfj8w4zott6uNmlpaUkkkrq6Vyh/jmW80FuPRhBrxg/WYDD+uJOUU17NZtBpBFEnpNYdPrt3746Pj9+/f3/7h+DMj956coVi85+3hns4zA70tjLSk8sVf9xJIu/MoQgTExMDA4NXna0x+dG7QK5QRCZlvfmZ81uqvLx86tSprzoKL/ghRFGY/AhRFCY/QhSFyY8QRWHyI0RRmPxvmZURD92Cxqo7irfG52P95g/zUXcU3RQmf0fqsjJeavTBf8IDZi7X0jfYEJPL4Vq9yarGert8+8FQAPjfzFFD3Ow7KMDupTvvIyY/QhSFN/l0hRbLeDFY7LBd57Lux8aEbwYAI2v7uXsunPp6Ydb96+Sofu/P8pkQqm9mWVsqiDu178G5w2S7rpHZ9B8OW7v1Kc1Jj9i0rLq4AAAMLHjD56+zcu2toatfWZh78/cdaTcvk/1XRjy8H3HQwcff1NalPD9TOQQA/D5a1H9yGEHQ/jq+x2dCaOz+rWQxkhYDbnM36XQ6h8MRCoWNjY1v8nZpMBkz/b0GOtswaLQ0fnn4tQTyif3FI3wtDfXWHY+WKxRMBn3rtJHxOfxDtxLJUWO8XUZ5OpnoaZc3q70FAHQaMX+YT0BP29rGpj0xCY/yigGARhALhvt4WJsZ6WjVNDZFJ2efiEshf/zz87F+YqmMTqN525rXN4mUQwBgkq/buD4uBBARCWmjvJyP3Em6lpKjIuBuDmf+jqSijFdtKX/v/LHHNswxd+41fME6AJCKRRGblvpMCOV5+tLo9JAvdjy6eLxZ5n8cNHvlX0d/+WX28Es71ukZmym34jtpdvzZ339bNpnBYgfNWUU2aupxSjKTj60L2zVzaMKfv0/c8KMJz0k5xGNYSMSm5Vsn9hE1NiiHOPUf4j9z2dXdmw4snWTZs7e2gYnqgEkNVWXC+hq5XF4tyJdJpc13n8vlhoeHt/9Ws2ciCVkqp6KusVH8ooLgohG+1kb630bcWHUksrpRuHaCP1ntY1/sAz1N9iRfNwAI9fMUS2VH7jwhh4zu7TxtUK8z8WlLD17aE51g1OzRWj8XnqC6fvXRqDR+xeIRvuTzuTQaIZMrfo66v+jAhZ+j7o3ych7h8aK8wkBnm+gn2dN3nb6emqcc0tfeckp/9wPXH31x7KqLuRFHS6PNgFXsY3eAM39HerUyXgpFWW5GzN4t49dsy7gdSWexYva+eNTXf8bSW4d/fHT5OABU8fNzH95ptpXT5ON6CecOD5z6CdkoSE8UpD+fAx+c/8NnQqhdn0Hl+c9nv8eXj9eUFAJAyrVzftMXk419xk5Lu3k5Meo0AFz58SuXQcPbDBgAyOqDAPDTjMA3fLuupeSQM+fGiOvKRksDvUEuNnPDz5I5Ex6TcGTxZAczw6fFlU0S6daLd76bOlwqkw/zcPjs8BVljZ0pA9xPxqVEJ2cDQHFNfWLBi5rfuWXV5x6kA8CpeymBrraGOpoV9Y1SmVxZj6ys7tmdjAIvW3Pl3cHJhaXkGmJTc6cMcCeHjOzlcDezMDY1FwD2XnvQb65VmwG3to/dBCZ/p2utjFdDVTkAxEccdO4/1GdCaPi8UWRVLwDQMTLV1DPIT7zX4gorC7PJBWFdtaYuh1xmsjWHzPncxW+ErpEZjU4HAJbGi/IYtWUCckHU2KAcYmhpS35UAUBdebHoWX17AlaBz+dPnDhRdZ828Uw4BMC+eROaN5rq6ZC5lFNWfepeyozBnntiEgTVzwM20NbU1WAnF5W1HFX186dcyUreOhqsivpGABjl5Rzs5WSmp00+5N/8NwLIDgAgFEuUQ8wNdK+l5Co7NIok7Qm4O8Pk7wotlvEiaejqG/Mc5TKZZY/eZblP27M2+d/FqgBAWU9iyJzP7fv6ndgwrywvQy6Vzgu/RNBelJpQNKtC96IEBUEoFC0Xk1IRcBcQS2VTd55orcyVi7mRRCbvYWHczuf2yCJfSgQQANDf0SrU32vrhTtJBSUiqSws0NvGmKPsI1e0MIQAorXSW6oD7rbwnL/TqS7jNWbF9+V5mSe/XjBy8ZdGVnZkY0NlmbCumufp2/6tWLv1SYo6U5KVIpdKGWwNA3ObNodUFeWaOfQkl/VMzNnauu0JWAU6nW5qaqqjo/OqA5sjS185cFv+gZ3RvZ0dzAw/PxLZx87Cv6ct2Vj9TFjfJHK3Mm3/VlwsTFKLyuJz+GQVTWtj/TaHCKrrbE2ef0AY62ppsZntCbg7w+TvdCrKeHmP+dDWq/+5H1Zlxl17En02ZP1OOuP5f1I3D+0cPG2x13uTDSx4PE9f8oc6VKgoyrbx8KExGDQ6fdi8L5gabVfye3D+j57+wR5DJxha2o5YuEEmlbQZsGpcLnf37t0ffPBB211bx6+q++tpwafBA3vbmpvp63jbma8eN1iLxQQAWxNO6GCvnVfi8spr9sQkfDK0r5n+8w+a43eTJ/m6DnWz53J03KxMyd/8UEFQXccz5uhpsgHAz4XnbmWmuj8ARCZlD3Cy9u9pa26gOzvQWyqTtxlwN4eH/Z2utTJexjaOIxZuOPvdpw2VZQAQtXvTvPCLQWGrovd8BwD3Iw4SBG3QRwtHfbqprkwQd+pX1VuJ2bN5zMrNy47+JRU3Pbl6VpDxpM3AMuOu3fx958glXxEE7c7R3dZufWQSsYqAu8yPkfdmDPZcOrK/tgarou7Zo/xisUzGYtBXjBp49Un24/wSALidke/jYLli1IC1x6NlcsWlR09pBDGxn+t8PZ+K+kbyCp8KMck5dqYGO0KDZXJFuqAiOjnbnKOrekhCDv94XPLcoD4EAWfup/WwMJb8ff7VYsAd8lZ0KizjhQAA6AzmmoupB1dMLUp5oO5Y3gIMOu3YksnrT8SQPxPwlsLDfuqiM1k+ITP1TS00dTlBs1fWlBYJ0h+rO6jui0mnje7tbKKrpaPBmjaoV1ntM+UvDr2l8LCf0twCxwTNXgkA/LTHx9aFyd+Gg1U1GuRi89GgXgCQWVy56ezNl75HeOtg8lOXTCL+bdlkdUfx1pDI5GuPRas7io6Eh/0IUdS7n/x4tQ+hFr37yY8QahEmP0IURZULfk0bsghRPS35HPPSV+qOBaFugSozv8a3LsxTi2X9ZipMu/sP3SPUNaiS/KCQ0XLugFyq0G37Lm6EqIAyyU+Sy4Gg2C4j1AqKZYJMomCw1R0EQt0CtZKfVpomdx+r0NBTdyAIqR+1kp9x5Ru5Y4BoTZKs30x1x4KQmlHlqz6SNPhrWtYNxoV1RFOdumNBSM2oNfPLTXvQks//O/O1tLSMjIzodLpaokJILaiV/EBnElLRv5unTp0aHh7O5XK7PiKE1IViyU+jgVz672YtLS2JRFJXh+cCiEIoc85P0OW2vkBjELX8f7/o5uYWFRVVX1/f9XEhpC5USf6m9RmEqJ5x91eiMu+ll0xMTAwMDLqgYCFC3QpVkl9jo2NrL5WXl7f/5+UQemdQ7JwfIfQ3TH6EKAqTHyGKwuRHiKIw+RGiKGolv9zeT7QoumlDFj7YgxBVvuojSQOX00rTmHvHgbhR3bEgpGbUmvkVuma0gnjMfISAaskPBA3k+HN0CAFQLvkZbJBJ1B0EQt0CZc75aQy5o79C24goy1B3KAh1C1RJ/qb1GUCj0+8doPET1R0LQt0CVQ77Nb51YR2dI+v3sdyil7pjQahboEryg1xKy4gmGqsUZj3UHQpC3QJlkp8kaQI6U91BINQtUCz55VKgYZVOhAColvxErUBu4wMsLXUHgpD6USv5GTd2yM16Nq3GH+1AiDJf9ZFoeffYPw9TdxQIdQvUmvkRQkqY/AhR1Luf/HZ2duoOAaHu6N1PfoRQizD5EaIoTH6EKAqTvyP5Tpwduu0YAMz/NdJz5KS3d+t2JgYRKz4EgHlD+i59r3/HxPcq/lg0yd3adKCzdficcV2/dYrA5EeIoqh1k49amNo5f7Iv8uL2tf0nz9U1NM28H3vu/1ZJRU0A4OAT4DdtkamdC53J5Kc+itq1sTQnHQBCtx1raqi1dusryEjkpyf2e//jtBuXL25fCwBMDa3hn3zRM2A0ncEoeBJ/5cevakqK2hOGgYGBXC6vra19k335fKyfWCqj02jetub1TaI9MQmP8ooBgEYQC4b7eFibGelo1TQ2RSdnn4hLUSgU7tamK0cPyiqpcjAzPHEveYSHo64me1PEjdzyagDw4nGn+3naGOlXNDReePj00uOnbxIbelU483ekpoa6+ooSAKgtE4gaG5q/5OQ7ZN/8MbtmDeN59PMcMZFs1DEwToo6fXD55L3zRlcJCqZ+d4BGf/7ckVwm+2P1DPs+g/VNLY6s+dh79FRdIzMAGLtqi4mt89G1s35dOL6hunzKt/uUQ1RsHQD++9//fvnll+3cEYlMVlLTAAC1wqaaZ03NXxrobBP9JHv6rtPXU/MWj/ClEQQA0GiETK74Oer+ogMXfo66N8rLeYSHA9lfX0vj1P2UhFz+7ADvHyPj0vhlwV5OAGBjrP/FeP+rT7KXHLy0L/bBlAHufi42yq2U1DaIpTKhWFpW96ydMaNXhTN/R0qMPJUYeQoAjn4x66WXbh/ZJRY2ioWNOQ9uW7j0enD+DwBIjDqt7BD76/95j55qwnMiJ//8xLiSrNTaMn7uwzuC9ERhfY0+14qlpe0WMHrH1IFkkl/+35erLySbO3vw0x6r3vqrKqqqW7D/PAAcv5v80kvJhaWJBSUAEJuaO2WAu6GOZkV9o1Qm/yU6nuxQVvfsTkaBl615ZFIWANQ3idIFFWb6Oq6Wpjll1Wn8in4OlgAw2dftRloe2ae0tuHy48whbva3MwrIlXx2+Aq5QB5ZoM6Ayd9F6soE5IJY2KBrzCWXDSx4w+atsfbw0dY3BIIAAKamNvmSVCwi/1ciaiIXmGwNPfseQBDLj99tvmYO15pMftXCwsI6ZEcq6p8XPheKJQCgo8EiW0Z5OQd7OZnpaTMZdABIzC8hu4mlcgCQyGRiqYxcYDHoAMAz5lgb6Q//+wABAPjVdR0SIWonTP4uolDIm/1FkP83+Ztfqopyf104vq6smK2ts+rPRIIgVK9HKmr6frQrKBSdFmkb5P/cNAEEAPR3tAr199p64U5SQYlIKgsL9LYx5rS6ir938dCtxDPxqZ0YK1IJz/nVhqmhZWbf4+6JvbWlfIVCbmLr3OaQstwMBlvDwtnjNTZnbGxsaGj4GgPbw8XCJLWoLD6HL5LKAMDaWL/NIfkVta5WJq+xLSaTaWRkxGazX2Msag6TX20kTY115SV23oMAQFOXMyRsVZtDKgqyU29cmrB2h4NPgIG5jWO/wMnf/MLW0mnP5rZs2bJu3bo3DboVguo6njFHT5MNAH4uPHcrszaHnL6f4sUzn+HnaW2kb2diMKFvjwl921VesXfv3uHh4YGBgW8YM8LDfnU6vXFx8NL/9B0/XfSs/vbhn2169WtzyPkfVg2Zs3rc5z9o6urXlgmy42+SVwfUKyY5x87UYEdosEyuSBdURCdnm3N0VQ/JK6/5NuL6hwM9xnq7iKSy7LKqiPi09mxLS0sLAMrLyzsgbmojeDxeiy+EhIRERER09ubt7Oxyc3Pf9k2grrRo0SI7O7tVq1Yp1Hfh492Ah/3oLePu7n7ixAnM/DeHh/3oLbNgwQJ1h/COwJkfIYrC5EeIojD5EaIoTH6EKAqTHyGKwqv9b6Whc1ebObgeWfPid4fe3/CjW+AYAEiMOn1uy0r1hdZhZgz2tDMx+M+Z68qWz0YPIh/7jU3N3XklTm2RvStw5u9IXVbGq/jpk5wHt5u3nNm4ZONQuycxZ1vs//m5JJ5n/57+wUuP3G6xQ/t9MX7w1AEeeprsiBUfmuppv+HaVMgurVY+GkjaevFOyLajN9Py/t1Zi82cFdB7z5xxfyyetGnKMAezF08xaLNZESs+dDTrmOcats8IbudtyB2uw2ur4cz/Vkq9cUndIXS6v54WtLOnJou56YNhqfyy9ceja4SigU7WX74fuPjAxfom9d/43J1h8ncFQ0veiIVf2nr1Fz1rSL99JXrPZolIyPPsP/HLnwTpiebOHrcO/+Q9eqqWvsGxdWElWakEjT56xSa73gN1jbnPqiseXTp+69CP5EPBATOX+4cuA4Ds+JvND/tfG5vN1tHRqaurk0gkb7Iec45uWKC3m7WpUCyJyyw6ePORSCpTUcaLy9GZFdDb2dxYh80SVNcfj3vy19NCclVTB3hMGeAOAI/yipsf9rdm6gCP3PLqvdcekH/eSMvztjXv72T1MK9439zxZOMP00aSC9N/Pv1MJG4tYAAgAD4a1CvIzV5Pk11R/+zcg4wriZkAsHv2WC5HBwBsTXrP9O8NAJvP3bqX1UYNNQ0mI3Sw1wAnay02s6Ci5rebj1OKygDAiWs0J6iPnalBQ5PoSmLWybhkBYDqqmcdDpO/I7VYSIvBYk/7v8NZ92L3zh/L0tIOXvKf4QvWXdqxHgC0OUa3j+zyCp48YuH6A4vfHzBlXp9xMy5u+4JGoylksvM/rK4pKTS0sgtZ+79n1RVk8Z8bB3fcOLiDPOdvf2DVxQVScZNY2Pjvgn+BgYHz5s3bsmXL/fv327WqZ031TSK5QlFS0yCTPy9SwGTQv54U9CBXcOBwpCaLMXdI31mB3mRtH7KM11B3+9kB3quPRoX49Az2ctp19b6uBju7tPrkvZR6odiLx/1s9KDCysuFlbUAcOzuk2N3n5Dn/G3GQ6fRhrjZrT4aBQCjvJxH9nKsE4pKaxu4+jqV9Y0h245qs1mHF01c9UdkVmmVcpSKgAe52AR7OW0+d6u4ut7CQM9Y9/kPupOljbbPCL6Rlns2Ib097xUALAsewDPS3xkZV1LT4MQ15HJ0UorK2Az6ugn+CbmCnZFxPGPOkpG+lfWNMSk5Kt4u+GdttSZJB2QuJn9HarGQVq8RE2VSyeUfvyIrcMTs3fLR9wcu/W8DAAjrqotSHhiYW9t49CvOTC5MTnAeOBwAZFLJxe3PH7+tKSlKvX7evu9gMvlfz95PxpAL2fE3XnslJGW5LjIZSENc7aQy+d6YBPKG+0O3H28ICdwTHQ+tl/HKLKnMLKkkh0cmZY3q7dzLxoxM/ldiY6QvFEsE1fV97S1DfHpuvXiHRhArxwy6mZ6vYlRrASsATPV0ap41pRSVKxSKygbhq8bzj9iM9fs7Wq0+GvW0uBIAimvqyfb+TtZsJmNvTIJIKuNX1blbmb7n5UQmf2tvF6isrfZ6MPk7nZl9DyMruw3ROc0bdQyMoVmtLmmzWl1kB58JoX3Hz+BwrRksNgC8dHmvA0VGRkZGRr7hSngmHAsD3TMrPmzeqK+tAa2X8WIz6DMGe/VztDLU1qTTCADQZDFfY9McbQ2yyKevo+Xlx5npggoAiEzKUr221gKuedb0V2bB2D4uu2aNSSooSeWX384oUB7gvCqeMUcilWUWV77Ubs7RLalpIM8yACC3vNq/5/OHa1t7uzoDJn9XyI6/cWTNxy81Glk7tNQXAKCH38ih89ac2bgk9+FfEpFw5KIv21PnR71aPD+3MtRroSsBADBjsJcnj7v5z5v5FbUyuXz7jOA2Cpi1TiZXAAABhFj2PJ0kUrkm63UCBoCSmoYFv5735HE9rM3mDukz0Nnm+z9vvm5o0OKzhwQBipZfabH3a2+8DfhVX6cry80wd/JgsjXbP8TKrU9BUvzTuzESkRAA2p/5EmEjk6XxSuFpamqampq+YVWs/PIaBzND9qvMUS4WxrGpuTll1TK5nMWgm+m391tDoUTafDKsrG8kxybkCoa62etqsPW1NAJdbZUdJDIZANBp//hPXXXATRLpvayifbEPfoq672NvQWtWWFEik720KiVjXS1DnX/8K+dX1LAYdCdzo5d6FtfUm3N0lVu3MzEgT+bfhJaWlpGREZ3+Cv8EmPydLjHqtEQknPTVzxY9PI2s7XsNDxmzcrPqIZWF2ab2LlocQwBwCxrL82zvl7qC9CRbrwHmTu46hiZ0ZltzHwAA+Pv7796929PTs52baFFsaq5IIl011s+Ja2RpoBfoartoRBtViQRVda6WJnQajU4jZvp7sZntPQjNKqnysDazNzXgaGsw6bTCqjo2g8Ez5sRlFt5Kz9/84fD1E/yzSqvEfx9Ui6Wyqgahr6OVFovJ/DvfVAQc5Go3xM3ewkDXnKM7yNkmv6K2ec3S4poGL545R0uDyaC/VG31h2kjN4QENm8pqKiNyypa+l5/Lx6Xy9EZ6Gwd5GoHAHGZRWKpbO7QvpaGegOdbYLc7MgS5m9i6tSp4eHhXC63/UPwsL/TSUVNh1dNG/bJuuk/HKbRaBWFOYlXTqoe8vjKKa6j2yfhl+VyWWHKg0eXjhla2gIAg8X+4vKL68wbYnIBYP/i9/lpj8iWpKtnrHv5hG4/ztLUOvHlJxl3ojprr/5JLJV9dSr24wCvrycF0QhCUF0fk5yjesjBW48XDffdN3e8SCq9kZaXVfL8UjyTQT+x9ANlN/K2ltVHrz4triBbrqflulqZbJoyTIPJIL9sO/8wIyzQ+5szsWfiU1ssB7wnJv5j/97j+vSg0wjyqz4VAQsl0on9XOcO6SOXK9IFFT9c+MfVlhN3k5e857tnzjgWg96er/p2XombMdhzWfAAbRYzv7L24M1HANAkkX539mZYkPeOGcENIvH5hxnRbb1dbdLS0pJIJHV1r1D+HMt4obcejSDWjB+swWD8cScpp7yazaDTCKJOSK07fHbv3h0fH79///72D8GZH7315ArF5j9vDfdwmB3obWWkJ5cr/riTRN6ZQxEmJiYGBgavOltj8qN3gVyhiEzKevMz57dUeXn51KlTX3UUXvBDiKIw+RGiKEx+hCgKkx8hisLkR4iiMPnfMisjHroFjVV3FG+Nz8f6zR/mo+4ouilM/o7UZWW81OiD/4QHzFyupW+wISaXw7V6k1WN9Xb59oOhAPC/maOGuNl3UIDdS3feR0x+hCgKb/LpCi2W8WKw2GG7zmXdj40J3wwARtb2c/dcOPX1wqz718lR/d6f5TMhVN/MsrZUEHdq34Nzh8l2XSOz6T8ctnbrU5qTHrFpWXVxAQAYWPCGz19n5dpbQ1e/sjD35u870m5eJvuvjHh4P+Kgg4+/qa1LeX6mcggA+H20qP/kMIKg/XV8j8+E0Nj9W8liJC0G3OZu0ul0DocjFAobGxvf5O3SYDJm+nsNdLZh0Ghp/PLwawnkE/uLR/haGuqtOx4tVyiYDPrWaSPjc/iHbiWSo8Z4u4zydDLR0y5vVnsLAOg0Yv4wn4CetrWNTXtiEh7lFQMAjSAWDPfxsDYz0tGqaWyKTs4+EZdC/vjn52P9xFIZnUbztjWvbxIphwDAJF+3cX1cCCAiEtJGeTkfuZN0LSVHRcDdHM78HUlFGa/aUv7e+WOPbZhj7txr+IJ1ACAViyI2LfWZEMrz9KXR6SFf7Hh08XizzP84aPbKv47+8svs4Zd2rNMzNlNuxXfS7Pizv/+2bDKDxQ6as4ps1NTjlGQmH1sXtmvm0IQ/f5+44UcTnpNyiMewkIhNy7dO7CNqbFAOceo/xH/msqu7Nx1YOsmyZ29tAxPVAZMaqsqE9TVyubxakC+TSpvvPpfLDQ8Pb/+tZs9EErJUTkVdY6P4RQXBRSN8rY30v424sepIZHWjcO0Ef7Lax77YB3qa7Em+bgAQ6ucplsqO3HlCDhnd23naoF5n4tOWHry0JzrBqNmjtX4uPEF1/eqjUWn8isUjfMnnc2k0QiZX/Bx1f9GBCz9H3Rvl5TzC40V5hYHONtFPsqfvOn09NU85pK+95ZT+7geuP/ri2FUXcyOOlkabAavYx+4AZ/6O9GplvBSKstyMmL1bxq/ZlnE7ks5ixex98aiv/4yltw7/+OjycQCo4ufnPrzTbCunycf1Es4dHjj1E7JRkJ4oSH8+Bz44/4fPhFC7PoPK85/Pfo8vH68pKQSAlGvn/KYvJhv7jJ2WdvNyYtRpALjy41cug4a3GTAAkNUHAeCnGYFv+HZdS8khZ86NEdeVjZYGeoNcbOaGnyVzJjwm4cjiyQ5mhk+LK5sk0q0X73w3dbhUJh/m4fDZ4SvKGjtTBrifjEuJTs4GgOKa+sSCFzW/c8uqzz1IB4BT91ICXW0NdTQr6hulMrmyHllZ3bM7GQVetubKu4OTC0vJNcSm5k4Z4E4OGdnL4W5mYWxqLgDsvfag31yrNgNubR+7CUz+TtdaGa+GqnIAiI846Nx/qM+E0PB5o8iqXgCgY2SqqWeQn3ivxRVWFmaTC8K6ak1dDrnMZGsOmfO5i98IXSMzGp0OACyNF+UxassE5IKosUE5xNDSlvyoAoC68mLRs/r2BKwCn8+fOHGi6j5t4plwCIB98yY0bzTV0yFzKaes+tS9lBmDPffEJAiqnwdsoK2pq8FOLiprOarq50+5kpW8dTRYFfWNADDKyznYy8lMT5t8yL/5bwSQHQBAKJYoh5gb6F5LyVV2aBRJ2hNwd4bJ3xVaLONF0tDVN+Y5ymUyyx69y3Kftmdt8r+LVQGAsp7EkDmf2/f1O7FhXllehlwqnRd+iaC9KDWhaFaF7kUJCoJQKFouJqUi4C4glsqm7jzRWpkrF3MjiUzew8K4nc/tkUW+lAggAKC/o1Wov9fWC3eSCkpEUllYoLeNMUfZR65oYQgBRGult1QH3G3hOX+nU13Ga8yK78vzMk9+vWDk4i+NrOzIxobKMmFdNc/Tt/1bsdv/HkUAAAYfSURBVHbrkxR1piQrRS6VMtgaBuY2bQ6pKso1c+hJLuuZmLO1ddsTsAp0Ot3U1FRHR+dVBzZHlr5y4Lb8Azujezs7mBl+fiSyj52Ff09bsrH6mbC+SeRuZdr+rbhYmKQWlcXn8MkqmtbG+m0OEVTX2Zo8/4Aw1tXSYjPbE3B3hsnf6VSU8fIe86GtV/9zP6zKjLv2JPpsyPqddMbz/6RuHto5eNpir/cmG1jweJ6+5A91qFBRlG3j4UNjMGh0+rB5XzA12q7k9+D8Hz39gz2GTjC0tB2xcINMKmkzYNW4XO7u3bs/+OCDtru2jl9V99fTgk+DB/a2NTfT1/G2M189brAWiwkAtiac0MFeO6/E5ZXX7IlJ+GRoXzP95x80x+8mT/J1Hepmz+XouFmZkr/5oYKguo5nzNHTZAOAnwvP3cpMdX8AiEzKHuBk7d/T1txAd3agt1QmbzPgbg4P+ztda2W8jG0cRyzccPa7TxsqywAgavemeeEXg8JWRe/5DgDuRxwkCNqgjxaO+nRTXZkg7tSvqrcSs2fzmJWblx39SypuenL1rCDjSZuBZcZdu/n7zpFLviII2p2ju63d+sgkYhUBd5kfI+/NGOy5dGR/bQ1WRd2zR/nFYpmMxaCvGDXw6pPsx/klAHA7I9/HwXLFqAFrj0fL5IpLj57SCGJiP9f5ej4V9Y3kFT4VYpJz7EwNdoQGy+SKdEFFdHK2OUdX9ZCEHP7xuOS5QX0IAs7cT+thYSz5+/yrxYA75K3oVFjGCwEA0BnMNRdTD66YWpTyQN2xvAUYdNqxJZPXn4ghfybgLYWH/dRFZ7J8Qmbqm1po6nKCZq+sKS0SpD9Wd1DdF5NOG93b2URXS0eDNW1Qr7LaZ8pfHHpL4WE/pbkFjgmavRIA+GmPj60Lk78NB6tqNMjF5qNBvQAgs7hy09mbL32P8NbB5KcumUT827LJ6o7irSGRydcei1Z3FB0JD/sRoqh3P/nxah9CLXr3kx8h1CJMfoQoiioX/Jo2ZBGielryOealr9QdC0LdAlVmfo1vXZinFsv6zVSYdvcfukeoa1Al+UEho+XcAblUodv2XdwIUQFlkp8klwNBsV1GqBUUywSZRMFgqzsIhLoFaiU/rTRN7j5WoaGn7kAQUj9qJT/jyjdyxwDRmiRZv5nqjgUhNaPKV30kafDXtKwbjAvriKY6dceCkJpRa+aXm/agJZ/HzEcIqJb8QGcSUpG6g0CoW6BY8tNoIJe23Q0hCqDMOT9Bl9v6Ao1B1PLVHQpC3QJVkr9pfQYhqmfc/ZWozFN3LAh1C1RJfo2NjuoOAaHuhWLn/Aihv2HyI0RRak5+rLGFkLrgzI8QRWHyI0RR3eJq/9H3DhtrGgHAe2fHyBT4uxEIdYVuMfN/eGX6ylur1R0FQtTSLZIfIdT1MPkRoihMfoQoCpMfIYrC5EeIojD5EaIoTH6EKAqTHyGKwuRHiKIw+RGiqG5xb//BEftNNU3kCrkCFOqOBSGq6BbJPzNqtrpDQIhy8LAfIYrC5EeIolo97OdyuQsWLHip0dnFCQDWfrGuc4NCCHU+Vef8+47se6nl/77Z0pnBIIS6ThsX/Jqamv7dKBQKOycYhFDXUXXOv/D96uxT/Mgdpb0cxV0WEEKoa6hK/l1nDLxCzcuq6Qsn1ndZQAihrtHG1f76Rlp8GsvMEItqIvSuafurPpmMoOMXggi9c9pOa7EU2Ey86xahd03byZ+ex3KylvbtIcb5H6F3Sdv39t9KZJ+/rRmxpay6nnad3wUhIYS6Qtuz+WCvprF+wpDVpr1DLbogIIRQ12h75u/Bk2QWMhLSWV0QDUKoy7Q987MYIJIQXRAKQqgrtZ38NJpCKsXkR+hd00by62jJfXqK+RX0rokGIdRlVN/bX5V0qNjMULb7jG6XBYQQ6hqqLvjtOmO47YhWl4WCEOpKbVzt19DQ+HejpqZm5wSDEOo6qpJ/zkdzuiwOhFAXI3g8nrpjQAipAd6vjxBFYfIjRFGY/AhRFCY/QhSFyY8QRWHyI0RRmPwIURQmP0IUhcmPEEVh8iNEUZj8CFEUJj9CFIXJjxBFYfIjRFH/D9czhF3F+nE1AAAAAElFTkSuQmCC;" parent="1" vertex="1">
          <mxGeometry x="600" y="-955" width="340" height="327" as="geometry" />
        </mxCell>
      </root>
    </mxGraphModel>
  </diagram>
  <diagram name="API-Games" id="mIUSeDL5cwD_RZHWFtdg">
    <mxGraphModel dx="1194" dy="1868" grid="1" gridSize="10" guides="1" tooltips="1" connect="1" arrows="1" fold="1" page="1" pageScale="1" pageWidth="827" pageHeight="1169" math="0" shadow="0">
      <root>
        <mxCell id="kgZVn9VdSYF8p0RM1xLM-0" />
        <mxCell id="kgZVn9VdSYF8p0RM1xLM-1" parent="kgZVn9VdSYF8p0RM1xLM-0" />
        <mxCell id="kgZVn9VdSYF8p0RM1xLM-2" value="Docker Compose" style="points=[[0,0],[0.25,0],[0.5,0],[0.75,0],[1,0],[1,0.25],[1,0.5],[1,0.75],[1,1],[0.75,1],[0.5,1],[0.25,1],[0,1],[0,0.75],[0,0.5],[0,0.25]];outlineConnect=0;gradientColor=none;html=1;whiteSpace=wrap;fontSize=12;fontStyle=0;container=1;pointerEvents=0;collapsible=0;recursiveResize=0;shape=mxgraph.aws4.group;grIcon=mxgraph.aws4.group_aws_cloud;strokeColor=#232F3E;fillColor=none;verticalAlign=top;align=left;spacingLeft=30;fontColor=#232F3E;dashed=0;" parent="kgZVn9VdSYF8p0RM1xLM-1" vertex="1">
          <mxGeometry x="40" y="-1120" width="560" height="400" as="geometry" />
        </mxCell>
        <mxCell id="kgZVn9VdSYF8p0RM1xLM-3" value="API-Games" style="aspect=fixed;sketch=0;html=1;dashed=0;whitespace=wrap;verticalLabelPosition=bottom;verticalAlign=top;fillColor=#2875E2;strokeColor=#ffffff;points=[[0.005,0.63,0],[0.1,0.2,0],[0.9,0.2,0],[0.5,0,0],[0.995,0.63,0],[0.72,0.99,0],[0.5,1,0],[0.28,0.99,0]];shape=mxgraph.kubernetes.icon2;prIcon=pod" parent="kgZVn9VdSYF8p0RM1xLM-2" vertex="1">
          <mxGeometry x="38.33" y="160" width="83.33" height="80" as="geometry" />
        </mxCell>
        <mxCell id="kgZVn9VdSYF8p0RM1xLM-4" value="Game_DB" style="image;aspect=fixed;html=1;points=[];align=center;fontSize=12;image=img/lib/azure2/databases/Azure_Database_PostgreSQL_Server.svg;" parent="kgZVn9VdSYF8p0RM1xLM-2" vertex="1">
          <mxGeometry x="460" y="160" width="60" height="80" as="geometry" />
        </mxCell>
        <mxCell id="kgZVn9VdSYF8p0RM1xLM-5" value="&lt;b&gt;Base path:&lt;/b&gt;&lt;div&gt;/api/v1&lt;/div&gt;" style="text;html=1;align=left;verticalAlign=middle;whiteSpace=wrap;rounded=0;" parent="kgZVn9VdSYF8p0RM1xLM-2" vertex="1">
          <mxGeometry x="38.33" y="40" width="80" height="40" as="geometry" />
        </mxCell>
        <mxCell id="RuipHyToOthrCqzPbHTF-0" value="&lt;div style=&quot;text-align: justify;&quot;&gt;&lt;b style=&quot;text-align: left; color: rgb(0, 0, 0); background-color: rgb(251, 251, 251);&quot;&gt;Resource:&lt;/b&gt;&lt;/div&gt;&lt;div style=&quot;text-align: justify; forced-color-adjust: none; color: rgb(0, 0, 0); font-family: Helvetica; font-size: 12px; font-style: normal; font-variant-ligatures: normal; font-variant-caps: normal; font-weight: 400; letter-spacing: normal; orphans: 2; text-indent: 0px; text-transform: none; widows: 2; word-spacing: 0px; -webkit-text-stroke-width: 0px; white-space: normal; background-color: rgb(251, 251, 251); text-decoration-thickness: initial; text-decoration-style: initial; text-decoration-color: initial;&quot;&gt;/games&lt;/div&gt;&lt;div style=&quot;text-align: justify; forced-color-adjust: none; color: rgb(0, 0, 0); font-family: Helvetica; font-size: 12px; font-style: normal; font-variant-ligatures: normal; font-variant-caps: normal; font-weight: 400; letter-spacing: normal; orphans: 2; text-indent: 0px; text-transform: none; widows: 2; word-spacing: 0px; -webkit-text-stroke-width: 0px; white-space: normal; background-color: rgb(251, 251, 251); text-decoration-thickness: initial; text-decoration-style: initial; text-decoration-color: initial;&quot;&gt;&lt;br&gt;&lt;/div&gt;&lt;div style=&quot;forced-color-adjust: none; color: rgb(0, 0, 0); font-family: Helvetica; font-size: 12px; font-style: normal; font-variant-ligatures: normal; font-variant-caps: normal; font-weight: 400; letter-spacing: normal; orphans: 2; text-align: left; text-indent: 0px; text-transform: none; widows: 2; word-spacing: 0px; -webkit-text-stroke-width: 0px; white-space: normal; background-color: rgb(251, 251, 251); text-decoration-thickness: initial; text-decoration-style: initial; text-decoration-color: initial;&quot;&gt;&lt;div style=&quot;text-align: justify;&quot;&gt;&lt;b&gt;Resource:&lt;/b&gt;&lt;/div&gt;&lt;div style=&quot;text-align: justify;&quot;&gt;/games&lt;/div&gt;&lt;div style=&quot;text-align: justify;&quot;&gt;&lt;br&gt;&lt;/div&gt;&lt;div&gt;&lt;div style=&quot;text-align: justify;&quot;&gt;&lt;b&gt;Resource:&lt;/b&gt;&lt;/div&gt;&lt;div style=&quot;text-align: justify;&quot;&gt;/games?id_game=uuid&lt;/div&gt;&lt;/div&gt;&lt;div style=&quot;text-align: justify;&quot;&gt;&lt;br&gt;&lt;/div&gt;&lt;div&gt;&lt;div style=&quot;text-align: justify;&quot;&gt;&lt;b&gt;Resource:&lt;/b&gt;&lt;/div&gt;&lt;div style=&quot;text-align: justify;&quot;&gt;/games&lt;span style=&quot;background-color: transparent; color: light-dark(rgb(0, 0, 0), rgb(255, 255, 255));&quot;&gt;?id_game=uuid&lt;/span&gt;&lt;/div&gt;&lt;/div&gt;&lt;/div&gt;" style="rounded=1;whiteSpace=wrap;html=1;" vertex="1" parent="kgZVn9VdSYF8p0RM1xLM-2">
          <mxGeometry x="200" y="90" width="160" height="220" as="geometry" />
        </mxCell>
        <mxCell id="RuipHyToOthrCqzPbHTF-1" value="" style="endArrow=classic;startArrow=classic;html=1;rounded=0;exitX=1;exitY=0.5;exitDx=0;exitDy=0;entryX=-0.033;entryY=0.5;entryDx=0;entryDy=0;entryPerimeter=0;" edge="1" parent="kgZVn9VdSYF8p0RM1xLM-2" source="RuipHyToOthrCqzPbHTF-0" target="kgZVn9VdSYF8p0RM1xLM-4">
          <mxGeometry width="50" height="50" relative="1" as="geometry">
            <mxPoint x="390" y="380" as="sourcePoint" />
            <mxPoint x="440" y="330" as="targetPoint" />
          </mxGeometry>
        </mxCell>
        <mxCell id="RuipHyToOthrCqzPbHTF-2" value="" style="endArrow=classic;html=1;rounded=0;entryX=0;entryY=0.5;entryDx=0;entryDy=0;exitX=1.028;exitY=0.5;exitDx=0;exitDy=0;exitPerimeter=0;" edge="1" parent="kgZVn9VdSYF8p0RM1xLM-2" source="kgZVn9VdSYF8p0RM1xLM-3" target="RuipHyToOthrCqzPbHTF-0">
          <mxGeometry width="50" height="50" relative="1" as="geometry">
            <mxPoint x="130" y="330" as="sourcePoint" />
            <mxPoint x="180" y="280" as="targetPoint" />
          </mxGeometry>
        </mxCell>
        <mxCell id="9rXpiNrhPCntOtbCp0i--0" value="" style="shape=image;verticalLabelPosition=bottom;labelBackgroundColor=default;verticalAlign=top;aspect=fixed;imageAspect=0;image=data:image/png,iVBORw0KGgoAAAANSUhEUgAAAM4AAACXCAIAAADS/POsAAAAA3NCSVQICAjb4U/gAAAAGXRFWHRTb2Z0d2FyZQBnbm9tZS1zY3JlZW5zaG907wO/PgAAHIhJREFUeJztnXlcE0f/x79JCOEmhCuIHBEFy2E4RKwKHqjUA2+tFgUqSlHRH2o9qo/6VNvnUau09RYVaaHUilStF/gooECpciiXyH0TCHc4k5Dk98fSNHIkEXBFnfcfeW1mZuf73cknM7O7350lmJiYAALx5iG+bQcQHwpIagicQFJD4ASSGgInkNQQOIGkhsAJJDUETiCpIXACSQ2BE0hqCJz4gKTm5uYWGRkZGRl57ty5oa155syZvevU0dG5fPmyhobG0NrCExKJdPr0aSsrqyGpTUGeQvb29itWrDA1NW1paUlJSQkNDW1vbx8S8zJxc3Pz9fUFAKFQWF9fn5ycHB4e3tHRMYCqoqOjo6OjZ86cuWzZsqF2sw9WrVoVGxvL4XBwsDV4jh8//vjx45s3b0omCgSCyMhILy+vnTt3Dt6EbKk5Ojru2rXr9u3bly5dIpPJ48eP19bWxk1qACAUCgMCAohEIoPB8PHxUVVVPXHiBG7WBwaVSnV2dt66devbdmSwJCYm+vj4WFhY5ObmDrIqGVIjEAje3t6JiYkhISFYyosXL7ANIpHo5+dnY2NDo9GampoePnwYEREhEok+/fRTGxsbTU1NgUBw7969ZcuW1dXVHTx4EOuKmEymh4eHsbFxfX397du37927J4+XlZWVAFBeXm5gYODu7i7FOo1GCwoK2rt3r7hptmzZoqysfOTIESn1U6nU9evX29nZCYXC5OTkCxcuYP8lOp3u5eVlbm6upqZWVVV19erVpKQkbBdDQ8NNmzaNGjWqpKQkKyurR4Uff/wxm83G3BZDJpOvXLly/Pjx6dOnW1tbd3Z2njp1KjU1FQDmz58/b948KpVaXl7+888/iyu0srJav349nU7PyMhobm6m0WiHDh0CgJCQkIsXLyYkJGC2Nm7cuGbNGmyX/lpYXV3d19fXxsZGUVGxoqLi8uXLOTk5AHD69Gk6nQ4Apqamnp6eAHDkyJGnT59ie3G53IyMDGdn595SU1NTo1AoDQ0NIpFInh9RhtQMDAzodPrly5d7ZxGJRIFAcPr0aTabbWBgEBAQ0NzcHB0dDQDa2toHDx7csWOHm5vbvn379u3bN378+Pj4eGNj4927d4eEhDx//tzQ0HDz5s0cDicxMVEeRzG4XK6CggKBQOjPekNDQ3p6+tSpU7GmoVAoTk5OP/74o/RqN27cSKVS9+3bp6Cg4O/v7+Pjc/LkSQBQV1cvKiqKjIzkcDh2dnbbtm3bunVrRUUFAGzdurWpqWnHjh0mJiYbN27sMVBaWloWFhb2acvDwyMsLCwwMFBPT09BQQEA3NzcFixYcP78+YqKCjs7uz179gQEBLDZbCUlpZ07dyYkJBw9etTW1tbb2zszM1P6gUhp4VWrVunp6R04cKCjo8PMzIxI7J6mb9q0CfoZQDHy8/OdnZ17p/v6+k6ePNnT07OtrU26VxgyTgt0dHQAoL6+HgCsrKwiIiIiIiKwP1BXV9f58+ezsrLYbHZ6enpiYiKTycT2KioqYrFYBQUFeXl51dXVJSUlenp6ALB06dJHjx5FR0fX1NSkpaVFRUVNnz5dHi8BgEAgMBiMOXPmvHjxQiQSSbEeGxs7efJk7Fd0dHTk8XhYzyHlGB0cHC5fvlxYWJibmxseHu7i4qKsrAwA+fn5ERERBQUFbDY7Ojq6srISszJ69GgGg3Hp0qXy8vKEhARxVydGV1e3sbGxT3NY+Y6OjtLSUkyOK1asCA0NTU1NrampiYqKKigomDx5MgA4OTmRSKSQkJCqqqq7d+/m5+fLbCUpLaynp1dcXFxaWspms5OSkrKzs2XWhtHQ0ID9fINE9gAKAHw+HwAKCgq2b9++ZcsW8R9izpw5n3zyib6+PplMBoD09HQsncfjYZ9CoRDbUFRUBAATExMjI6NZs2aJ66+qqpLpIpFIjIiIIBAIBAIhOztbfK7Xn/UnT574+vra29s/ffp06tSp8fHxAoFASv36+voAUFZWhn0tKSkhEon6+volJSUUCsXDw8PJyUlLS4tEIgGAkpISANDpdD6fz2KxxLv0OE1TVFTEGqE3eXl5kl81NDSoVGpAQEBAQIA4ERt5DQwMqqurscbHPJT5k0tp4QcPHgQEBJiamubk5KSlpcnsIMWIf74eBAYGBgYGylkJyJRabW0tAGhra1dUVHC53LKyMi6Xi2U5OTmtWbMmMDAwMzOTy+WuXbvW2Ni4v3owyQJAWFjY9evX5fcPAIRC4fbt27EzUPG5pxTrfD4/MTFx6tSpL1++ZDKZv/76q/T6Md/6nHB4eHgwmczDhw+XlZUJBILjx4+LDwT7F2H0ljKHw1FTU+vTXJ9nVLt375an0xIj6a3YJYz+Wvivv/7asGGDra2tra3t/v37f/7551u3bsljS11dfUjOo2UMoCwWq6amxsnJqXeWhYVFTk5OSkoKJj4jIyOZxsrKyiwtLQfgZVlZWUVFheQ1DunWY2JiHBwc3NzcKisri4qKJLM6Ozt7/Eerq6sBQBz4bmpqKhKJ2Gw2AIwdOzYuLq64uFggECgqKmL9HwCwWCwKhaKpqYl9xabVkhQXF48cOVKeQ+NwOE1NTX02C4vFotPpWJ8NAJL/5Pb2dqx/BQBdXV1xuvQWbmxsjI2N/f7776OiohwdHSWz+Hw+1m33xsjIqEcbYmhoaOjp6fUQuhRkSE0kEoWGhs6ePdvDw8PMzIzJZOrr62N/qaqqKmNjY+wS5ZQpU+S50BcZGclkMlevXj1y5EgGg7Fw4cKFCxfK6WgPpFvPz8+vqalZvnx5XFxcjx0LCws1NDQmTZpEpVKxCVldXV1aWtrnn39uZmZmbm7+2WefJSQkYH1PZWWlpaUliUQikUienp4UCkVcSVFR0ZIlSwgEgoGBQe9Zc1pa2ujRo/scd3oTERGxfPlyV1dXOp0+duzYtWvXYjPCJ0+eCAQCb2/vESNGzJ07d8yYMeJdCgoKJk2aRCKRqFTqjBkzxOlSWnjlypUODg66urqjRo2ytrYuKSmR9KG6utrW1pZKpZLJ5B7qsbKySktL6+32unXrzp49q6KiIs8xgjzX1ZKSko4ePbps2TJ3d/fOzs6UlBTsPCUmJobBYAQGBgoEgtzc3AcPHowYMUJ6VaWlpd9+++3KlSvnz5/P5XKLiopu3Lghp6M9kGk9Li7Ow8MjPj6+x44sFiskJGTdunWampp37twJDg4GgDNnzvj6+h46dEgoFKalpV28eBErHBoaumHDhqCgIB6P9+jRI8mTyu+//97f3z84OLimpubx48c9Ov6srKyGhoYJEyZg1yOkExUVRSKRFi9e/MUXXzQ3N+fk5NTU1ABAZ2fn0aNH169f7+rqmpGRERcXp62tje0SHh6+devW4ODgysrKhISEBQsWYOlSWlgoFHp7e+vq6ra1tSUnJ//yyy+SPly9etXf3//s2bOKioqSFztMTEzodHrvZhwAhPf1iSkfH5+RI0d+/fXXb8sBFxeXuXPn7t69e6gq9PLyMjY2xq6r4Ya/v39TU1NYWNjgq5LrxtS7hbKysrGx8YwZM06fPv0W3YiPj6fRaBoaGu/KvaneEIlEFot19+7doalNejZVoVuLn+noZNjYRIwZ8yZShuRIxOzatevrr7+OjY3tfbkLT0Qi0Y0bN95dnQGAUCiMjIwc2B3n3sgYQDNsbFxycuZSqatotE0lJXOp1I36+kOe4v7qpSbEe4mMAfRMTc3jjz4CgPm5uWU83jk2GwCGPOUNHh9i2PDenhYghhsfUGgk4u2CpIbACSQ1BE4gqSFwAkkNgRNIagicQFJD4ASSGgInkNQQOIGkhsAJJDUETiCpIXACSQ2BE0hqCJxAUkPgBJIaAieQ1BA4gaSGwAkkNQROIKkhcAJJDYET8j7drkCC77bXuU7o6BIQ7D+Va40dBEISeaU2cVznwultC7cYZBfItboOAtEDeaWmry1oaiFm5iOdIQaIvHM1AkEkFMi7aBsC0Rt5pUZRFPG7kNQQA0cuqdE0hJ9Mbs8pJr9pbxDvMbKltnlVc9rVcstR/G8vaOHgEOJ9Ra7lYWiagpNf1XVyCT4HhmD9esSHiVwDaEMz6V6CiuUo/pv2BvEeI+9pQSeXQFaQ61VCCESfyCs1gYBAJCGpIQaOvFKrrCVR1YU2Y3hEdMUDMSDkXTWSQIBj2+tmTezoEoL9CtkvXkEgeoAWKEXgBAoiQuAEkhoCJ2RIjcFg4OMH4r0H9WoInEBSQ+AEkhoCJ4aR1Hb+kWHCnPiRy5wt4bLfoTmcrbvbW3yzwhUAfvSaO8Nq1FB4985Yl8Iwkhri/Wa4vw/UcZGn4yKvrIc3Hdw9iArkJ5HBCb+cAgACkTRv27cMu0nqOvS2xrpnd3+LDz0pEglNmBOX7j9V9TLdwNwmPuyU/byVKppaV/b6VBe8AACaocnsjftNbSdy21pfJkQ9OH+Yz5X9BkIKhaKmpsbhcPj8gce2GOto/ug59+yD5IUOY7VUlVKLWSej/+J1CQDAztRgmZOViY6mAomUV1UX/CitpLYJAL5Z4drayfvIUDe/uj6/un6+ncWfeWVnHyQDgBJZwcvFdpK5sQKRmFNZGxSTwua0Ddg3fBhGvVojq6yL18nraG+qrpBMpxmaiETCH1ZOijzkP/3zbbomYwCASCSKBIJb3+064zXj1rFdjou87OevwsqrUrUTws/kP4mZvfFft77bWZaZ7LBgDQAoKFI8joY111Re8HO/sm+dgfm4WRv2yrQOANOmTQsKCrKzs5PzQNq4/PrWDgCo47S3815RpwNjxPawqM0hd6xG6k637L6QRFVRintRvOe3B9tC71U3t/5r0VTS33eaBULRv6/F2prQddVVD/4eN2vcaJqaMgBsmu1kpK35zfVHO8KjG9s79ixyEe8ixfrbZRj1ahe+mI9tFCY/kkznc7mJv54VCQUlz/5srmUZmFvXluYLuvh3vu8WSlN1xYu4W6PGO6fe+gUAOjiNFdmpWgZGxjYTWPlZ5Vkp5pNmAcC42UsFXfx7Jw+ASAQADy8c+ey/l+/+uA/72p/1ARCTXRSTXQQAh67H9ciKfPqik9/Vye96Xlo9hq4dnVEAALEvisUFwhLSZ9mYGWlrYh1bdgW7uLaxltOeXladX13f2snV01BVJpMnWxivD7qBSSroYUq4/3IzfVoeq1669bfLMJJaf7Q2sIUCAbbNa29VUqdi246LPMcvXEOlGykoUgCgKLV7Ot/F42KfXdxObINMUQIA/VFjtUcy9j0okqxcTUuntaFWugPR0dHR0dFDcix1Ld3DXCevC+ufAIBOVfNytv3IUFdDRQnrmpTI3b8LXyAAAJ5AgA21vC6hogLJRJdKALjou0iyZj0NNUxqw5Z3QGoioVDyK4FAAICxU9xcfXf/fmhzcdqffG6H26b9uqbmMqsqTH4Uvtv7DfkpD0LRPzF/hL/DsXa5O7OaWnaE369raVdRJIdtWkog9BuqRQACAPC6BCtPXH234geH0VzttRhp5VCWkZyX9BCb18ujM3ZxrsEYGzJF+XVtKSsr6+npUSiUgTgqCyWygqku9UbKy1pOm0gkMtLWlLlLaV2TogLJjE4bgDlNTU0trbfzONK7KrX68kK9URYqVBoAWE13N2FOlLlL+v1IPrdj2YHTI8YytY1GjZu1eP6Xh+Wx5eLicvbsWSaTOVin+6KT31Xf0j7OWB8A1JQUV08ZJ3OXygbOn3llW+dMsjM10NdUs2cY7FrgrKIo16OT+/fvP3bs2GCdHhDvwADaJ8+jrtFHW30RdE8oFJRnpz67e4VmaCp9ly5uZ9gOj5lf7F39XRiRSKwrL0qPisDFWRkcu5Po6zp+DnNMO48f8STbaqTsx9JORj9Z48zc4jZRVUmxjtP2rJTF+3s6Kx0VFZW6urpBuzwQZIRGMhiM4uJiKQUQ7xA6Ojrnz58/cuTI06dP8bf+rg6giAFgbW1dXFycnJz8VqyjXg2BE6hXQ+AEkhoCJ5DUEDiBpIbACSQ1BE4Md6k5LV3rd2lobnXLid3cT3EOA/5qobPvjPF4WpxlYxa0bgGeFmFYSe3tBnz3h9PStZ6BVwDA71I0023ZYKpi6Gpd37YKAHxnjN/yiew7abiBT4z4MJIa4v3m3bgH6rp+l8OC1V08btJv55OuXsASFRQpX917GXnInzl7qantx7zOjj+Ofpn/V4yZ49QpHpv0GBYkMrnyxbP7Zw7VFL0EAD2G+RcXo+98v2fi8vXqNL38p7F/HN2BxbTpGJu5f3nEwNympjCn5HmS/I5paWkJhcLm5uZBHqAKhfzVQhc7E3ptS3tQTEp6aTWWTlYgXd2y4tjtxOlWDBsj/U5+14nov1KLqvqLEZ9raz7XbszjnNJPmKNJROKttNxrT7KxqgxpGv6zncz0aSW1jZnlNYN0eAAMo16tv5BrHWMzDb0RwZsWPww6PGPdLob9ZMncGT47nkdFHF82PuzLz7AgRzUtnYz7kT8FLL/gO6+hqmzlfy4TSSRx+TFOMy76zT/z+UwTmwnM2UuxxMV7T3DbWy/4uf917ZLjIk/J+jtbOS111QDQzK7itrf28PnYsWP79++X8wD5AkF1UysANHd0NrV1SmY5jzXJqazdGhqVWly1y32KmtIr74dYPYUZk13kfe76gWsx2I5SYsQNqOoikWhd0M1jtxM/mzxOHJW0fd6kDh7/y7CoP1Jz59q+EnOFT4z4MOrV+gu5FglFUScOdLQ01ZUVWEyebT9vVXFaojg3K+ZWzuN7AIB1XQCQfj9SnBt76aj9vJW6JmPEuQnhZ3gd7byO9qLUhBEW41Jv/TLCYhx9tOVpz+kNlSW1JXlmE6aaSoQkpUdfS4++BgC/fvX5IA+wooGzIfgWAPyWlNUjq5jdeCMlBwB+evx86kemUyxMotLzxbnxuaV/5pUDANZ1gdQYcV6X4PfkF0KRKLO8pq6l3Uxfq7y+eTSdxtDV2nj7Nquxpay+2Z5hYC0RP4JPjPgwklp/cOqqO1q6m7i2JNfMcapkbmXOsx7ltUaYzPTdbWTjqKpJw0Jdycqq/9TGrsI2eB2t6jp0AKAZmgr4vIbKEiydXfjSVI7oNwwfH5/XPZw+Ka3rPkCBUFjZyKFT1SRzc1k9w36kxIg3tnYIhN3xuR08vpoSBQAMqOp8gZDV2IKll9Q2WcsRqjS0vANS68mrYc6drZwe+cu/PtdQUXxp40IOm0VRVdtxM10yflokkgwfJwCASCQSCrrESQLB23/KSPTqMbZze7okJUZc+GoDEf6uUCARNy94NYYeH4bRXK0/NHToSurdEw5dU4uGqhIphclKKvqjxiZdvdBcUykSCeUJBG+oKiErqahStbGvtBGm8vumo6NDow0k8LoHJjrdz+aQiERDLY3qphYphQcQI17d1KJEVtBUUcK+GlDV5XSMQCBoa2urqanJLiqLd0BqBCJhzuavdYzNmG7LxkyckXbnipTC/M52Tm01duqgrE6d4bNDZv2s3ExWftbkzzYSCESaoam160L5fTty5MjevXtll5MFQ09rocPYEVrqXi62CiRiQm6ZlMIDiBEvqGkoYjcunWBJIBAMtNSdx8q7VKiKikpQUJCvr6+c5aXwDgygdWWFLXU1Pqdv8nmdD4MOlzz7U3r5yEP+c7YcHL9wNbetJSHstPG4CTJNXP9my4Kd322LTGmsKs18cH3sFLch8l1eHueU2hjpe0xhsjmtR/9IaOPypJcfQIz48TuJm90mhvgtrm5qfZRTMnG0XC91VVFRAYAhiRFHoZEIaUybNs3Pz2/Dhg2NjY2DrOodGEARbxFra+v79+8PXmeAejUEbqBeDYETSGoInEBSQ+AEkhoCJ5DUEDiBpCYbBUXKvofFhh/1u2ok/jHiA2aNM3P/kmlSClz0XfSGAnGHkdSGZ8A3AAiFgvT7ke3NDXKWH84x4oU1jeK4S5ytvwM3pt46wq6uP458+ba9GBr+zJN2d/WNMtylhq3wfcbbFfvqdyn62d3fnkQGA4DBGGs3/wP00ZYCPp+Vn3X92/9ra+peodNp6doJS7zVtHRrS/MfnP+vOIa7vxhxKQ7se9h9BTvYf4lkbNzAYsRJJBKVSu3o6Ghvb3+dZujJzxuXBD1MTcgtBYBJ5kabZjl5nL4Gfwd8+1++gxX70Wvug8zCW2m5ALDyY5tPP7YGgGclrIO/x0nWtmKi9Tw7cxKRcCPl5WC8ks4wkpqUNbb7ZNGeH8qzU278d6uCIoVhP5lI6j4WB3ePicvX3/1hb11pgdmEqSv/c+nc2tmSdc7w2fHwwpHIbzZr0Y2ICjJWwDvkysAE2iN98d4TbY21F/zc9RgW7l8ebm/+59aNlBhxOp1+4sSJO3fuBAcHy3OMkjHinfxB/VhXkjKvJGWucWYydF9ZNXLi6JHLnKxORf9VUtvk6Wyrpar0JqzDsJLa666xTaWPjA89gWmorqxQnO7i+X//O/ct1lel3Ay1nDrPctr8P6+cExfoHSP+ugyHGPGhYqaNWVJ++eOXpQAQFJNyXuL50KG1Poyk9rok3/h5wa5jNrMWV7549uLR3bqyAgBQodLUaLqL9/yweM8P4pL15YWSO/aOEX9dBhwjXllZuXTp0kFaH1oMqOrYgwUAwOa0dXwIj7H0SY/QZwLxn1PmB+f/kx59bZTDlLFT3Kas9v8pYEVlznMsK9h/sXi7N71jxF/fq7ccIy7ZLASQCGd/Ndqb2P9K4ZK7vBoL/qbWDR9GFzv6hNvKUVRWwbYJRJK6tr5kbm1J3pPI4J+2flpfXjR6wjQAaG9qaGuskycccjAMOEacRCLp6ekNPn66jctTVuzuJnQ1VCTS+Urk7tknkUCgqcpezry6sVVfs9sfNSVF1VefCxxChrvUqvIy1LX1TZhOQCBMWOItlp0CRekT/38bWY9X16GPdpquZWCEvUUKAB6HnnBZvcVuzqdaI0yMrMe7bdo/ymHK0Ho14BhxOp1+9uzZFStWDNKBguqGSebGJCKRqqrkam0mTi+sbqCpKVuN1CMAzLc3V1KUPWrdzyyYbGFsoKVOIBCWO1nL7gYHynAfQOvLi2KDjy87cJbP7UiPihBP/0UCgSpNd8m/TqpSaZy66riQH3IT72NZKTdDiSTSpFV+cwO+aWuuL8tMbmSVD8y66/pdk1b6YdtrT/0OAIXJj8N3e8HbjhH/JTFj29xJIX6LKxo48S9LFzqMxdIrGznhiRk73adwuwQxWUUVDd1TBewpefHu2IXZXb/+L49V97Sw8o/U3MMrZ3Xw+Am5ZQ2tst/vNjBQaCQCJ4b7AIp4b0BSQ+DEcJ+rvWlohiaOi7z6zEr89azMl+oh5AfN1RA4IUNqCMRQgeZqCJxAUkPghGyp+a9qzrtVdu8Ma5y5jIUkEAgpyJbaqV81HVaOZDeQ/JYPdsVXxIeMXANoSxsxJZuiry3Xy00RiD6Rd67WJQQSmtchBoG88uHzCRTFNxXJhPgQkFdqL4sVRxvzHSy5qG9DDAx5hZPwTOn2Y5XIwOqUKwMMyEF84Mh7D9TZvnO+S/vSbfTnLylv1CHE+4q8UrMw5RWUkVNfIJ0hBoi8AyiZLOLy3lwwMOL9R16pkYjAR5fVEINALqmpqQjHW3Kr2B96cBtiMMiW2uZVzc+uVuhrC85FaODgEOJ9BcWrIXACXZBF4ASSGgInkNQQOIGkhsAJJDUETiCpIXACSQ2BE0hqCJxAUkPgBJIaAieQ1BA4gaSGwIn/B2oN+MJ+9CxcAAAAAElFTkSuQmCC;" parent="kgZVn9VdSYF8p0RM1xLM-1" vertex="1">
          <mxGeometry x="640" y="-1120" width="206" height="151" as="geometry" />
        </mxCell>
        <mxCell id="9rXpiNrhPCntOtbCp0i--1" value="" style="shape=image;verticalLabelPosition=bottom;labelBackgroundColor=default;verticalAlign=top;aspect=fixed;imageAspect=0;image=data:image/png,iVBORw0KGgoAAAANSUhEUgAAAW4AAAG3CAIAAAAb8Sg/AAAAA3NCSVQICAjb4U/gAAAAGXRFWHRTb2Z0d2FyZQBnbm9tZS1zY3JlZW5zaG907wO/PgAAIABJREFUeJzs3XdAU1cXAPCThBAIKxBGQCCACMiQIYgDwW0VFa2gWFfdddY6qq1Va7WD1qr9XC2uundpHSAWRBQnLpQhG9kzbLKT74+naaoSUglE4Pz+aB/3vfvuebSc3PuSd0Jis9mAEEKtQ1Z3AAihzgBTCUJIBTCVIIRUAFMJQkgFMJUghFQAUwlCSAUwlSCEVABTCUJIBTCVIIRUAFMJQkgFukQqGTly5Pnz58+fP//rr7+q9szDhg1785zGxsaHDh3S19dX7VjvicGDB3/zzTfqjgK9dzQU7/by8po0aZKNjU19ff2DBw+OHj3a1NTUPpGNHDly/vz5ACCRSKqqqhITE0+cOMHlct/hVNHR0dHR0cOGDQsODlZ1mG8xZcqUuLi4urq6dhir/cXHx4eEhHh7ez948EDdsaD3iKJU4uPjs2bNmkuXLh04cIBKpXp7ezOZzHZLJQAgkUiWL19OJpNtbW3nzJmjo6Pzv//9r91GfzcMBmPgwIGfffaZugNpKxKJJC4ubvTo0ZhKkLxmUwmJRPr4449v3br1+++/Ey2pqanEBplM/uSTT9zc3IyMjGpqamJjY8+ePSuVSidPnuzm5mZgYCAWi6OiooKDgysrK7/55htiKuHu7j516lRra+uqqqpLly5FRUUpE19RUREAFBQUmJubjx07VsHoRkZG4eHh69atS09PJ/ouW7ZMW1s7LCxMwfkZDMa8efM8PT0lEkliYuK+ffuIXMlisWbOnOng4KCrq1tcXHzmzJk7d+4QXbp167Z48WI7O7u8vLzk5OTXTtivX7/y8nIibBkqlXrq1Kmff/558ODBrq6uPB5v165dDx8+BIAxY8YEBgYyGIyCgoIjR47ITmhnZzd79mw7OzuhUJiTk7Njx47a2loAOHHixKVLl3x9fY2MjLKzs3fu3FlVVUV0GTRoUEhIiLGxcVlZ2fHjx+/du0e0//7775GRkR4eHtbW1oWFhdu3by8rKyN2+fn5hYSEmJmZNTQ0PHjwQLZYY7FYs2fPdnV1bWpqunv37tGjR/l8vuxyEhMTJ0+erK+v/9rMi0KhMBgMLpfbnq836D3R7L0Sc3NzFot18+bNt/Qhk8Vi8e7du5cuXbpnz55Ro0aNGDGC2MVkMr/77juJRDJy5Mj169fr6+t7e3sDgLW19dq1a2NjYz/99NMDBw5MmjRpwIAB/ylQPp+voaFBIpGaG53D4SQlJQUEBBDH02g0X1/fuLg4xaddtGiRiYnJ+vXrN2/ebG9vP2fOHKJdT08vJyfn+++/X7p06ZUrV1asWGFpaUns+uyzz5qamlavXn3p0qXRo0e/dkJnZ+fs7Oy3jjV16tRr167Nnj3766+/rqmpAYCRI0eOGzdu//79y5cvv3bt2pdffmlqakocvHz58uLi4uXLl3/55Zf379+nUCiy8wQEBGzevHnWrFn19fWLFy8mGu3t7ZcsWRIZGfnZZ5/dvHlz5cqV5ubm8l127Ngxa9aspqamqVOnEo1GRkbLli27fPnyokWLvvvuu9LSUqKdSqVu3LixoqJi1apV33//vb29/cyZM+UvJD8/XyAQODs7v3aBLBYrPDw8NDRU8e8cdUrNphJjY2MAIF7xXFxczp49e/bs2enTpwOASCT67bffkpOTy8vLk5KSbt265e7uTvTKyckpKSnJysrKyMgoLS3Ny8sj/jYmTpwYHx8fHR1dVlb26NGjK1euDB48WMkQSSSSra3tqFGjUlNTpVKpgtHj4uIGDBigoaEBAD4+PgKBgHjlV3CNvXv3PnToUHZ2dnp6+okTJ/z9/bW1tQEgMzPz7NmzWVlZ5eXl0dHRRUVFxCj29va2trYHDhwoKChISEiQTVVkTExMqqur3zoccTyXy33x4gWRbiZNmnT06NGHDx+WlZVduXIlKytLlmFNTU2fPn1KTHCioqI4HI7sPDExMZWVlSKR6Ny5c+7u7sRveMSIEcnJyZcvXy4uLj579mxRUdHw4cPlu5SXlwuFwoSEBHt7e6KRyWRSKJTExEQOh5OTk/Pnn38S7YMHDxaJRPv37y8uLs7Ozj569OjgwYNJJJLsbBKJpLa2Vpb1EALFCxwAEAqFAJCVlbVy5cply5aRyS9Tz6hRoz744AMzMzMqlQoASUlJRLtAICD+KZFIiA1NTU0AYLPZVlZW8v9zFxcXtxgcmUw+e/YsiUQikUgpKSmy6Xdzo9+7d2/+/PleXl73798PCAi4efOmWCxWcH4zMzMAyM/PJ37My8sjk8lmZmZ5eXk0Gm3q1Km+vr6GhobEjEBLSwsAWCyWUCgsKSmRdXFxcZE/p6amJvFLeFNGRob8j/r6+gwGY/ny5cuXL5c1ylZGkZGRS5cuDQgIyMjIuHPnTmFhoewY2ejEBovFKi8vZ7FYeXl5smNevHghPyuprKwkNrhcrq6uLrGdk5OTnp6+Y8eOJ0+eZGRk3Lx5k1iwsNlsCwuLc+fOyUdrYGBAzKQIsv+y8oqKiiZOnPjWa0edXrOppKKiAgCYTGZhYSGfz8/Pz5etln19fadPn75t27Znz57x+fzZs2dbW1s3dx7Zq9mxY8ciIiL+U3ASiWTlypXEOziy924UjC4UCm/duhUQEPD8+XN3d/eTJ08qPj8Rm1QqfXPX1KlT3d3df/jhh/z8fLFY/PPPP8suhMiShDdTVV1dnexv9TVvvYOwdu3azMzMN9uPHDkSFxfn7u7u6+sbHBz81VdfyQ6TLXbkVz0kEumtF0KQ3yW7ELFY/NVXX/Xs2dPFxWX06NFBQUGffvop8Xt+/Pjxli1bmjsbAOjq6nbWt6jQu2l2gVNSUlJWVubr6/vmLkdHx7S0tAcPHhDJxcrKqsVh8vPz31xaKyM/P7+wsFD+PWDFo1+7dq13794jR44sKirKycmR38Xj8V57ISXuDshKUtrY2Eil0vLycgBwcnK6fv16bm6uWCzW1NQk5i8AUFJSQqPRDAwMiB9ZLNZrAefm5sruqihWV1dXU1Oj4NdSUFBw6dKl9evXFxUVeXl5ydplARMbxFWUlpbK19Zks9myex8KSCSSlJSUM2fOrF27lslk2tnZAUB+fn737t1pNFpzvYj51Gu/XgCgUCimpqbNZVLUuTWbSqRS6dGjR0eMGDF16tTu3bu7u7ubmZkRL27FxcXW1tbER7D8/Pxem+G/1fnz593d3adNm2ZpaWlraxsUFBQUFPRuESsePTMzs6ysLCQk5Pr16691zM7O1tfX79+/P4PBIG6IVFZWPnr0aNasWd27d3dwcPjoo48SEhKIuUNRUZGzszOFQqFQKDNmzJD9XWVnZ+fk5Hz44YckEsnc3HzgwIGvjfLo0SN7e/s3J/9vdfbs2ZCQkKFDh7JYLCcnp9mzZxN3ZDQ1NefMmePk5GRkZOTl5cVisXJzc2W9hg4d6u3tzWazZ8yY8ezZMyL3Xb161dXVNTAw0NzcPCQkxMrKKiYmRvHoPXr0mDBhgo2NDZPJHDJkiFAoJFadcXFxfD5/1apVPXr0sLCwCAgIWLRokXxHZ2fn2traN1MJi8Xau3fvpEmTlLl21Mko+lzJnTt3fvzxx+Dg4LFjx/J4vAcPHvz1118AcO3aNVtb223btonF4vT09JiYGAsLC8XDvHjx4ttvvw0NDR0zZgyfz5e/yfdftTj69evXp06d+uZ7TyUlJb///vvcuXMNDAwuX7588OBBANizZ8/8+fM3b94skUgePXq0f/9+4uCjR48uXLgwPDxcIBDEx8fLvymzffv2JUuWHDx4sKys7MaNG69N3JKTkzkcTp8+fRISElq8litXrlAolAkTJixYsKC2tjYtLY14m1YikTAYjBUrVujr63M4nFOnTt2/f1/WKyoqatq0aebm5mlpabt27SIaMzMz9+zZExwcPHPmzLKysm3btr32hvSbuFxur169goKCaDRaQUFBWFgYccNYIBB8/fXXM2fO3LhxI5lMLioqunbtmnxHf3//a9euyS/0ECJ1vorzc+bMsbS03LRpk7oC8Pf3Hz169Nq1a9vi5CdOnNixY4d8ZmlnLBYrLCxs2bJlxOdcECJ0qmdwtLW1HR0dhwwZ8vfff6sxjJs3b969e7ezPoPDZDJ37dqFeQS9poVncDqWNWvWODk5xcTEvPlxj/YklUrfefn2/ktJSVF3COh91AkXOAih9tepFjgIIXXBVIIQUgFMJQghFcBUghBSAUwlCCEVwFSCEFIBTCUIIRXAVIIQUgFMJQghFcBUghBSAUwlCCEVwFSCEFIBTCUIIRXAVIIQUgFMJQghFcBUghBSAUwlCCEVwFSCEFIBTCUIIRXAVIIQUoFmK84vXLjwre2///57W8WCEOqwFH15xf4T+19rmfvR3LYMBiHUUbXwPTg8Hu+1FvlvAkcIIULLX6mlQYGfl3GG+fCEIth/ve0jQgh1QC3fdu3nyh8f0BS63thrZgvfMY4Q6rJanpWYGYlr6snPsjXbIRqEUAfV8qyERJZKJKR2CAUh1HG1nEq0qCAQtUMkCKEOrIVUYqQvGdWPm5ZHbZ9oEEIdlKJUsuhDTtLR4p62gi2HGO0WEEKoI1KUSvb8YeQxw+J5HnXdxzXtFhBCqCNqYYFTVUuOvKPtbCtsn2gQQh1Uy7ddeQKSZstvGSOEurSWU4lYTCKTpe0QCkKo42o5lRRVUBh6ErfuAjJ+uAQh1IyWU8n9VNof1+mnNlc+PlLcDgEhhDqilu+CSKXw2Q4jYnvJ7DYOByHUMbWQSrS0tF5r0dbWbrNgEEIdlaJUgoWOEEJKajaVlJaWRkREtGcoCKGOC8tEI4RUAFMJQkgFMJW0E/9ufn9PiPp7QtSiXgvUHQtCqvdepJLPLzxlu/ft6T9q2YkEdcfyD9+Js2dsOwUAnxyIdh8Z3PoT1gnqhkeM2vP0t9afCqH3zXuRShBCHd17/aCe30eL+4bMIZHIt0//5jN+RtzBn5Oiz5HIlMAV39p69tczZjVWVz6OPH3z6E6pVMJ27ztxw67i50nmDm43j+3yCgylGxieWjenNCsVAIy6sUcs2mDj0Zff2PA84UrMbz8I+VwA0NY3HP3pZluv/hqatMr87Kt7Nuc/S1QmNkNDQ4lEUltb27a/AoQ6iPdiVlJdki8S8ATcpprSQlljj75D/Gd++vfebw8tC+7W01PH0IRoJ5PJUrH44k9r9swccnHrGp/xM73GTCF26TCYCSf2ZN67NmLRVxd/+jz/WWLvcdMBQEOTNvXHY7VlRfs+GXtq/Vxzh17DF64jugyevZJhbnVkxZRf54y8dXIviUyRBcBrqKuvLAWA2vJiflPDazFv3bp1w4YNbfYrQaiDeS9mJfsWjCE2shPjZY29x05NuxGVdPU8AFzZudFxwHCiXSwSXt7+MhHUlBamXr9o5z3w4cXjAMCtqy5MeWhobmXt1qckM7kg+YFD/+EA0GvERLFIGLVzI0ilABC7L+yj7w9F/rIepFIGy7I0M6U8N504m3xUSdHnkqLPAcDJL2a18S8AoQ7vvUglb2XUzYb4SwaAuooSfmO9bJfP+BneQdMZLCsNTRoA5Dx8ebNWJOAT/xTxecQGlaYFAGZ2TkxL2/UxOfLn1zU0buBUPLp86sN1v5h171mQnJh1Pz730S0lw5szZ05rrxChTuT9TSVAIkmlb6mT4uQ3cuj8tX9sXpr76LaQzx25eIOJjUOLJ8tOjD+x9uM325/fvPK/qQO7e/t39/GfGnb479++v3fuQOtjR6ireS/ulbwVpzDXrHtPYlvfxJymo0dsW7r0zn+amHEnlrhvqkweKc9NN+/hRqW9/UHEhqrypOhzf2xZ9uCvY479hysZnrGxsZGRkZIHI9Tpvb+p5OHF4z39R7kNHW/UzWbEovVi0cv6slUF2aZ2jnSGEQC4DB7Ldu/b4qmSrp4X8rnBG3dbOLkzrex6DZ8wZtUPxK6Ajz/r0XeIgVk38x6ubI9+ZdmpSoYXFha2bt26d7oyhDqh93eBk3n32o0j/xu5dCOJRL51cq+VS2+xUAAAT66cY9m7LAiPkkjEBSkPH0eeMupmo/hUIj7v2Oqpwxasm/bTMTKZXFmQk3TlLLFLKpEM/2SdgVk3fmN9+q2/rx3Y2tbXhVCnRGKz2W/dMWHChPfnyWCKBnXt5dTDK0ILUx6qO5Z35N/N71OPpRMvT1Z3IAi1ifd3gUOhavpMmGlgaqGtxxg8e1VNWWHx8yfqDurdSaRSHapOZNCF+a5YBQZ1Qu/vAgcAXAaNGTx7FQAUpT05tW6ORCxWd0TvLqH41gd/jlF3FAi1lfc3lYiFgt8/DVF3FAghpby/CxyEUAei5lRia2ur3gAQQiqBsxKEkApgKkEIqUDXSiUSOz/+4hje+ixxn5nqjgWhTuX9fQenLYgGLSeXpVH3jQNBk7pjQahT6VqzEqmeGTk/EfMIQirXtVIJkMgg6cCfc0PovdXFUokGDcRCdQeBUCfUZe6VkDUk9v5SHSapPF3doSDUCXWVVML7Kh3IFMq9Q+SiJHXHglAn1FUWOFpbHDVPzhX3+Vhi0UvdsSDUCXWVVAISETk9htTEkZo5qTsUhDqhLpNKCEIeUKjqDgKhTqiLpRKJCOS+NAshpCpdK5WQaosl1j6gSVd3IAh1Nl0rlWjE75CY9eSteYrP4CCkWl3lzWACOe8ebfcwdUeBUCfUtWYlCKE2gqkEIaQCnT+VYM1HhNpB508lCKF2gKkEIaQCmEoQQiqAqUSVfCfOnrHtFAB8ciDafWRwxx3d1sQwYsUUAJg/xHvZB31VE99/cXxxsKuVaX8Hq/C549p/dPQOMJUghFSga31ETS1MbR0W7I++vP3LviHz9IxMM+/HXfhxtYjPA4DuPgF+Uxeb2jpSqNSi1MdX92wuy3kOADO2neI11Fq5eBenJxU9T+rz4cdp8VGXt38JAFQt+vAFX/QMCKRoaOQ/S7yyc2NNaaEyYRgaGkokktra2tZcy+dj/QQiMYVM9rIxr+fxf4t98DivBADIJNLC4T5uVmZMXXpNEy8mOfvM3RSpVOpqZboqcEBWKae7mdGZe8kj3Oz1tGnfRsTnVlQDgAebNc3P3ZppUNnQdOlRRuSTjNbEhtQLZyWqxGuoq68sBYDa8mJ+U4P8rh6+Q/Z/MmbPrGFstz7uIyYSjbqGxk+vnj+8PGTf/EBOcX7od4fIlJdPG0rE4uNrptv1HmhganFi7cdegaF6TDMAGLs6zMTG4eSXsw4sCmqorpi8Zb+si4LRAWDr1q0bNmxQ8kKEYnFpTQMA1HJ5NY08+V39HaxjnmVP23P+emrekhG+ZBIJAMhkklgi3X31/uJDl3ZfvTfaw2GEW3fieAO61rn7KQ9yi2YHeO2MvptWVD7KowcAWBsbfBHk//ez7KWHI/fHPZzcz9XP0Vo2Smltg0Ak5gpE5XWNSsaM1AtnJaqUFH0uKfocAJz8YtZruxJO7BFwmwTcppyHCRaOvR5ePA4ASVfPyw6IO/CjV2CoCbsHMTF5kXS3NCu1trwo99Gt4udJ3PoaA5alJl3HJSBwR2h/ImVE/bJhzaVkcwe3orQnikf/rwo5dQsPXgSA03eSX9uVXFCWlF8KAHGpuZP7uRrpalfWN4nEkl9jEokDyusab6Xne9iYRz/NAoB6Hv95caWZga5zN9Oc8uq0oso+3bsBQIivS3xaHnFMWW1D1JPMIS52Cen5xElWHrtCbBCzHvT+w1TSTurKi4kNAbdBz5hFbBtasIfNX2vl5qNjYAQkEgBQtXWIXSIBn/inkM8jNqg0LX07JyCRlp++I39mBsuKSCWKzZkzRyUXUln/8qs/uAIhAOhqaRItoz0cRnn0MNPXoWpQACDpRSlxmEAkAQChWCwQiYkNTQ0KALCNGVZMg+GvJi8AUFRdp5IIkVpgKmknUqlE7icS8a+QTb9yCnMPLAqqKy+h6eiu/iuJRCIpPo+Iz/s+0Bmk0jaLtAWSfw9NAhIA9LW3nOHv8fOlW0/zS/ki8ZxBXtbGjGZP8eoSj95M+iMxtQ1jRe0I75WoDVWLbmbndOfMvtqyIqlUYmLj0GKX8tx0DZqWhYPbOwxnbGxsZGT0Dh2V4WhhklpYnphTxBeJAcDK2KDFLi8qa50tTd5hLCqVymQyaTTaO/RFbQdTidoIeU11FaW2XgMAQFuPMWTO6ha7VOZnp8ZHjv9yR3efAENza/s+g0I2/Uqj6yozXFhY2Lp161obdDOKq+vYxgx9bRoA+DmyXS3NWuxy/n6KB9t8up+7FdPA1sRwvLfTeG+lyu56enqGh4cPGjSolTEj1cIFjjqd37xk1LJvvIOm8RvrE47ttu7Vp8UuF39aPWTumnGf/6StZ1BbXpydeIO4q6Jesck5tqaGO2aMEkukz4srY5KzzRl6irvkVdRsibg+pb/bWC9HvkicXc6JSExTZiw6nQ4AFRUVKogbqQ6JzWa/dceECRMiIiLaenhbW9vc3NyOPgRqT4sXL7a1tV29erVUfTeM0JtwgYM6GFdX1zNnzmAeed/gAgd1MAsXLlR3COgtcFaCEFIBTCUIIRXAVIIQUgFMJQghFcBUghBSAUwlbY5l77w+NpduYNiegy4/fac9y7gRVdeIT7u2m/3zxw9xsWvPEZECmEpUSb0FGRX4/MJTtnvfnv6jlp1IaOWpvggaGNrPTV+bFrFiiqm+jkrCaz21V5BEmEoQQiqAH1FrJ86Dxg6YslBbTz81PjJyx1eyB2eGzltj7uCWGn/Zb+oSXUPj/GeJx1ZPI5EpgSu+tfXsr2fMaqyufBx5+ubRnUSZglURj+5HHO7u429q41jxIjPi20+rS16WCxo4fWmfCbPIFMqdM/uUD4xGo+nq6tbV1QmFwlZe4wBH64k+zjpamrcz8n+NfSAUiYn26QPd7c2YtzLyg31dGHSttKKKjeeusRi6swI8HcyNdWmaxdX1p+8+u51RQBx/ZNGHlx9neNqYWzMNCqrqtkXeLqt9WRRuUl/XQE8HCpn054PnrYwWqRamElVSUBLRKzD0zIb5mtr0Cet+GThtSdzBn2W7TO2cBNzGI59N5jXUEQ8Kk8lkqVh88ac1NaUFRpa2E778pbG6kii8BgBuwyYc/3x6A6d88pb9g+eu/mPzUgBw8hs5cOqSCz99XpadNnTeGl2jfz2/X12SLxLwBNymNwvBDho0aP78+WFhYffv31fmGqsbefU8vkQqLa1pEEvki7DACDf77y/c1KJqrBjdf5Kvy/FbT2W72MYGXIH5V6djGvlCd7YZAOhp0bLLqs/eS6nnCjzYrJWBAwqqogqqXpaeDehps+n8dU4jd12Q/zQ/958v3wKAvvaWwb4uu6Lv5lXUzBjoYaijJTu/fAVJnhD/r1YD/KWrkoKSiHEHt5ZkPAOAO6fDB3y0SD6VUGnaf4Wt4jfWA0DajSgAEIuEl7e/LAhQU1qYev2infdAWSp5EnW6prQAAFKuXfCbtoRo9Bw9Oe1GVHLsXwBwZefGpcdvyo++b8EYYiM7Mb6V1ygrvEhUbJR3/NbT7DIOAPz5IG1iH2f5VEKjavwv+m4TXwgAxOwjs7Qqs7SK2Bv9NGu0p0MvazNZKolJziFmIjefvwjp60I0DnPrfiez4MbzFwAQfu3Bb3Lfa6GggiRqH5hK2kl5brpsQ4fB1KTrCJpeFkCuys8m8og8n/EzvIOmM1hWGpo0AMh5+M/t0tpXtR35TQ3aei+LlRl2syGyGADUlBbKTt6i6Ojo6Ojod7mkN7yorCE28itrDeha2ppUomgjABRy6og8IkPToEwf6NHH3tJIR5tCJgGAtiZVtrfyVXVorlCoq6VJbJsz9K6l5BDb5XWNspOj9wGmEjWRe7CV1/h6TVMnv5FD56/9Y/PS3Ee3hXzuyMUb5GusSeWWFf8UcJRKJaJ//rTEYvX/mck/vPtaHgGA6QM93NmsH/668aKyViyRbJ8+Sr4UpUTuuV/SqwqOUpDKL6nEEnw4+D2C7+C0E1NbR9lGA6dCwG1ScLClS+/8p4kZd2KFfC4AKFOrkVOUZ2j+8ssftPUY2rotl0R8ebC2tqmpqUrqG7Jf1XO1NjaoaeTxhCIFBztaGMel5uaUV4slEk0NiplBy+8rl1Y3mBm8LBmnq6Wp82q20iI6nc5kMimvvuUDtQVMJe1k0KwV5g5ubHfffpPmPbp8UvHBVQXZpnaOdIYRALgMHst2b/mDEo8un3QeFGjUzYZEIg+ctgRaKjct4+/vv3fvXnd3dyWPV2BKf7fuZkYulqZB3j2vPstSfHAxp865mwmFTKaQSTP9PWjUlifIV59lDXC0NjfUI5FIIb6uyl4hQGhoaHh4OIvFUroH+s9wgdNOnkSdmbxln5aOXsr1ywnHd7dw8JVzLHuXBeFREom4IOXh48hTRt1sFHfJuB1z99zBWf87z+c2pMZdqq8qU1noSotNzvkyyJ9Oo97KyD93L0XxwYdvPlk83Hf/vCC+SBSflpdVymnx/Peziy48TP8hdDhXIExIz+c0cJUMjE6nC4XCujr8cow2hAUZUee3d+/exMTEgwcPqjuQzgwXOKiTMzExMTQ0bIfXxS4OFziok6uoqAgNDVV3FJ0fzkoQQiqAqQQhpAKYShBCKoCpBCGkAphKEEIqgKkENcvPkxcTXpx1KX/muNefNkToNZhKVEm9BRlVPvryaTVpOZq9gq0OX2jhu8QRwlSCmmXGFCem0Jp4yj/sgrou/IhamzO1dViwP3p7SJ8GTgUAjFq2Sc/Y/MyG+QAAJNLg2SvdR0ykGxjVlpfcPbf/4YVjRC+jbuwRizbYePTlNzY8T7gS89sPxFPCADB7V0T2gxtaOvq9hk+gUKl3zx64/vu2FsMwNDSUSCS1tbXKR04mg1jS8mEIAaYS1VJQkPGtXAICvcdNP7NhAacoj2lpq29qTrRraNKm/ngs617cvk/GatJ1Ri0I/CNcAAAgAElEQVT9ZvjCdZE7vpJ17D126oM/j+yeOZhCpcnKFygefevWrTU1NStXrlT+cmhUqVCEUxKkFEwlqqSgIONbGbAsGzgV+U/vS6USIgsQeo2YKBYJo3ZuJCokxe4L++j7Q5G/rJcVTOIU5t44+j9iW9bxv46ugAYF/HtzmQxxeq6yNUFQF4epRJ3SbkT1DZ6z+Mi13Ee385/dT7l+SSISAYCZnRPT0nZ9TI78wbqGxsQSCQAKUx//17HmzJmj/MHpF19QyHDoL72kDEwlSCmYStqc9N9lA0mkf251Vxe/2DktwK63n41Hvw+WbnIOCDy9fh6xKzsx/sTaj5s7J/+NGo6q5TjOepA3b9/G8ohY3aeYTZAS8B2cNsdrqAMATW068aO+qYX8XiGvKf3W1ejdmy5uXdOj3xASmQIA5bnp5j3cqDRtFYZhbGxsZGSk5MEiESnmrjanluJkK1BhDKgTw1TS5hqqyusrS12HBAFAt56etp79ZbvcR0x0HxnMtLQ16sZ2HhRYnpMulYgBIOnqeSGfG7xxt4WTO9PKrtfwCWNW/dDKMMLCwtatW/efuvAEJKoGlmJGSsEFTpuTSiUXt64dvXyzz/iZeU/upMZH0nRefuKLz230m7Log6WbpBJxQcrD898sJtpFfN6x1VOHLVg37adjZDK5siAn6crZ9o9cJAYKvtYg5WBBRtSsk2FlldWUNTuY+Ck11CJ80UHN2nHMoKed4Om5AnwGB7UIFzioWfeeaQ2bb9HycQjhrAQhpBKYShBCKoCpRDVsbW3VHQJC6oSpBCGkAphKEEIqgKkEIaQCmEo6ns8vPGW79+3pP2rZiYT2H33SN+EBM5fTDQzXx+YyWJatOdVYL8ctk4YCwC8zRw9xsVNRgMqyNTGMWDEFAOYP8V72Qd92Hr3zwVSCEFIB/IhaJ+EzfobP+JnJsX/1HjuVrEG9d/5gwvFdxK6+wXPdPwg2tLAWCfiZd65d3bOZW18DAOtjc5/F/mnfZ9DDC8eM2T1s3Pv+/dt3T6LOgMJykApQKBQGg8HlcpuamlpzLUcWfXj5cYanjbk106Cgqm5b5O2y2gYAYDF0ZwV4Opgb69I0i6vrT999djujAAC2TBrawBP07GaSWVqVWVo1xtPxdkb+3phE4mxjvRwDPR0MdbQLqmoP33jyrKCsNbGh5uCspOOpLskXCXgCblNNaaF8u1E3tlQq2RHa//zmJYNnrTBh9yDatXT143/fHj5v1PHPZxhZ2oxavlnWpTQzNea37/2mLsm6Fxd/ZMeAKQvhVTnI2rKifZ+MPbV+rrlDr+EL/3mkuIFTzq2vkUgk1cUvxCKRfAAsFis8PFz57/pu5AurGrgAUFnX1CQQyu8K6GmzPfLOzF8juALhND93olFPi5ZdVv3tn/FLfr8c+SRjZeAAK6YBsUsskX59Ls6DzTLR0/nmj+vDe9kb6WoDwMhe9kG9nfbFPVx2ODI2OWfdhABTfR2ii1AsLq1pAIBaLq+mkadkzKg5OCvpePYtGENsZCfGy7cL+fxbJ/dKJeK8x7drK0rMHVwrXmQCgHwR6btn949Z8b3sx5wH8UQ5lcx7cXR9xvAF66ClcpCyErO7pg9q5YVcS8m5lpIDAJsjrr+2KyY5h5iJ3Hz+IqSvC9FITDqI7einWaM9HXpZmxVU1QJASmF5bkV1RV1TUn5pZmlVA49vqq/DaeCG9nM7FP/oYU4xAEQlZQ5wtPZzZP+RmAoAhZy6hQcvAsDpO8mtvBAEmEo6kwZOuUQsJrYFTQ1aegxi29ZrQMDM5aa2jkRxA4ncVEIk4IsEfAAQ8XkiAZ+soUEiU1osB9mcoqKiiRMnquRaKusaiQ2uUKir9bKMG02DMn2gRx97SyMdbQqZBADamlRil1AsBgCBWCwQiQFAIJJoalD0tWkMHa3PRvf/bPQ/NWIKOW1bgK7LwlTSeUgl//qmCRKJBAB6xqzQLftvHt99+qt53PoaxwEjQr7eo+AkJBJAS+Ug24FEruISCV6WOJg+0MOdzfrhrxsvKmvFEsn26aMU1D6Q9Vpz8mpGSVXbhYoIeK+kk2PZOwOJlHBiN3Gr1cTGocUu71wOkkKhmJqa6urqvkugSnC0MI5Lzc0prxZLJJoaFDMDHcXH13H5NU08526m7zAWnU5nMpkUCuWdIu2KMJV0cpzCXAqVauXSGwDM7Jx8gqa32OWdy0GyWKy9e/dOmjSptUE3o5hT59zNhEImU8ikmf4eNGrLc+ozd5In9XUZ5tqdxdB1sjCZM8jLnc1SZqzQ0NDw8HAWS6mDEeACp9OrKsyN3L5uwpc7SGRKbVnh3XP7h85bo7jLe1IO8k2Hbz5ZPNx3/7wgvkgUn5aXVcppsUtUUiaZTPrQp+cnw7xrm/ipRRXE3dwW0el0oVBYV4c3VpSFBRk70iio3ezduzcxMfHgwYPqDqTDwAUOQq8zMTExNDRsh5fSzgQXOAi9rqKiQvkP2iECzkoQQiqAqQQhpAKYShBCKoCpBCGkAphKEEIqgO/goGbN3hWRfuvqrZN7ZS0rziXqGBoDwIUfVydFn1NfaCoTNmXEvezCP+6nyloOfTKBQdcCgJ3R94gHl5EycFbS8bRbQcbMe9fKc9PlW7YF+2wealtfWfrmwSx75/WxuQAwatmmcWu2tnLo44uDXa1M+ztYhc8d18pTKfYwt/hFZY18y6xfIyZsO0kUUnmNhaHeqjEDDi/88PDCD1cGDjCga8l2+dpbnlwaopKQdGiaESum2JsZqeRs/9U7V8nEWQlq1s2jO9UdQps7c1fZYiU2JoyNHw4+cy9579+JABDaz3X1mAFfnYlty+g6EkwlnYed98Ahc1ab2DjUVZTe/+Ng4p9HACBg5nJbrwF0BlMiFiX+eWTgtCV1ZcXH1kwXNDUaWrCHf7LO0tlTS8+gqiD3xpEdaTeiiFPN2HaK7e4LANf2/yi/wHlnurq6NBqNw+FIpdKWj26eB5s1zc/dmmlQ2dB06VFG5JMMUFiQ0dPGPNjXhW1soEGhZBRXHox/lFfxcg6yZdJQF0tTADiakCS/wGnO0pF9jyUkxb5a8hyKf/zrnLHmhnoOLObyUf2IRqLudF5FzWdHoxQEDAB2poZzB/e2NTUUiSXZ5ZztkXdqm3hMPfr+eUHEAT9NHUlsTNt9vpEvUBybuaHex/4erlZmIIW0ooq9sYlV9U0AMNjZdlJfV2M9elltw7GEpLtZhQAQ2s+tl7WZAV1LLJFEPskM8XWprG/8+vx17r8L2f1XmEo6nrcWZDS1dZj8TfjVvVtyHtxkWtkFrfm5qYaTcv0SAOgZmx3/fEbw13u9x0078tnkKd8fdug3LDn2L219RmlmcsLxXU211d19/Ceu3/nb3FFE4bUjK0IBYPau//DJcZFAUF38AgAaazhU3uurg/nz5w8YMGDGjBmNjY3KnK20tkEgEnMFovK6f463Njb4Isj/4PVHT16UdjPS+/SDfnVcXkJ6PrwqyPjT1BE1jbxv/rge9tGI03eTOQ1cBl3rempuekmlSCwZ793zq/EBCw5cEEukAEBMKMKmjFAmnh4spq6W5vW0XE0Nykx/Dw+2eVZpVXldI8tANz4tLz4tz9fecvmoflN2/uu5RwUBrxjdP624YkfUHaoGxd2aRVRyqqpvmrDtpA5N89jiiauPR2eVtfy8IgBoUTW+CR6SX1m78dw1vlDs072bkY52VX2TPcto6UjfA9cfPc4r8XNkrxrjt/Tw5ZLqegAw0tXe9Mf1z8f4feBu/9WZ2PUfBvjYWdx4/gIUVslUDFNJx/PWgox+U5c8jfnz4cXjAFBdkv/gwlH3D4KJVFKSkcwpyitOT5KKJZyiF2XZqQwzSwAofp5U/DyJ6P7w4nGf8TNsew8gUsk7qMzPIko03jjyy7tf2ysrj10hNh7nlcgaQ3xd4tPyop9mAUBZbUPUk8whLnbEX2ZzBRnjUv95xvJYQtJwt+5WTAPZxER5ThbGKYXlYol0+sBe3Yz0v/vrRg+W0bKRff8kK7rbqCBgU32d03eTiURZ1LrCbkNc7GhUyk+XEnhCEQAQFSoBYGQv++SC8suPMwDgzN3kAQ7WI9zsD994DAA55dUl1fVZZVUSibSkpj6vosbU4GWVGQVVMhXDVNJJmNo5mbB7eAX+8+RIVcHLqbhIyAcAsYBPlGsUCfkaNC0AoNK0h8z93NFvhB7TjEyhAICmVgvFhN7Ztm3btm3b1vJxCrGNGVZMg+Fu3WUtRdUv/wjfWpARAFgM3ZkDPXp2M9GnaxFV1bSUqHLyJoaOVkVdIwD4drfcHnW7iFNXxKkb6tJdcS8FAV9+krlsZN9BPW3TSypvZ+S3pkwk29ggq5RD5BF55gy93PJq2Y95lTXmjJf5QigSA4BQJBFLJMSPxK+rNTCVdB6x+8Jun/pVmSOJqotD5n5u5+13Zv388rx0iUg0PzySRFZQ4fC9cPRmElHkuUVEQcY1YweW1NSvPnG1sr6Jrkk9tngiUafyP5OCSCwBABIJiGwFr/LXuwV8+MbjuJQcdzbL194yxNdl3ZmYtqgaqfx9qdb/h8c3gzuJ8tx0dq8+/6mLlUvvp1f/KM1KkYhEGjQtQ3NrJTsKuE3EvEZ5+vr6pqam7/hn/MqLylpnSxPlj9eiatiYMP588LyirlEqlcq+6UIZPKFQ/oW6sqHJjKELAA9yisd4OVLI5O5mRq6W/5R6FIrFlDcWO4oDzq+qvfgo/aszsUXVdV42FvKnAoA3z0Y0murryOpmy0bpbmb05myrtKbBxpgh+9HGmFGqXNmnd4OppJO4dXy3nbf/kLmfm7B7sOyd+02a12/SPMVdKguzrd18yBoaZApl2PwvqFrKZofi9Keug8cyWFa6RiagXHaYO3fu3r176XS6kkO81fn7KR5s8+l+7lZMA1sTw/HeTuO9nRQczxOKquqbelmbAYCuluY0v17Kj5VVyvFztDYz0GXoaJEAkgvKe9tYUMjkYwlJIIXdswKn9HdLLa4QvyrNXVLTQKWQfe0taRoUDQpZccCaGpS5g3s7WZgwdbV721qYGejmVvyzEhGIxJwGrq+9JV2TSv33uoPF0P1t7rjJfV3lG6+l5AhF4lWBA+zNjLoZ6Y/1ciQ+k3L1WZartVmgp4O5od6kvq5WTP2/n2Ur/xv4r3CB00mU5Tw/+eWsQTM/8504W8jnlmamtLjYif3thzGrfvj05G2RgPfs7z+L058R7d19Aj764Xdiu1tPjyFzPxcLBd994CjreG3/jxPW/bL48DWyhsZPQe7EN+m0g7yKmi0R16f0dxvr5cgXibPLORGJaYq7bL18a/5Q71HuPZoEwrP3UlxezSM8bcw3fDiI2HYwZ073cxeKJZN+OS3reCwh6bPR/XfPCqSQydN2ny+oqs2tqJ7U1+Xk7We7rt57c6CS6vqTt599MtTHQEfrxas3g5sLWCKVGuporQrsr0/X4jQ0nbr97F7Wv74d7bfYxI/9Pcf1dqKQSS2+GcwTitafu/axv+emkCEAkFZUcTuzAAAySqp2X70X4usyK8CzrLbx58u3W3l/VzEsyNiRRkFqZKSrvSVk6JP80suPMkprG4x0tGq4fKGo5dslXQTOShBSCqeBu/rE1Qk+Pb8IGmisr9PAE4RduCn7tkCEqQQhZTXyBccSko4lJKk7kPcR3nZFCKkAphKEkApgKlENvOeKujhMJQghFcBUghBSAUwlKuPjws+OfHHrSFHIiDb8eDJC7ydMJSqTmELrGWR99qruF3OrWz4aoc4FU4kqCYSkW4+1jPQlGhqtqhWGUIeDqUTFiA9SU/D3iroY/F9exYQiEgDQNHFWgroWTCUqlleswROQJg5rwGyCuhRMJSrW0ETetNdo/YLq9Av5jjatKuGNUAeCj/OpmJ6OZONCzubfDE9E6vEF73t9Q4RUBWclKsY2F2lpSs/H6GIeQV0KphIVo2pIAQDzCOpqMJWoGIUCUimIxZhKUNeCqUSVNKlSP09eOYeCZfpQV4O3XVXGx4V/6qfS0kqN7w8YqjsWhNobphKVSUyhdR/99prbCHV6uMBBCKkAphKEkAp0/lSCpRIRagedP5UghNoBphKEkAp0lXdweOuzSPx6cvIFauRGdceCUCfUVWYlWlscqeeWiPvMlJo6qDsWhDqhrpJKQCom59wCiUiqZ6buUBDqhLpMKiFIJEDqYpeMULvoYn9XYqFUg6buIBDqhLpWKiGXpUlcx0q19NUdCEKdTddKJRpXNknsA/hrn4r7zFR3LAh1Kl3lzWCCaNTX5Kx4jUvrSLw6dceCUKfStWYlElMncvLFN/MInU5nMpkUCkUtUSHUCXStVAIUKknEf7M5NDQ0PDycxWK1f0QIdQ5dLJWQySARvdlMp9OFQmFdHa56EHpHXeZeCYkisfEFsgaptujNnS4uLlevXq2vr2//uBDqHLpKKuF9lU7i12vcOUCqynttl4mJiaGhYUREhDriQqiT6CqpRGuzfXO7KioqQkND2zMYhDqfLnavBCHUNjCVIIRUAFMJQkgFMJUghFQAUwlCSAW6ViqR2PnxF8fw1mfh43wIqVZXeTOYIBq0nFyWRt03DgRN6o4FoU6la81KpHpm5PxEzCMIqVzXSiVAIoNErO4gEOqEulgq0aCBWKjuIBDqhLrMvRKyhsTeX6rDJJWnqzsUhDqhrpJKeF+lA5lCuXeIXJSk7lgQ6oS6ygJHa4uj5sm54j4fSyx6qTsWhDqhrpJKQCIip8eQmjhSMyd1h4JQJ9RlUglByAMKVd1BINQJdbFUIhEBGWtBI6R6XSuVkGqLJdY+oElXdyAIdTZdK5VoxO+QmPXkrcGv1EJIxbrKm8EEct492u5h6o4CoU6oa81KEEJtBFMJQkgFOn8qsbW1VXcICHV+nT+VIITaAaYShJAKYCpBCKkAphJV8p04e8a2UwDwyYFo95HBHXd0WxPDiBVTAGD+EO9lH/RVTXz/xfHFwa5Wpv0drMLnjmv/0dE7wFSCEFKBrvURNbUwtXVYsD/68vYv+4bM0zMyzbwfd+HH1SI+DwC6+wT4TV1sautIoVKLUh9f3bO5LOc5AMzYdorXUGvl4l2cnlT0PKnPhx+nxUdd3v4lAFC16MMXfNEzIJCioZH/LPHKzo01pYXKhGFoaCiRSGpra1tzLZ+P9ROIxBQy2cvGvJ7H/y32weO8EgAgk0gLh/u4WZkxdek1TbyY5Owzd1OkUqmrlemqwAFZpZzuZkZn7iWPcLPX06Z9GxGfW1ENAB5s1jQ/d2umQWVD06VHGZFPMloTG1IvnJWoEq+hrr6yFABqy4v5TQ3yu3r4Dtn/yZg9s4ax3fq4j5hINOoaGj+9ev7w8pB98wM5xfmh3x0iU14+bSgRi4+vmW7Xe6CBqcWJtR97BYbqMc0AYOzqMBMbh5NfzjqwKKihumLylv2yLgpGB4CtW7du2LBByQsRisWlNQ0AUMvl1TTy5Hf1d7COeZY9bc/566l5S0b4kkkkACCTSWKJdPfV+4sPXdp99d5oD4cRbt2J4w3oWufupzzILZod4LUz+m5aUfkojx4AYG1s8EWQ/9/Pspcejtwf93ByP1c/R2vZKKW1DQKRmCsQldc1KhkzUi+clahSUvS5pOhzAHDyi1mv7Uo4sUfAbRJwm3IeJlg49np48TgAJF09Lzsg7sCPXoGhJuwexMTkRdLd0qzU2vKi3Ee3ip8ncetrDFiWmnQdl4DAHaH9iZQR9cuGNZeSzR3citKeKB79vyrk1C08eBEATt9Jfm1XckFZUn4pAMSl5k7u52qkq11Z3yQSS36NSSQOKK9rvJWe72FjHv00CwDqefznxZVmBrrO3UxzyqvTiir7dO8GACG+LvFpecQxZbUNUU8yh7jYJaTnEydZeewKsUHMetD7D1NJO6krLyY2BNwGPWMWsW1owR42f62Vm4+OgRGQSABA1dYhdokEfOKfQj6P2KDStPTtnIBEWn76jvyZGSwrIpUoNmfOHJVcSGX9y6/+4AqEAKCrpUm0jPZwGOXRw0xfh6pBAYCkF6XEYQKRBACEYrFAJCY2NDUoAMA2ZlgxDYa/mrwAQFF1nUoiRGqBqaSdSKUSuZ9IxL9CNv3KKcw9sCiorryEpqO7+q8kEomk+DwiPu/7QGeQStss0hZI/j00CUgA0Nfecoa/x8+Xbj3NL+WLxHMGeVkbM5o9xatLPHoz6Y/E1DaMFbUjvFeiNlQtupmd050z+2rLiqRSiYmNQ4tdynPTNWhaFg5u7zCcsbGxkZHRO3RUhqOFSWpheWJOEV8kBgArY4MWu7yorHW2NHmHsahUKpPJpNFo79AXtR1MJWoj5DXVVZTaeg0AAG09xpA5q1vsUpmfnRofOf7LHd19AgzNre37DArZ9CuNrqvMcGFhYevWrWtt0M0orq5jGzP0tWkA4OfIdrU0a7HL+fspHmzz6X7uVkwDWxPD8d5O472VKrvr6ekZHh4+aNCgVsaMVAsXOOp0fvOSUcu+8Q6axm+sTzi227pXnxa7XPxp9ZC5a8Z9/pO2nkFteXF24g3irop6xSbn2Joa7pgxSiyRPi+ujEnONmfoKe6SV1GzJeL6lP5uY70c+SJxdjknIjFNmbHodDoAVFRUqCBupDokNpv91h0TJkyIiIho6+FtbW1zc3M7+hCoPS1evNjW1nb16tVS9d0wQm/CBQ7qYFxdXc+cOYN55H2DCxzUwSxcuFDdIaC3wFkJQkgFMJUghFQAUwlCSAUwlSCEVABTCUJIBTCVtDmWvfP62Fy6gWF7Drr89J32LONGVF0jPu3abvbPHz/Exa49R0QKYCpRJfUWZFTg8wtP2e59e/qPWnYioZWn+iJoYGg/N31tWsSKKab6OioJr/XUXkESYSpBCKkAfkStnTgPGjtgykJtPf3U+MjIHV/JHpwZOm+NuYNbavxlv6lLdA2N858lHls9jUSmBK741tazv54xq7G68nHk6ZtHdxJlClZFPLofcbi7j7+pjWPFi8yIbz+tLnlZLmjg9KV9JswiUyh3zuxTPjAajaarq1tXVycUClt5jQMcrSf6OOtoad7OyP819oFQJCbapw90tzdj3srID/Z1YdC10ooqNp67xmLozgrwdDA31qVpFlfXn7777HZGAXH8kUUfXn6c4Wljbs00KKiq2xZ5u6z2ZVG4SX1dAz0dKGTSnw+etzJapFqYSlRJQUlEr8DQMxvma2rTJ6z7ZeC0JXEHf5btMrVzEnAbj3w2mddQRzwoTCaTpWLxxZ/W1JQWGFnaTvjyl8bqSqLwGgC4DZtw/PPpDZzyyVv2D567+o/NSwHAyW/kwKlLLvz0eVl22tB5a3SN/vX8fnVJvkjAE3Cb3iwEO2jQoPnz54eFhd2/f1+Za6xu5NXz+BKptLSmQSyRL8ICI9zsv79wU4uqsWJ0/0m+LsdvPZXtYhsbcAXmX52OaeQL3dlmAKCnRcsuqz57L6WeK/Bgs1YGDiioiiqoell6NqCnzabz1zmN3HVB/tP83H++fAsA+tpbBvu67Iq+m1dRM2Ogh6GOluz88hUkeUL8v1oN8JeuSgpKIsYd3FqS8QwA7pwOH/DRIvlUQqVp/xW2it9YDwBpN6IAQCwSXt7+siBATWlh6vWLdt4DZankSdTpmtICAEi5dsFv2hKi0XP05LQbUcmxfwHAlZ0blx6/KT/6vgVjiI3sxPhWXqOs8CJRsVHe8VtPs8s4APDng7SJfZzlUwmNqvG/6LtNfCEAELOPzNKqzNIqYm/006zRng69rM1kqSQmOYeYidx8/iKkrwvROMyt+53MghvPXwBA+LUHv8l9r4WCCpKofWAqaSfluemyDR0GU5OuI2h6WQC5Kj+byCPyfMbP8A6azmBZaWjSACDn4T+3S2tf1XbkNzVo670sVmbYzYbIYgBQU1ooO3mLoqOjo6Oj3+WS3vCisobYyK+sNaBraWtSiaKNAFDIqSPyiAxNgzJ9oEcfe0sjHW0KmQQA2ppU2d7KV9WhuUKhrpYmsW3O0LuWkkNsl9c1yk6O3geYStRE7sFWXuPrNU2d/EYOnb/2j81Lcx/dFvK5IxdvkK+xJpVbVvxTwFEqlYj++dMSi9X/Zyb/8O5reQQApg/0cGezfvjrxovKWrFEsn36KPlSlBK5535Jryo4SkEqv6QSS/Dh4PcIvoPTTkxtHWUbDZwKAbdJwcGWLr3znyZm3IkV8rkAoEytRk5RnqH5yy9/0NZjaOu2XBLx5cHa2qampiqpb8h+Vc/V2tigppHHE4oUHOxoYRyXmptTXi2WSDQ1KGYGLb+vXFrdYGbwsmScrpamzqvZSovodDqTyaS8+pYP1BYwlbSTQbNWmDu4sd19+02a9+jyScUHVxVkm9o50hlGAOAyeCzbveUPSjy6fNJ5UKBRNxsSiTxw2hJoqdy0jL+//969e93d3ZU8XoEp/d26mxm5WJoGefe8+ixL8cHFnDrnbiYUMplCJs3096BRW54gX32WNcDR2txQj0Qihfi6KnuFAKGhoeHh4SwWS+ke6D/DBU47eRJ1ZvKWfVo6einXLycc393CwVfOsexdFoRHSSTigpSHjyNPGXWzUdwl43bM3XMHZ/3vPJ/bkBp3qb6qTGWhKy02OefLIH86jXorI//cvRTFBx+++WTxcN/984L4IlF8Wl5WKafF89/PLrrwMP2H0OFcgTAhPZ/TwFUyMDqdLhQK6+rwyzHaEBZkRJ3f3r17ExMTDx48qO5AOjNc4KBOzsTExNDQsB1eF7s4XOCgTq6ioiI0NFTdUXR+OCtBCKkAphKEkApgKkEIqQCmEoSQCmAqQQipAKYS1Cw/T15MeHHWpfyZ415/2hCh12AqUSX1FmRU+ejLp9Wk5Wj2CrY6fKGF7xJHCFMJapYZU5yYQmviKf+wC+q68CNqbc7U1mHB/ujtIX0aOBUAMP23CC8AABXLSURBVGrZJj1j8zMb5gMAkEiDZ690HzGRbmBUW15y99z+hxeOEb2MurFHLNpg49GX39jwPOFKzG8/EE8JA8DsXRHZD25o6ej3Gj6BQqXePXvg+u/bWgzD0NBQIpHU1tYqHzmZDGJJy4chBJhKVEtBQca3cgkI9B43/cyGBZyiPKalrb6pOdGuoUmb+uOxrHtx+z4Zq0nXGbX0m+EL10Xu+ErWsffYqQ/+PLJ75mAKlSYrX6B49K1bt9bU1KxcuVL5y6FRpUIRTkmQUjCVqJKCgoxvZcCybOBU5D+9L5VKiCxA6DViolgkjNq5kaiQFLsv7KPvD0X+sl5WMIlTmHvj6P+IbVnH/zq6AhoU8O/NZTLE6bnK1gRBXRymEnVKuxHVN3jO4iPXch/dzn92P+X6JYlIBABmdk5MS9v1MTnyB+saGhNLJAAoTH38X8eaM2eO8genX3xBIcOhv/SSMjCVIKVgKmlz0n+XDSSR/rnVXV38Yue0ALvefjYe/T5Yusk5IPD0+nnEruzE+BNrP27unPw3ajiqluM460HevH0byyNidZ9iNkFKwHdw2hyvoQ4ANLXpxI/6phbye4W8pvRbV6N3b7q4dU2PfkNIZAoAlOemm/dwo9K0VRiGsbGxkZGRkgeLRKSYu9qcWoqTrUCFMaBODFNJm2uoKq+vLHUdEgQA3Xp62nr2l+1yHzHRfWQw09LWqBvbeVBgeU66VCIGgKSr54V8bvDG3RZO7kwru17DJ4xZ9UMrwwgLC1u3bt1/6sITkKgaWIoZKQUXOG1OKpVc3Lp29PLNPuNn5j25kxofSdN5+YkvPrfRb8qiD5ZukkrEBSkPz3+zmGgX8XnHVk8dtmDdtJ+OkcnkyoKcpCtn2z9ykRgo+FqDlIMFGVGzToaVVVZT1uxg4qfUUIvwRQc1a8cxg552gqfnCvAZHNQiXOCgZt17pjVsvkXLxyGEsxKEkEpgKkEIqQCmEtWwtbVVdwgIqROmEoSQCmAqQQipAKYShJAKYCrpeD6/8JTt3ren/6hlJxLaf/RJ34QHzFxONzBcH5vLYFm25lRjvRy3TBoKAL/MHD3ExU5FASrL1sQwYsUUAJg/xHvZB33befTOB1MJQkgF8CNqnYTP+Bk+42cmx/7Ve+xUsgb13vmDCcd3Ebv6Bs91/yDY0MJaJOBn3rl2dc9mbn0NAKyPzX0W+6d9n0EPLxwzZvewce/792/fPYk6AwrLQSpAoVAYDAaXy21qamrNtRxZ9OHlxxmeNubWTIOCqrptkbfLahsAgMXQnRXg6WBurEvTLK6uP3332e2MAgDYMmloA0/Qs5tJZmlVZmnVGE/H2xn5e2MSibON9XIM9HQw1NEuqKo9fOPJs4Ky1sSGmoOzko6nuiRfJOAJuE01pYXy7Ubd2FKpZEdo//OblwyetcKE3YNo19LVj/99e/i8Ucc/n2FkaTNq+WZZl9LM1JjfvvebuiTrXlz8kR0DpiyEV+Uga8uK9n0y9tT6ueYOvYYv/OeR4gZOObe+RiKRVBe/EItE8gGwWKzw8HDlv+u7kS+sauACQGVdU5NAKL8roKfN9sg7M3+N4AqE0/zciUY9LVp2WfW3f8Yv+f1y5JOMlYEDrJgGxC6xRPr1uTgPNstET+ebP64P72VvpKsNACN72Qf1dtoX93DZ4cjY5Jx1EwJM9XWILkKxuLSmAQBqubyaRp6SMaPm4Kyk49m3YAyxkZ0YL98u5PNvndwrlYjzHt+urSgxd3CteJEJAPJFpO+e3T9mxfeyH3MexBPlVDLvxdH1GcMXrIOWykHKSszumj6olRdyLSXnWkoOAGyOuP7arpjkHGImcvP5i5C+LkQjMekgtqOfZo32dOhlbVZQVQsAKYXluRXVFXVNSfmlmaVVDTy+qb4Op4Eb2s/tUPyjhznFABCVlDnA0drPkf1HYioAFHLqFh68CACn7yS38kIQYCrpTBo45RKxmNgWNDVo6TGIbVuvAQEzl5vaOhLFDSRyUwmRgC8S8AFAxOeJBHyyhgaJTGmxHGRzioqKJk6cqJJrqaxrJDa4QqGu1ssybjQNyvSBHn3sLY10tClkEgBoa1KJXUKxGAAEYrFAJAYAgUiiqUHR16YxdLQ+G93/s9H/1Igp5LRtAbouC1NJ5yGV/OubJkgkEgDoGbNCt+y/eXz36a/mcetrHAeMCPl6j4KTkEgALZWDbAcSuYpLJHhZ4mD6QA93NuuHv268qKwVSyTbp49SUPtA1mvNyasZJVVtFyoi4L2STo5l7wwkUsKJ3cStVhMbhxa7vHM5SAqFYmpqqqur+y6BKsHRwjguNTenvFoskWhqUMwMdBQfX8fl1zTxnLuZvsNYdDqdyWRSKJR3irQrwlTSyXEKcylUqpVLbwAws3PyCZreYpd3LgfJYrH27t07adKk1gbdjGJOnXM3EwqZTCGTZvp70Kgtz6nP3Eme1NdlmGt3FkPXycJkziAvdzZLmbFCQ0PDw8NZLKUORoALnE6vqjA3cvu6CV/uIJEptWWFd8/tHzpvjeIu70k5yDcdvvlk8XDf/fOC+CJRfFpeVimnxS5RSZlkMulDn56fDPOubeKnFlUQd3NbRKfThUJhXR3eWFEWFmTsSKOgdrN3797ExMSDBw+qO5AOAxc4CL3OxMTE0NCwHV5KOxNc4CD0uoqKCuU/aIcIOCtBCKkAphKEkApgKkEIqQCmEoSQCmAqQQipAL6Dg5o1e1dE+q2rt07ulbWsOJeoY2gMABd+XJ0UfU59oalM2JQR97IL/7ifKms59MkEBl0LAHZG3yMeXEbKwFlJx9NuBRkz710rz02Xb9kW7LN5qG19ZembB7PsndfH5gLAqGWbxq3Z2sqhjy8OdrUy7e9gFT53XCtPpdjD3OIXlTXyLbN+jZiw7SRRSOU1FoZ6q8YMOLzww8MLP1wZOMCAriXb5WtveXJpiEpC0qFpRqyYYm9mpJKz/VfvXCUTZyWoWTeP7lR3CG3uzF1li5XYmDA2fjj4zL3kvX8nAkBoP9fVYwZ8dSa2LaPrSDCVdB523gOHzFltYuNQV1F6/4+DiX8eAYCAmcttvQbQGUyJWJT455GB05bUlRUfWzNd0NRoaMEe/sk6S2dPLT2DqoLcG0d2pN2IIk41Y9sptrsvAFzb/6P8Aued6erq0mg0DocjlUpbPrp5HmzWND93a6ZBZUPTpUcZkU8yQGFBRk8b82BfF7axgQaFklFceTD+UV7FyznIlklDXSxNAeBoQpL8Aqc5S0f2PZaQFPtqyXMo/vGvc8aaG+o5sJjLR/UjGom603kVNZ8djVIQMADYmRrOHdzb1tTw/+3de1hUZR4H8HeuDDAM43AZUG4CCgRyUQgvqIXlJTU1w7IM04do3ay21nTddNPyqVw3uunD2mbPaphFaqZpRWGoSLqaiICAgiLGHYbLcJnLOWf2jyOoqTMjHBlm5vv5a+Y85zA/RufL+77nnN9QNFPRoHr/0K9tXRo3F6dPn5vD7rDp6Wnsg0Vb9nRqdcZr8x7i8uyk6AhfJTGQkurG9OxTzeouQsiD9w1fMDbC3cWpvq0jI7fgRPnvhJAnx42K9FO6Oklohjl09mJSfHiTunPdnpzumxvZ3S1EifW5bUNGz+Ejn3jzk6z0DZdOH3PzDZyz6r2uVlVxzneEEBd35c6VyY+vS499dNGOV55Y+M72keMeKsr+1lEmr7tYlLtzc1dbS1DcpPlrP96aMoNtvLbj1ScJIUs338WV45RO11JzhRDS2aoSaf44O0hNTZ0wYUJycnJnZ6c5P62urUNH0d06qqH9+v5+7q6r50z6LOfM2St1wxQuL08f196tyS2rIj0NGTc9PbW1U/Pm3pyNT0396kSRqqNb7iTJOX+5rLaJopm5sWFr5k5+ftt+mjEQQtgBxcaFU82pZ4SXm1Qizim5LBYKFk+Kjvb3Lq9rbmjv9HKVHimpPFJSGR/s85cZ4xZ+fNN9j0YKfvWR8SU1jR98/6tIKIjy82I7OTWru+al7XJ2EGe8MP+1nT+W15u+X5EQIhEJ33w8saqp7Y3dh7V6Oi5omMLZsVndFeyleHFa/LacM/mVtQkh/itmJby4/WBti5oQopA6rt+bs3JWwvSo4DWZ2WsfmxwXOPRo6RVitEumcYgS63PbhowJTy8/9/O+3w7sJIS01Fad3v951PTH2SipvVCkqq6sKSsw0Iyq+kp9xXm50ocQUlNaUFNawB7+24GdcXOTh4+ZwEZJHzRVlbMtGo/u+LDvv1uPv2b8wD7Ir6zt3ZgUH36kpPLHc+WEkPq2ju/PXkwMD2Q/mXdqyPjL+ev3WGbkFjw8KsjXzbV3YGK+0KHuxb830IzhmYmRwxSyt789OsJL8dK0sfv4xlYbjRTsKXP+6kQRG5TV/Wvslhge6CASbPouV6OnCCFsh0pCyLTI4KKrDQfzLxBCMk8UTRjpN3VU8Paj+YSQSw0ttS3q8vpmhjHUtqorG1s9Xa91mTHSJdM4RImN8AwM9fAfMXrm9TtHmq9eG4pTei0hhNZp2XaNlF4rdJAQQkQOjokpK0MSprq4KfkCASFELDHRTKjP0tLS0tLSTO9nlL+73NfN9eFRQb1bqluufQhv25CREOIlly6eGB02zEPmJGG7qknM6HJyK7mzpLG9kxASH+Tz/vd51ar2alX7lPAg40cZKfjg2YsvTRv7QNjwstqmvAtV/WkT6e/uWl6nYnPkRt5yl8sNLb1PK5taveXX8kJP0YQQPcXQDMM+Zd+u/kCU2I7s/2zM+/Lf5uzJdl1MTFkZGJuQuTa1obKMoajUTw7x+EY6HA4Knx8rYJs8m8Q2ZFw1e2Jtq/q1L7Ka1F1OYlHGC/PZPpV3zUAomiGE8HiETSvSk199K3j70fxfii9F+XvFB/skxYe/nvnzvegaaf66VP//4XEy2EY0XC7zj7z/rg7xDR9zLmtvXXkxQ1FCB8kQbz8zD9R1d7HjGvPJZDJPT88+fox7XGlqu8/Hw/z9JSJhgId83+nSxvZOg8HQ+00X5tDo9Tf+oW7q6FLKpYSQ05dqZo0OEfD5QUpFhM/1Vo96mhbcMtkxXnBVc9uBM2VrMrOrW9pHBwy98UcRQm79aexGT5lzb9/s3lcJUipuHW3VtXYEuMt7nwa4y+vMa/vUN4gSG3F855bA2EmJKSs9/Ed4Bd83bsFz4xY8Z/yQpt8r/EbF8YVCvkDwUOpqkcTcdKgpOxfx4Gy5l69U4UHMS4eUlJT09HQnJyczX+K29vyvONrf+5mEKF831+EeQ+bGhs6NDTWyv0ZPNau7Iv2UhBCpRLwoIdL81yqvUyWE+CldpXJnCY+QoqsNYwKGCvj8jNwCYiBblsxcOH7U+ZpGuqc1d21rh0jAjw/2cRAKhAK+8YLFQkHKg2NCh3q4SR3HDB+qdJVebrw+E9FRtKqjOz7Yx0ksEt087/CSS7emPPrE2IgbNx4uvqSn6BUzJwQrFcMUstmjQ9hrUrIKyyP8lDNjRnoPcVkwNsLXTfZTYYX578DdwgTHRtRfKt319yUPLH4lfv5Svba77mKxyclO9tZ3Z6149+VdeZROU/jTvpqyQnZ7UNzkp979L/t4WFh0YspKWq97e3pI74GHP/3nvNc/fGH7Yb5QuGlOFPtNOgOgsrF1wzc5C8ePmj06REvRFQ2qb06VGD/kXwePp06JnRE1okun//pkcXjPOCImwPsfjz3APh7p7fZMQpSeZhZ8+FXvgRm5Ba88Mn7LkpkCPn/Rlj1Xm9suN7YsGBu+K69wc9bJW1+otkW9K6/wT1PiXJ0lV3pOBt+pYMZgGOIsWTFzvMxJouro+jKv8GT5Td+OtjX71LOTYh4dEyrg80yeDNboqbW7Dz87KWZ9UiIhpKS6Me/iVULIhdrmLVknk+LDl0yOqW/rfO9gXj/Xd41DQ0ZrehWwIIXUcUPSlLNVdQfPXKhr61A4S1q7tXrK9HKJncCoBMAsqo7u177ImhcXtnrORHeZc4dGt3H/sd5vCwRECYC5OrW6jNyCjNwCSxcyGGHZFQA4gCgBAA4gSriBNVewc4gSAOAAogQAOIAo4UxcuLbi0JXjO6qTpt7Dy5MBBidECWdOFTuEzfH7Oku6OqXF9N4AtgVRwiWdnnc8X6KQMUJhv3qFAVgdRAnH2AupBXhfwc7gvzzH9BSPEOIgxqgE7AuihGOVNUKNjjf/oQ6kCdgVRAnHOrr469MVa59vKdtfFRLQrxbeAFYEt/NxzMWZeWOZ6q2tQ7445KLVDfb+hgBcwaiEY/7elERs2POzFDkCdgVRwjGR0EAIQY6AvUGUcEwgIAYDoWlECdgXRAmXxCJDQoymQSVAmz6wN1h25UxcuPbLTXV1TcJ3tg2xdC0AAw1RwplTxQ5Bj9y+5zaAzcMEBwA4gCgBAA7YfpSgVSLAALD9KAGAAYAoAQAO2MsZHM3acp5WzS/aLzr0hqVrAbBB9jIqkWwIEe1eTt+/2OA50tK1ANgge4kSYqD5l44ThjK4KC1dCoANspsoYTEM4dnZrwwwIOzsc0XrDUIHSxcBYIPsK0r49SVMxGyDRGbpQgBsjX1FifCH9UzwZO3fztH3L7Z0LQA2xV5OBrOoGev45UeE373O07RbuhYAm2JfoxLGM5RfdAA5AsA5+4oSIhDxKK2liwCwQXYWJXw+YShLFwFgg+xmrYQnYALiCV/Ia6u2dCkANsheokSzpoynVQt/3cZrrrR0LQA2yF6iRPJWsKVLALBldrZWAgD3BqIEADhg4ShBt0QA24BRCQBwAFECABwYFGdwdk3PcHd0I4RM3zeLNuA7MgGsz6AYlSz8YdGKY6ssXQUA9N2giBIAsHaIEgDgAKIEADiAKAEADiBKAIADiBIA4ACiBAA4gCgBAA4gSgCAA4gSAODAoLgHZ/vUzzwdPRgDYyAGS9cCAH0xKKJkcdZSS5cAAP2CCQ4AcABRAgAcuOMEx8vLa9myZbduT09Pv5f1AIBVMrZWsvmzzX/Ysnzp8ntZDABYK0xwAIADxqLkxaT2it3VP35QHxmsG7CCAMAaGYuSj7+WRSd7N7QI/jxfPWAFAYA1MjHBUXfxT5WIlQq0bgYAY0yvldA0T4AVFQAwynRI6CjiIML17ABgjOkoKa0Uj/ClYkN1GJsAwJ2YjodjBQ4Hch2/2diQv6NmAAoCAGtkOkomRmtmJ3TPW+UZkzx0AAoCAGtk+s7gUH/9xavC06XiAagGAKyU6VGJWEi0et4AlAIA1st0lPD5BopClACAMSaiROrExIXpqpsEA1MNAFgpY1Hy0oL2c5/XKhV0+l6XASsIAKyRsWXXjzJlH2XKBqwUALBeuOwMADhgbFSCRkcAYCaev7+/pWsAAKuHCQ4AcABRAgAcQJQAAAcQJQDAAUQJAHAAUQIAHECUAAAHECUAwAFECQBwAFECABxAlAAABxAlAMCB/wPpAEsgBeTmJAAAAABJRU5ErkJggg==;" parent="kgZVn9VdSYF8p0RM1xLM-1" vertex="1">
          <mxGeometry x="640" y="-969" width="366" height="439" as="geometry" />
        </mxCell>
        <mxCell id="ySRutuFvQDhnhbDo5Cpl-0" value="" style="endArrow=classic;startArrow=classic;html=1;rounded=0;entryX=0.005;entryY=0.63;entryDx=0;entryDy=0;entryPerimeter=0;exitX=0.5;exitY=0;exitDx=0;exitDy=0;exitPerimeter=0;" parent="kgZVn9VdSYF8p0RM1xLM-1" source="ySRutuFvQDhnhbDo5Cpl-1" target="kgZVn9VdSYF8p0RM1xLM-3" edge="1">
          <mxGeometry width="50" height="50" relative="1" as="geometry">
            <mxPoint x="80" y="-580" as="sourcePoint" />
            <mxPoint x="130" y="-630" as="targetPoint" />
            <Array as="points">
              <mxPoint x="50" y="-910" />
            </Array>
          </mxGeometry>
        </mxCell>
        <mxCell id="ySRutuFvQDhnhbDo5Cpl-1" value="API-Users" style="aspect=fixed;sketch=0;html=1;dashed=0;whitespace=wrap;verticalLabelPosition=bottom;verticalAlign=top;fillColor=#2875E2;strokeColor=#ffffff;points=[[0.005,0.63,0],[0.1,0.2,0],[0.9,0.2,0],[0.5,0,0],[0.995,0.63,0],[0.72,0.99,0],[0.5,1,0],[0.28,0.99,0]];shape=mxgraph.kubernetes.icon2;prIcon=pod" parent="kgZVn9VdSYF8p0RM1xLM-1" vertex="1">
          <mxGeometry x="10" y="-680" width="83.33" height="80" as="geometry" />
        </mxCell>
      </root>
    </mxGraphModel>
  </diagram>
  <diagram name="API-Exchanges" id="IKCGU5dy3-lJWcXwivRJ">
    <mxGraphModel dx="1194" dy="1868" grid="1" gridSize="10" guides="1" tooltips="1" connect="1" arrows="1" fold="1" page="1" pageScale="1" pageWidth="827" pageHeight="1169" math="0" shadow="0">
      <root>
        <mxCell id="ilvftzGkpv_a4KF8QHjG-0" />
        <mxCell id="ilvftzGkpv_a4KF8QHjG-1" parent="ilvftzGkpv_a4KF8QHjG-0" />
        <mxCell id="ilvftzGkpv_a4KF8QHjG-2" value="Docker Compose" style="points=[[0,0],[0.25,0],[0.5,0],[0.75,0],[1,0],[1,0.25],[1,0.5],[1,0.75],[1,1],[0.75,1],[0.5,1],[0.25,1],[0,1],[0,0.75],[0,0.5],[0,0.25]];outlineConnect=0;gradientColor=none;html=1;whiteSpace=wrap;fontSize=12;fontStyle=0;container=1;pointerEvents=0;collapsible=0;recursiveResize=0;shape=mxgraph.aws4.group;grIcon=mxgraph.aws4.group_aws_cloud;strokeColor=#232F3E;fillColor=none;verticalAlign=top;align=left;spacingLeft=30;fontColor=#232F3E;dashed=0;" parent="ilvftzGkpv_a4KF8QHjG-1" vertex="1">
          <mxGeometry x="40" y="-1120" width="560" height="400" as="geometry" />
        </mxCell>
        <mxCell id="ilvftzGkpv_a4KF8QHjG-3" value="API-Exchanges" style="aspect=fixed;sketch=0;html=1;dashed=0;whitespace=wrap;verticalLabelPosition=bottom;verticalAlign=top;fillColor=#2875E2;strokeColor=#ffffff;points=[[0.005,0.63,0],[0.1,0.2,0],[0.9,0.2,0],[0.5,0,0],[0.995,0.63,0],[0.72,0.99,0],[0.5,1,0],[0.28,0.99,0]];shape=mxgraph.kubernetes.icon2;prIcon=pod" parent="ilvftzGkpv_a4KF8QHjG-2" vertex="1">
          <mxGeometry x="36.660000000000004" y="160" width="83.33" height="80" as="geometry" />
        </mxCell>
        <mxCell id="ilvftzGkpv_a4KF8QHjG-4" value="Exchange_DB" style="image;aspect=fixed;html=1;points=[];align=center;fontSize=12;image=img/lib/azure2/databases/Azure_Database_PostgreSQL_Server.svg;" parent="ilvftzGkpv_a4KF8QHjG-2" vertex="1">
          <mxGeometry x="250" y="290" width="60" height="80" as="geometry" />
        </mxCell>
        <mxCell id="ilvftzGkpv_a4KF8QHjG-5" value="&lt;b&gt;Base path:&lt;/b&gt;&lt;div&gt;/api/v1&lt;/div&gt;" style="text;html=1;align=left;verticalAlign=middle;whiteSpace=wrap;rounded=0;" parent="ilvftzGkpv_a4KF8QHjG-2" vertex="1">
          <mxGeometry x="38.33" y="40" width="80" height="40" as="geometry" />
        </mxCell>
        <mxCell id="OYv4sOeeKWjqf_DD6vY8-0" value="&lt;div style=&quot;text-align: justify;&quot;&gt;&lt;b style=&quot;background-color: transparent; color: light-dark(rgb(0, 0, 0), rgb(255, 255, 255));&quot;&gt;Resources:&lt;/b&gt;&lt;/div&gt;&lt;div style=&quot;text-align: justify;&quot;&gt;/exchanges?user=uuid&amp;amp;game&lt;span style=&quot;background-color: transparent; color: light-dark(rgb(0, 0, 0), rgb(255, 255, 255));&quot;&gt;=uuid&lt;/span&gt;&lt;/div&gt;" style="rounded=1;whiteSpace=wrap;html=1;align=center;" parent="ilvftzGkpv_a4KF8QHjG-2" vertex="1">
          <mxGeometry x="160" y="162" width="240" height="80" as="geometry" />
        </mxCell>
        <mxCell id="OYv4sOeeKWjqf_DD6vY8-1" value="Producer&lt;div&gt;Message&lt;/div&gt;" style="sketch=0;points=[[0,0,0],[0.25,0,0],[0.5,0,0],[0.75,0,0],[1,0,0],[0,1,0],[0.25,1,0],[0.5,1,0],[0.75,1,0],[1,1,0],[0,0.25,0],[0,0.5,0],[0,0.75,0],[1,0.25,0],[1,0.5,0],[1,0.75,0]];outlineConnect=0;fontColor=#232F3E;fillColor=#8C4FFF;strokeColor=#ffffff;dashed=0;verticalLabelPosition=bottom;verticalAlign=top;align=center;html=1;fontSize=12;fontStyle=0;aspect=fixed;shape=mxgraph.aws4.resourceIcon;resIcon=mxgraph.aws4.managed_streaming_for_kafka;" parent="ilvftzGkpv_a4KF8QHjG-2" vertex="1">
          <mxGeometry x="440" y="162" width="78" height="78" as="geometry" />
        </mxCell>
        <mxCell id="yKF59rymmk5tQ1_ApYqg-0" value="" style="endArrow=classic;html=1;rounded=0;exitX=0.944;exitY=0.525;exitDx=0;exitDy=0;exitPerimeter=0;entryX=0;entryY=0.5;entryDx=0;entryDy=0;" parent="ilvftzGkpv_a4KF8QHjG-2" source="ilvftzGkpv_a4KF8QHjG-3" target="OYv4sOeeKWjqf_DD6vY8-0" edge="1">
          <mxGeometry width="50" height="50" relative="1" as="geometry">
            <mxPoint x="121.66334999999997" y="215.15999999999997" as="sourcePoint" />
            <mxPoint x="200.42" y="210.00072534914284" as="targetPoint" />
          </mxGeometry>
        </mxCell>
        <mxCell id="yKF59rymmk5tQ1_ApYqg-1" value="" style="endArrow=classic;html=1;rounded=0;exitX=1;exitY=0.5;exitDx=0;exitDy=0;entryX=0;entryY=0.5;entryDx=0;entryDy=0;entryPerimeter=0;" parent="ilvftzGkpv_a4KF8QHjG-2" source="OYv4sOeeKWjqf_DD6vY8-0" target="OYv4sOeeKWjqf_DD6vY8-1" edge="1">
          <mxGeometry width="50" height="50" relative="1" as="geometry">
            <mxPoint x="540" y="350" as="sourcePoint" />
            <mxPoint x="590" y="300" as="targetPoint" />
          </mxGeometry>
        </mxCell>
        <mxCell id="yKF59rymmk5tQ1_ApYqg-2" value="" style="endArrow=classic;html=1;rounded=0;exitX=0.5;exitY=1;exitDx=0;exitDy=0;entryX=0.5;entryY=0.038;entryDx=0;entryDy=0;entryPerimeter=0;" parent="ilvftzGkpv_a4KF8QHjG-2" source="OYv4sOeeKWjqf_DD6vY8-0" target="ilvftzGkpv_a4KF8QHjG-4" edge="1">
          <mxGeometry width="50" height="50" relative="1" as="geometry">
            <mxPoint x="130" y="350" as="sourcePoint" />
            <mxPoint x="180" y="300" as="targetPoint" />
          </mxGeometry>
        </mxCell>
        <mxCell id="-2z-Jp6jQeVWI7i1Gr_h-0" value="API-Users" style="aspect=fixed;sketch=0;html=1;dashed=0;whitespace=wrap;verticalLabelPosition=bottom;verticalAlign=top;fillColor=#2875E2;strokeColor=#ffffff;points=[[0.005,0.63,0],[0.1,0.2,0],[0.9,0.2,0],[0.5,0,0],[0.995,0.63,0],[0.72,0.99,0],[0.5,1,0],[0.28,0.99,0]];shape=mxgraph.kubernetes.icon2;prIcon=pod" parent="ilvftzGkpv_a4KF8QHjG-1" vertex="1">
          <mxGeometry x="200" y="-680" width="83.33" height="80" as="geometry" />
        </mxCell>
        <mxCell id="-2z-Jp6jQeVWI7i1Gr_h-1" value="API-Games" style="aspect=fixed;sketch=0;html=1;dashed=0;whitespace=wrap;verticalLabelPosition=bottom;verticalAlign=top;fillColor=#2875E2;strokeColor=#ffffff;points=[[0.005,0.63,0],[0.1,0.2,0],[0.9,0.2,0],[0.5,0,0],[0.995,0.63,0],[0.72,0.99,0],[0.5,1,0],[0.28,0.99,0]];shape=mxgraph.kubernetes.icon2;prIcon=pod" parent="ilvftzGkpv_a4KF8QHjG-1" vertex="1">
          <mxGeometry x="400" y="-680" width="83.33" height="80" as="geometry" />
        </mxCell>
        <mxCell id="-2z-Jp6jQeVWI7i1Gr_h-3" value="" style="endArrow=classic;startArrow=classic;html=1;rounded=0;entryX=0.5;entryY=0;entryDx=0;entryDy=0;entryPerimeter=0;exitX=1;exitY=1;exitDx=0;exitDy=0;" parent="ilvftzGkpv_a4KF8QHjG-1" source="OYv4sOeeKWjqf_DD6vY8-0" target="-2z-Jp6jQeVWI7i1Gr_h-1" edge="1">
          <mxGeometry width="50" height="50" relative="1" as="geometry">
            <mxPoint x="340" y="-660" as="sourcePoint" />
            <mxPoint x="390" y="-710" as="targetPoint" />
          </mxGeometry>
        </mxCell>
        <mxCell id="-2z-Jp6jQeVWI7i1Gr_h-4" value="" style="endArrow=classic;startArrow=classic;html=1;rounded=0;entryX=0.5;entryY=0;entryDx=0;entryDy=0;entryPerimeter=0;exitX=0.175;exitY=0.963;exitDx=0;exitDy=0;exitPerimeter=0;" parent="ilvftzGkpv_a4KF8QHjG-1" source="OYv4sOeeKWjqf_DD6vY8-0" target="-2z-Jp6jQeVWI7i1Gr_h-0" edge="1">
          <mxGeometry width="50" height="50" relative="1" as="geometry">
            <mxPoint x="90" y="-650" as="sourcePoint" />
            <mxPoint x="140" y="-700" as="targetPoint" />
            <Array as="points">
              <mxPoint x="242" y="-830" />
              <mxPoint x="242" y="-750" />
            </Array>
          </mxGeometry>
        </mxCell>
      </root>
    </mxGraphModel>
  </diagram>
  <diagram name="API-Messages" id="t3T160AjgJBqR4EDZ8Qd">
    <mxGraphModel dx="1194" dy="1868" grid="1" gridSize="10" guides="1" tooltips="1" connect="1" arrows="1" fold="1" page="1" pageScale="1" pageWidth="827" pageHeight="1169" math="0" shadow="0">
      <root>
        <mxCell id="MonrRfE_Jj3FSYjCp9Tk-0" />
        <mxCell id="MonrRfE_Jj3FSYjCp9Tk-1" parent="MonrRfE_Jj3FSYjCp9Tk-0" />
        <mxCell id="MonrRfE_Jj3FSYjCp9Tk-2" value="Docker Compose" style="points=[[0,0],[0.25,0],[0.5,0],[0.75,0],[1,0],[1,0.25],[1,0.5],[1,0.75],[1,1],[0.75,1],[0.5,1],[0.25,1],[0,1],[0,0.75],[0,0.5],[0,0.25]];outlineConnect=0;gradientColor=none;html=1;whiteSpace=wrap;fontSize=12;fontStyle=0;container=1;pointerEvents=0;collapsible=0;recursiveResize=0;shape=mxgraph.aws4.group;grIcon=mxgraph.aws4.group_aws_cloud;strokeColor=#232F3E;fillColor=none;verticalAlign=top;align=left;spacingLeft=30;fontColor=#232F3E;dashed=0;" vertex="1" parent="MonrRfE_Jj3FSYjCp9Tk-1">
          <mxGeometry x="40" y="-1120" width="240" height="240" as="geometry" />
        </mxCell>
        <mxCell id="MonrRfE_Jj3FSYjCp9Tk-7" value="Consumer&lt;div&gt;Message&lt;/div&gt;" style="sketch=0;points=[[0,0,0],[0.25,0,0],[0.5,0,0],[0.75,0,0],[1,0,0],[0,1,0],[0.25,1,0],[0.5,1,0],[0.75,1,0],[1,1,0],[0,0.25,0],[0,0.5,0],[0,0.75,0],[1,0.25,0],[1,0.5,0],[1,0.75,0]];outlineConnect=0;fontColor=#232F3E;fillColor=#8C4FFF;strokeColor=#ffffff;dashed=0;verticalLabelPosition=bottom;verticalAlign=top;align=center;html=1;fontSize=12;fontStyle=0;aspect=fixed;shape=mxgraph.aws4.resourceIcon;resIcon=mxgraph.aws4.managed_streaming_for_kafka;" vertex="1" parent="MonrRfE_Jj3FSYjCp9Tk-2">
          <mxGeometry x="80" y="80" width="78" height="78" as="geometry" />
        </mxCell>
      </root>
    </mxGraphModel>
  </diagram>
</mxfile>
